M48
; DRILL file {KiCad 9.0.4} date 2025-10-10T12:55:55+0530
; FORMAT={-:-/ absolute / metric / decimal}
; #@! TF.CreationDate,2025-10-10T12:55:55+05:30
; #@! TF.GenerationSoftware,Kicad,Pcbnew,9.0.4
; #@! TF.FileFunction,Plated,1,2,PTH
FMAT,2
METRIC
; #@! TA.AperFunction,Plated,PTH,ViaDrill
T1C0.300
; #@! TA.AperFunction,Plated,PTH,ViaDrill
T2C0.400
; #@! TA.AperFunction,Plated,PTH,ComponentDrill
T3C0.500
; #@! TA.AperFunction,Plated,PTH,ComponentDrill
T4C0.600
; #@! TA.AperFunction,Plated,PTH,ComponentDrill
T5C1.000
; #@! TA.AperFunction,Plated,PTH,ComponentDrill
T6C1.100
; #@! TA.AperFunction,Plated,PTH,ComponentDrill
T7C1.200
; #@! TA.AperFunction,Plated,PTH,ComponentDrill
T8C3.200
%
G90
G05
T1
X107.825Y-69.725
X109.2Y-59.707
X109.2Y-67.707
X109.2Y-95.707
X109.2Y-97.707
X109.2Y-99.707
X109.2Y-101.707
X109.2Y-103.707
X109.2Y-105.707
X109.2Y-107.707
X109.2Y-109.707
X109.2Y-111.707
X109.2Y-113.707
X109.2Y-115.707
X110.05Y-82.4
X110.2Y-72.45
X111.2Y-67.707
X111.2Y-99.707
X111.2Y-105.707
X111.9Y-78.8
X111.9Y-88.8
X112.1Y-74.05
X112.1Y-75.05
X112.1Y-84.0
X112.1Y-85.0
X113.0Y-75.05
X113.0Y-85.0
X113.05Y-78.8
X113.05Y-88.8
X113.2Y-53.707
X113.2Y-57.707
X113.2Y-63.707
X113.2Y-67.707
X113.2Y-99.707
X113.2Y-103.707
X113.2Y-105.707
X113.2Y-113.707
X113.9Y-74.05
X113.9Y-75.05
X113.9Y-84.0
X113.9Y-85.0
X115.2Y-45.707
X115.2Y-47.707
X115.2Y-49.707
X115.2Y-51.707
X115.2Y-55.707
X115.2Y-57.707
X115.2Y-99.707
X115.2Y-101.707
X115.2Y-103.707
X115.2Y-105.707
X115.2Y-107.707
X115.2Y-115.707
X115.2Y-117.707
X115.2Y-119.707
X115.2Y-121.707
X117.0Y-69.55
X117.2Y-49.707
X117.2Y-53.707
X117.2Y-55.707
X117.2Y-63.707
X117.2Y-89.707
X117.2Y-99.707
X117.2Y-101.707
X117.2Y-103.707
X117.2Y-105.707
X117.2Y-107.707
X117.2Y-109.707
X117.2Y-121.707
X117.5Y-93.15
X119.2Y-59.707
X119.2Y-69.707
X119.2Y-103.707
X119.2Y-105.707
X119.2Y-107.707
X119.2Y-109.707
X119.2Y-111.707
X119.2Y-113.707
X119.2Y-115.707
X119.2Y-121.707
X119.75Y-52.95
X120.7Y-52.9
X121.2Y-57.707
X121.2Y-65.707
X121.2Y-67.707
X121.2Y-69.707
X121.2Y-71.707
X121.2Y-81.707
X121.2Y-97.707
X121.2Y-99.707
X121.2Y-101.707
X121.2Y-103.707
X121.2Y-105.707
X121.2Y-107.707
X121.2Y-109.707
X121.2Y-111.707
X121.2Y-115.707
X121.2Y-121.707
X122.05Y-52.1
X122.15Y-93.3
X123.2Y-55.707
X123.2Y-57.707
X123.2Y-61.707
X123.2Y-63.707
X123.2Y-67.707
X123.2Y-69.707
X123.2Y-71.707
X123.2Y-81.707
X123.2Y-95.707
X123.2Y-105.707
X123.2Y-107.707
X123.2Y-113.707
X123.2Y-115.707
X123.2Y-121.707
X123.85Y-109.5
X123.85Y-110.4
X123.85Y-111.55
X124.18Y-112.387
X125.15Y-69.2
X125.2Y-49.707
X125.2Y-51.707
X125.2Y-57.707
X125.2Y-61.707
X125.2Y-63.707
X125.2Y-65.707
X125.2Y-73.707
X125.2Y-75.707
X125.2Y-77.707
X125.2Y-79.707
X125.2Y-81.707
X125.2Y-85.707
X125.2Y-87.707
X125.2Y-107.707
X125.2Y-109.707
X125.2Y-113.707
X125.2Y-115.707
X125.2Y-119.707
X125.2Y-121.707
X125.6Y-92.6
X125.9Y-100.7
X126.475Y-60.5
X127.2Y-45.707
X127.2Y-53.707
X127.2Y-63.707
X127.2Y-65.707
X127.2Y-85.707
X127.2Y-89.707
X127.2Y-91.707
X127.2Y-99.707
X127.2Y-107.707
X127.2Y-109.707
X127.2Y-113.707
X127.2Y-115.707
X127.2Y-119.707
X127.2Y-121.707
X128.75Y-68.1
X128.75Y-72.8
X129.2Y-63.707
X129.2Y-65.707
X129.2Y-75.707
X129.2Y-77.707
X129.2Y-79.707
X129.2Y-81.707
X129.2Y-87.707
X129.2Y-89.707
X129.2Y-91.707
X129.2Y-107.707
X129.2Y-109.707
X129.2Y-113.707
X129.2Y-115.707
X129.2Y-121.707
X129.25Y-101.125
X129.425Y-98.7
X130.85Y-84.6
X131.05Y-94.3
X131.062Y-77.798
X131.076Y-78.629
X131.1Y-79.456
X131.1Y-81.09
X131.1Y-81.92
X131.1Y-80.286
X131.2Y-65.707
X131.2Y-75.707
X131.2Y-87.707
X131.2Y-89.707
X131.2Y-91.707
X131.2Y-95.707
X131.2Y-103.707
X131.2Y-107.707
X131.2Y-109.707
X131.2Y-113.707
X131.2Y-115.707
X131.2Y-121.707
X131.225Y-101.1
X131.54Y-82.589
X131.891Y-77.837
X132.1Y-62.85
X132.35Y-69.2
X132.37Y-82.59
X132.66Y-110.76
X132.72Y-77.862
X133.2Y-71.707
X133.2Y-73.707
X133.2Y-75.707
X133.2Y-82.59
X133.2Y-85.707
X133.2Y-87.707
X133.2Y-89.707
X133.2Y-91.707
X133.2Y-95.707
X133.2Y-113.707
X133.2Y-115.707
X133.2Y-121.707
X133.35Y-64.475
X133.55Y-77.89
X133.7Y-109.725
X134.0Y-60.261
X134.064Y-82.57
X134.35Y-58.65
X134.35Y-77.89
X134.825Y-66.075
X134.847Y-82.36
X134.949Y-57.978
X135.2Y-45.707
X135.2Y-47.707
X135.2Y-49.707
X135.2Y-69.707
X135.2Y-73.707
X135.2Y-75.707
X135.2Y-99.707
X135.2Y-101.707
X135.2Y-105.707
X135.2Y-111.707
X135.2Y-113.707
X135.2Y-115.707
X135.2Y-121.707
X135.23Y-77.89
X135.6Y-58.6
X135.629Y-82.539
X135.95Y-107.475
X136.06Y-77.893
X136.3Y-67.25
X136.665Y-106.815
X136.889Y-77.89
X137.2Y-45.707
X137.2Y-47.707
X137.2Y-49.707
X137.2Y-73.707
X137.2Y-75.707
X137.2Y-104.05
X137.2Y-109.707
X137.2Y-111.707
X137.2Y-119.707
X137.2Y-121.707
X137.403Y-85.245
X137.45Y-68.625
X137.696Y-77.89
X137.875Y-103.25
X137.9Y-55.525
X138.252Y-78.477
X138.43Y-113.26
X138.55Y-104.05
X138.743Y-77.776
X139.05Y-54.1
X139.2Y-45.707
X139.2Y-47.707
X139.2Y-49.707
X139.2Y-51.707
X139.2Y-61.707
X139.2Y-115.707
X139.2Y-119.707
X139.2Y-121.707
X139.4Y-70.6
X139.75Y-105.1
X139.75Y-114.0
X140.05Y-58.0
X140.609Y-105.369
X141.15Y-104.65
X141.2Y-45.707
X141.2Y-47.707
X141.2Y-49.707
X141.2Y-51.707
X141.2Y-53.707
X141.2Y-55.707
X141.2Y-61.707
X141.2Y-73.707
X141.2Y-95.707
X141.2Y-97.707
X141.2Y-99.707
X141.2Y-101.707
X141.2Y-109.707
X141.2Y-111.707
X141.2Y-113.707
X141.2Y-115.707
X141.2Y-119.707
X141.2Y-121.707
X141.3Y-63.95
X141.35Y-59.35
X142.072Y-79.406
X142.2Y-92.6
X142.2Y-94.3
X142.25Y-81.95
X142.25Y-83.05
X142.25Y-84.15
X142.25Y-86.3
X142.35Y-78.55
X142.35Y-87.4
X142.55Y-69.1
X142.647Y-46.33
X142.65Y-47.16
X142.65Y-45.5
X142.65Y-48.8
X142.65Y-49.63
X142.65Y-50.46
X142.65Y-51.29
X142.65Y-52.12
X142.65Y-47.99
X143.15Y-76.75
X143.2Y-61.707
X143.2Y-65.707
X143.2Y-95.707
X143.2Y-99.707
X143.2Y-101.707
X143.2Y-103.707
X143.2Y-109.707
X143.2Y-111.707
X143.2Y-113.707
X143.2Y-115.707
X143.2Y-121.707
X143.357Y-45.065
X143.4Y-81.05
X143.4Y-85.05
X143.4Y-87.8
X143.479Y-52.153
X144.15Y-45.2
X144.309Y-52.15
X144.4Y-104.9
X144.9Y-75.9
X144.95Y-45.2
X145.139Y-52.15
X145.2Y-61.707
X145.2Y-111.707
X145.2Y-113.707
X145.2Y-115.707
X145.2Y-121.707
X145.3Y-105.55
X145.5Y-100.95
X145.588Y-100.054
X145.599Y-72.0
X145.7Y-93.35
X145.762Y-51.601
X145.77Y-45.2
X146.298Y-87.879
X146.429Y-51.15
X146.6Y-45.2
X146.6Y-104.875
X146.612Y-72.362
X146.818Y-71.379
X146.9Y-75.9
X146.9Y-86.1
X146.9Y-108.8
X147.1Y-106.59
X147.2Y-61.707
X147.2Y-77.707
X147.2Y-83.707
X147.2Y-113.707
X147.2Y-115.707
X147.2Y-119.707
X147.2Y-121.707
X147.259Y-51.15
X147.4Y-45.2
X147.45Y-95.2
X147.715Y-71.308
X147.89Y-100.7
X147.9Y-88.25
X148.089Y-51.15
X148.22Y-45.2
X148.75Y-100.1
X148.838Y-101.238
X148.919Y-51.15
X148.95Y-91.35
X149.05Y-45.2
X149.2Y-61.707
X149.2Y-77.707
X149.2Y-79.707
X149.2Y-109.707
X149.2Y-113.707
X149.2Y-115.707
X149.2Y-121.707
X149.4Y-75.9
X149.55Y-103.4
X149.675Y-91.883
X149.75Y-51.15
X149.87Y-45.2
X150.152Y-93.6
X150.25Y-69.6
X150.25Y-70.55
X150.4Y-91.35
X150.413Y-103.655
X150.55Y-51.15
X150.7Y-45.2
X150.9Y-88.25
X150.9Y-94.25
X151.019Y-93.358
X151.021Y-70.064
X151.035Y-71.249
X151.2Y-65.707
X151.2Y-77.707
X151.2Y-79.707
X151.2Y-83.707
X151.2Y-105.707
X151.2Y-109.707
X151.2Y-113.707
X151.2Y-115.707
X151.2Y-119.707
X151.2Y-121.707
X151.221Y-50.662
X151.267Y-61.583
X151.329Y-72.099
X151.4Y-75.9
X151.5Y-45.2
X151.85Y-50.15
X151.9Y-91.35
X151.925Y-71.425
X151.975Y-62.775
X152.25Y-112.4
X152.3Y-87.9
X152.32Y-45.2
X152.4Y-59.9
X152.487Y-111.532
X152.68Y-50.15
X152.75Y-70.95
X153.15Y-45.2
X153.175Y-67.2
X153.2Y-51.707
X153.2Y-79.707
X153.2Y-81.707
X153.2Y-83.707
X153.2Y-107.707
X153.2Y-109.707
X153.2Y-115.707
X153.2Y-119.707
X153.2Y-121.707
X153.405Y-71.567
X153.5Y-50.15
X153.61Y-70.685
X153.825Y-94.4
X154.02Y-45.2
X154.2Y-76.05
X154.3Y-50.15
X154.4Y-88.25
X154.475Y-58.075
X154.85Y-45.2
X155.13Y-50.15
X155.2Y-53.707
X155.2Y-89.707
X155.2Y-95.707
X155.2Y-101.707
X155.2Y-103.707
X155.2Y-105.707
X155.2Y-107.707
X155.2Y-109.707
X155.2Y-111.707
X155.2Y-113.707
X155.2Y-119.707
X155.2Y-121.707
X155.585Y-57.535
X155.65Y-45.35
X155.65Y-46.15
X155.65Y-46.95
X155.65Y-47.8
X155.65Y-48.7
X155.65Y-49.5
X156.45Y-63.95
X156.475Y-96.95
X156.564Y-71.386
X157.0Y-75.05
X157.2Y-45.707
X157.2Y-47.707
X157.2Y-51.707
X157.2Y-70.75
X157.2Y-89.707
X157.2Y-91.707
X157.2Y-101.707
X157.2Y-103.707
X157.2Y-105.707
X157.2Y-107.707
X157.2Y-109.707
X157.2Y-111.707
X157.2Y-113.707
X157.2Y-115.707
X157.2Y-121.707
X157.249Y-69.75
X157.25Y-68.2
X157.762Y-67.46
X157.85Y-65.0
X158.0Y-86.65
X158.075Y-83.0
X158.75Y-96.7
X159.2Y-45.707
X159.2Y-49.707
X159.2Y-59.707
X159.2Y-79.707
X159.2Y-101.707
X159.2Y-103.707
X159.2Y-105.707
X159.2Y-107.707
X159.2Y-109.707
X159.2Y-111.707
X159.2Y-113.707
X159.2Y-115.707
X159.2Y-121.707
X159.525Y-83.875
X160.55Y-69.25
X160.65Y-67.5
X161.2Y-47.707
X161.2Y-49.707
X161.2Y-75.707
X161.2Y-79.707
X161.2Y-99.707
X161.2Y-101.707
X161.2Y-103.707
X161.2Y-105.707
X161.2Y-107.707
X161.2Y-109.707
X161.2Y-111.707
X161.2Y-113.707
X161.2Y-115.707
X161.2Y-121.707
X161.55Y-65.025
X162.225Y-94.625
X163.2Y-59.707
X163.2Y-63.707
X163.2Y-67.707
X163.2Y-75.707
X163.2Y-81.707
X163.2Y-83.707
X163.2Y-85.707
X163.2Y-87.707
X163.2Y-89.707
X163.2Y-91.707
X163.2Y-99.707
X163.2Y-101.707
X163.2Y-103.707
X163.2Y-105.707
X163.2Y-107.707
X163.2Y-109.707
X163.2Y-111.707
X163.2Y-113.707
X163.2Y-115.707
X163.2Y-121.707
X165.2Y-53.707
X165.2Y-59.707
X165.2Y-63.707
X165.2Y-65.707
X165.2Y-69.707
X165.2Y-71.707
X165.2Y-75.707
X165.2Y-83.707
X165.2Y-85.707
X165.2Y-87.707
X165.2Y-89.707
X165.2Y-91.707
X165.2Y-93.707
X165.2Y-101.707
X165.2Y-103.707
X165.2Y-105.707
X165.2Y-107.707
X165.2Y-109.707
X165.2Y-111.707
X165.2Y-113.707
X165.2Y-115.707
X165.2Y-119.707
X165.2Y-121.707
X165.85Y-98.15
X167.2Y-47.707
X167.2Y-51.707
X167.2Y-55.707
X167.2Y-67.707
X167.2Y-69.707
X167.2Y-71.707
X167.2Y-77.707
X167.2Y-83.707
X167.2Y-85.707
X167.2Y-87.707
X167.2Y-89.707
X167.2Y-91.707
X167.2Y-93.707
X167.2Y-95.707
X167.2Y-103.707
X167.2Y-105.707
X167.2Y-107.707
X167.2Y-109.707
X167.2Y-111.707
X167.2Y-113.707
X167.2Y-115.707
X167.2Y-119.707
X167.2Y-121.707
X167.6Y-59.8
X169.184Y-97.728
X169.2Y-49.707
X169.2Y-53.707
X169.2Y-57.707
X169.2Y-63.707
X169.2Y-65.707
X169.2Y-67.707
X169.2Y-69.707
X169.2Y-75.707
X169.2Y-77.707
X169.2Y-83.707
X169.2Y-85.707
X169.2Y-87.707
X169.2Y-93.707
X169.2Y-95.707
X169.2Y-105.707
X169.2Y-107.707
X169.2Y-109.707
X169.2Y-111.707
X169.2Y-113.707
X169.2Y-115.707
X169.2Y-121.707
X169.75Y-102.0
X169.95Y-98.2
X171.2Y-47.707
X171.2Y-51.707
X171.2Y-55.707
X171.2Y-75.707
X171.2Y-77.707
X171.2Y-83.707
X171.2Y-85.707
X171.2Y-87.707
X171.2Y-93.707
X171.2Y-99.707
X171.2Y-107.707
X171.2Y-109.707
X171.2Y-111.707
X171.2Y-113.707
X171.2Y-121.707
X172.275Y-70.325
X173.2Y-51.707
X173.2Y-55.707
X173.2Y-63.707
X173.2Y-65.707
X173.2Y-67.707
X173.2Y-77.707
X173.2Y-85.707
X173.2Y-101.707
X173.2Y-121.707
X175.2Y-47.707
X175.2Y-49.707
X175.2Y-51.707
X175.2Y-65.707
X175.2Y-67.707
X175.2Y-85.707
X175.2Y-89.707
X175.2Y-95.707
X175.2Y-101.707
X175.2Y-103.707
X175.2Y-107.707
X175.2Y-109.707
X175.2Y-111.707
X175.2Y-115.707
X175.2Y-117.707
X175.2Y-121.707
X177.2Y-45.707
X177.2Y-47.707
X177.2Y-49.707
X177.2Y-51.707
X177.2Y-65.707
X177.2Y-67.707
X177.2Y-69.707
X177.2Y-83.707
X177.2Y-89.707
X177.2Y-91.707
X177.2Y-95.707
X177.2Y-97.707
X177.2Y-99.707
X177.2Y-101.707
X177.2Y-103.707
X177.2Y-105.707
X177.2Y-109.707
X177.2Y-111.707
X177.2Y-115.707
X177.2Y-117.707
X177.2Y-119.707
X177.2Y-121.707
X177.45Y-77.35
X177.95Y-57.2
X178.25Y-71.5
X178.25Y-72.425
X178.3Y-77.0
X178.427Y-74.612
X178.438Y-73.712
X178.55Y-76.1
X179.2Y-45.707
X179.2Y-65.707
X179.2Y-67.707
X179.2Y-69.707
X179.2Y-83.707
X179.2Y-89.707
X179.2Y-91.707
X179.2Y-95.707
X179.2Y-97.707
X179.2Y-99.707
X179.2Y-101.707
X179.2Y-103.707
X179.2Y-105.707
X179.2Y-107.707
X179.2Y-111.707
X179.2Y-115.707
X180.45Y-61.4
X180.6Y-57.8
X180.75Y-59.6
X181.1Y-85.25
X181.15Y-86.75
X181.2Y-55.707
X181.2Y-63.707
X181.2Y-65.707
X181.2Y-67.707
X181.2Y-89.707
X181.2Y-91.707
X181.2Y-93.707
X181.2Y-95.707
X181.2Y-97.707
X181.2Y-99.707
X181.2Y-101.707
X181.2Y-103.707
X181.2Y-105.707
X181.6Y-71.2
X181.65Y-73.9
X181.7Y-75.0
X181.7Y-76.1
X181.7Y-77.2
X181.7Y-79.4
X181.7Y-80.5
X182.8Y-75.2
X183.2Y-65.707
X183.2Y-67.707
X183.2Y-89.707
X183.2Y-91.707
X183.2Y-95.707
X183.2Y-97.707
X183.2Y-99.707
X183.2Y-101.707
X183.2Y-103.707
X183.2Y-105.707
X185.4Y-76.1
T2
X117.2Y-86.25
X119.85Y-62.1
T3
X108.936Y-49.136
X108.936Y-119.136
X109.638Y-47.438
X109.638Y-50.833
X109.638Y-117.438
X109.638Y-120.833
X111.336Y-46.736
X111.336Y-51.536
X111.336Y-116.736
X111.336Y-121.536
X113.033Y-47.438
X113.033Y-50.833
X113.033Y-117.438
X113.033Y-120.833
X113.736Y-49.136
X113.736Y-119.136
X137.6Y-79.3
X137.6Y-81.2
X178.936Y-49.136
X178.936Y-119.136
X179.638Y-47.438
X179.638Y-50.833
X179.638Y-117.438
X179.638Y-120.833
X181.336Y-46.736
X181.336Y-51.536
X181.336Y-116.736
X181.336Y-121.536
X183.033Y-47.438
X183.033Y-50.833
X183.033Y-117.438
X183.033Y-120.833
X183.736Y-49.136
X183.736Y-119.136
T5
X117.04Y-46.8
X119.58Y-46.8
X122.12Y-46.8
X124.66Y-46.8
X128.65Y-46.84
X128.65Y-49.38
X128.65Y-51.92
X128.65Y-54.46
X133.25Y-97.24
X133.25Y-99.78
X133.25Y-102.32
X133.25Y-104.86
X142.74Y-97.65
X144.91Y-66.9
X145.28Y-97.65
X147.45Y-66.9
X147.82Y-97.65
X149.99Y-66.9
X150.36Y-97.65
X162.75Y-45.9
X165.29Y-45.9
X167.83Y-45.9
X170.37Y-45.9
X172.91Y-45.9
X175.45Y-45.9
T6
X111.782Y-97.3
X111.782Y-102.3
X143.905Y-119.468
X148.905Y-119.468
T7
X110.233Y-55.175
X110.233Y-57.715
X110.233Y-62.525
X110.233Y-65.065
X111.4Y-107.86
X111.4Y-110.4
X111.4Y-112.94
X117.6Y-120.0
X120.14Y-120.0
X122.68Y-120.0
X130.262Y-120.0
X132.802Y-120.0
X135.343Y-120.0
X157.457Y-120.0
X159.998Y-120.0
X162.537Y-120.0
X170.12Y-120.0
X172.66Y-120.0
X175.2Y-120.0
X182.5Y-107.92
X182.5Y-110.46
X182.5Y-113.0
T8
X111.336Y-49.136
X111.336Y-119.136
X181.336Y-49.136
X181.336Y-119.136
T4
X179.025Y-55.28G85X180.125Y-55.28
G05
X179.025Y-63.92G85X180.125Y-63.92
G05
X183.355Y-55.28G85X184.155Y-55.28
G05
X183.355Y-63.92G85X184.155Y-63.92
G05
M30
