%TF.GenerationSoftware,KiCad,Pcbnew,9.0.4*%
%TF.CreationDate,2025-10-10T12:55:55+05:30*%
%TF.ProjectId,VECTRON_V1,56454354-524f-44e5-9f56-312e6b696361,rev?*%
%TF.SameCoordinates,Original*%
%TF.FileFunction,Drillmap*%
%TF.FilePolarity,Positive*%
%FSLAX45Y45*%
G04 Gerber Fmt 4.5, Leading zero omitted, Abs format (unit mm)*
G04 Created by KiCad (PCBNEW 9.0.4) date 2025-10-10 12:55:55*
%MOMM*%
%LPD*%
G01*
G04 APERTURE LIST*
%ADD10C,0.050000*%
%ADD11C,0.200000*%
%ADD12C,0.100000*%
%ADD13C,0.110000*%
%ADD14C,0.120000*%
%ADD15C,0.320000*%
G04 APERTURE END LIST*
D10*
X18633553Y-11913553D02*
G75*
G02*
X18133553Y-12413553I-500003J3D01*
G01*
X18133553Y-4413553D02*
G75*
G02*
X18633547Y-4913553I-3J-499997D01*
G01*
X11133553Y-12413553D02*
X18133553Y-12413553D01*
X10633553Y-4913553D02*
G75*
G02*
X11133553Y-4413553I500000J0D01*
G01*
X10633553Y-4913553D02*
X10633553Y-11913553D01*
X18633553Y-11913553D02*
X18633553Y-4913553D01*
X18133553Y-4413553D02*
X11133553Y-4413553D01*
X11133553Y-12413553D02*
G75*
G02*
X10633547Y-11913553I-3J500003D01*
G01*
D11*
D12*
X10767500Y-6957500D02*
X10797500Y-6987500D01*
X10797500Y-6957500D02*
X10767500Y-6987500D01*
X10905000Y-5955655D02*
X10935000Y-5985655D01*
X10935000Y-5955655D02*
X10905000Y-5985655D01*
X10905000Y-6755655D02*
X10935000Y-6785655D01*
X10935000Y-6755655D02*
X10905000Y-6785655D01*
X10905000Y-9555655D02*
X10935000Y-9585655D01*
X10935000Y-9555655D02*
X10905000Y-9585655D01*
X10905000Y-9755655D02*
X10935000Y-9785655D01*
X10935000Y-9755655D02*
X10905000Y-9785655D01*
X10905000Y-9955655D02*
X10935000Y-9985655D01*
X10935000Y-9955655D02*
X10905000Y-9985655D01*
X10905000Y-10155655D02*
X10935000Y-10185655D01*
X10935000Y-10155655D02*
X10905000Y-10185655D01*
X10905000Y-10355655D02*
X10935000Y-10385655D01*
X10935000Y-10355655D02*
X10905000Y-10385655D01*
X10905000Y-10555655D02*
X10935000Y-10585655D01*
X10935000Y-10555655D02*
X10905000Y-10585655D01*
X10905000Y-10755655D02*
X10935000Y-10785655D01*
X10935000Y-10755655D02*
X10905000Y-10785655D01*
X10905000Y-10955655D02*
X10935000Y-10985655D01*
X10935000Y-10955655D02*
X10905000Y-10985655D01*
X10905000Y-11155655D02*
X10935000Y-11185655D01*
X10935000Y-11155655D02*
X10905000Y-11185655D01*
X10905000Y-11355655D02*
X10935000Y-11385655D01*
X10935000Y-11355655D02*
X10905000Y-11385655D01*
X10905000Y-11555655D02*
X10935000Y-11585655D01*
X10935000Y-11555655D02*
X10905000Y-11585655D01*
X10990000Y-8225000D02*
X11020000Y-8255000D01*
X11020000Y-8225000D02*
X10990000Y-8255000D01*
X11005000Y-7230000D02*
X11035000Y-7260000D01*
X11035000Y-7230000D02*
X11005000Y-7260000D01*
X11105000Y-6755655D02*
X11135000Y-6785655D01*
X11135000Y-6755655D02*
X11105000Y-6785655D01*
X11105000Y-9955655D02*
X11135000Y-9985655D01*
X11135000Y-9955655D02*
X11105000Y-9985655D01*
X11105000Y-10555655D02*
X11135000Y-10585655D01*
X11135000Y-10555655D02*
X11105000Y-10585655D01*
X11175000Y-7865000D02*
X11205000Y-7895000D01*
X11205000Y-7865000D02*
X11175000Y-7895000D01*
X11175000Y-8865000D02*
X11205000Y-8895000D01*
X11205000Y-8865000D02*
X11175000Y-8895000D01*
X11195000Y-7390000D02*
X11225000Y-7420000D01*
X11225000Y-7390000D02*
X11195000Y-7420000D01*
X11195000Y-7490000D02*
X11225000Y-7520000D01*
X11225000Y-7490000D02*
X11195000Y-7520000D01*
X11195000Y-8385000D02*
X11225000Y-8415000D01*
X11225000Y-8385000D02*
X11195000Y-8415000D01*
X11195000Y-8485000D02*
X11225000Y-8515000D01*
X11225000Y-8485000D02*
X11195000Y-8515000D01*
X11285000Y-7490000D02*
X11315000Y-7520000D01*
X11315000Y-7490000D02*
X11285000Y-7520000D01*
X11285000Y-8485000D02*
X11315000Y-8515000D01*
X11315000Y-8485000D02*
X11285000Y-8515000D01*
X11290000Y-7865000D02*
X11320000Y-7895000D01*
X11320000Y-7865000D02*
X11290000Y-7895000D01*
X11290000Y-8865000D02*
X11320000Y-8895000D01*
X11320000Y-8865000D02*
X11290000Y-8895000D01*
X11305000Y-5355655D02*
X11335000Y-5385655D01*
X11335000Y-5355655D02*
X11305000Y-5385655D01*
X11305000Y-5755655D02*
X11335000Y-5785655D01*
X11335000Y-5755655D02*
X11305000Y-5785655D01*
X11305000Y-6355655D02*
X11335000Y-6385655D01*
X11335000Y-6355655D02*
X11305000Y-6385655D01*
X11305000Y-6755655D02*
X11335000Y-6785655D01*
X11335000Y-6755655D02*
X11305000Y-6785655D01*
X11305000Y-9955655D02*
X11335000Y-9985655D01*
X11335000Y-9955655D02*
X11305000Y-9985655D01*
X11305000Y-10355655D02*
X11335000Y-10385655D01*
X11335000Y-10355655D02*
X11305000Y-10385655D01*
X11305000Y-10555655D02*
X11335000Y-10585655D01*
X11335000Y-10555655D02*
X11305000Y-10585655D01*
X11305000Y-11355655D02*
X11335000Y-11385655D01*
X11335000Y-11355655D02*
X11305000Y-11385655D01*
X11375000Y-7390000D02*
X11405000Y-7420000D01*
X11405000Y-7390000D02*
X11375000Y-7420000D01*
X11375000Y-7490000D02*
X11405000Y-7520000D01*
X11405000Y-7490000D02*
X11375000Y-7520000D01*
X11375000Y-8385000D02*
X11405000Y-8415000D01*
X11405000Y-8385000D02*
X11375000Y-8415000D01*
X11375000Y-8485000D02*
X11405000Y-8515000D01*
X11405000Y-8485000D02*
X11375000Y-8515000D01*
X11505000Y-4555655D02*
X11535000Y-4585655D01*
X11535000Y-4555655D02*
X11505000Y-4585655D01*
X11505000Y-4755655D02*
X11535000Y-4785655D01*
X11535000Y-4755655D02*
X11505000Y-4785655D01*
X11505000Y-4955655D02*
X11535000Y-4985655D01*
X11535000Y-4955655D02*
X11505000Y-4985655D01*
X11505000Y-5155655D02*
X11535000Y-5185655D01*
X11535000Y-5155655D02*
X11505000Y-5185655D01*
X11505000Y-5555655D02*
X11535000Y-5585655D01*
X11535000Y-5555655D02*
X11505000Y-5585655D01*
X11505000Y-5755655D02*
X11535000Y-5785655D01*
X11535000Y-5755655D02*
X11505000Y-5785655D01*
X11505000Y-9955655D02*
X11535000Y-9985655D01*
X11535000Y-9955655D02*
X11505000Y-9985655D01*
X11505000Y-10155655D02*
X11535000Y-10185655D01*
X11535000Y-10155655D02*
X11505000Y-10185655D01*
X11505000Y-10355655D02*
X11535000Y-10385655D01*
X11535000Y-10355655D02*
X11505000Y-10385655D01*
X11505000Y-10555655D02*
X11535000Y-10585655D01*
X11535000Y-10555655D02*
X11505000Y-10585655D01*
X11505000Y-10755655D02*
X11535000Y-10785655D01*
X11535000Y-10755655D02*
X11505000Y-10785655D01*
X11505000Y-11555655D02*
X11535000Y-11585655D01*
X11535000Y-11555655D02*
X11505000Y-11585655D01*
X11505000Y-11755655D02*
X11535000Y-11785655D01*
X11535000Y-11755655D02*
X11505000Y-11785655D01*
X11505000Y-11955655D02*
X11535000Y-11985655D01*
X11535000Y-11955655D02*
X11505000Y-11985655D01*
X11505000Y-12155655D02*
X11535000Y-12185655D01*
X11535000Y-12155655D02*
X11505000Y-12185655D01*
X11685000Y-6940000D02*
X11715000Y-6970000D01*
X11715000Y-6940000D02*
X11685000Y-6970000D01*
X11705000Y-4955655D02*
X11735000Y-4985655D01*
X11735000Y-4955655D02*
X11705000Y-4985655D01*
X11705000Y-5355655D02*
X11735000Y-5385655D01*
X11735000Y-5355655D02*
X11705000Y-5385655D01*
X11705000Y-5555655D02*
X11735000Y-5585655D01*
X11735000Y-5555655D02*
X11705000Y-5585655D01*
X11705000Y-6355655D02*
X11735000Y-6385655D01*
X11735000Y-6355655D02*
X11705000Y-6385655D01*
X11705000Y-8955655D02*
X11735000Y-8985655D01*
X11735000Y-8955655D02*
X11705000Y-8985655D01*
X11705000Y-9955655D02*
X11735000Y-9985655D01*
X11735000Y-9955655D02*
X11705000Y-9985655D01*
X11705000Y-10155655D02*
X11735000Y-10185655D01*
X11735000Y-10155655D02*
X11705000Y-10185655D01*
X11705000Y-10355655D02*
X11735000Y-10385655D01*
X11735000Y-10355655D02*
X11705000Y-10385655D01*
X11705000Y-10555655D02*
X11735000Y-10585655D01*
X11735000Y-10555655D02*
X11705000Y-10585655D01*
X11705000Y-10755655D02*
X11735000Y-10785655D01*
X11735000Y-10755655D02*
X11705000Y-10785655D01*
X11705000Y-10955655D02*
X11735000Y-10985655D01*
X11735000Y-10955655D02*
X11705000Y-10985655D01*
X11705000Y-12155655D02*
X11735000Y-12185655D01*
X11735000Y-12155655D02*
X11705000Y-12185655D01*
X11735000Y-9300000D02*
X11765000Y-9330000D01*
X11765000Y-9300000D02*
X11735000Y-9330000D01*
X11905000Y-5955655D02*
X11935000Y-5985655D01*
X11935000Y-5955655D02*
X11905000Y-5985655D01*
X11905000Y-6955655D02*
X11935000Y-6985655D01*
X11935000Y-6955655D02*
X11905000Y-6985655D01*
X11905000Y-10355655D02*
X11935000Y-10385655D01*
X11935000Y-10355655D02*
X11905000Y-10385655D01*
X11905000Y-10555655D02*
X11935000Y-10585655D01*
X11935000Y-10555655D02*
X11905000Y-10585655D01*
X11905000Y-10755655D02*
X11935000Y-10785655D01*
X11935000Y-10755655D02*
X11905000Y-10785655D01*
X11905000Y-10955655D02*
X11935000Y-10985655D01*
X11935000Y-10955655D02*
X11905000Y-10985655D01*
X11905000Y-11155655D02*
X11935000Y-11185655D01*
X11935000Y-11155655D02*
X11905000Y-11185655D01*
X11905000Y-11355655D02*
X11935000Y-11385655D01*
X11935000Y-11355655D02*
X11905000Y-11385655D01*
X11905000Y-11555655D02*
X11935000Y-11585655D01*
X11935000Y-11555655D02*
X11905000Y-11585655D01*
X11905000Y-12155655D02*
X11935000Y-12185655D01*
X11935000Y-12155655D02*
X11905000Y-12185655D01*
X11960000Y-5280000D02*
X11990000Y-5310000D01*
X11990000Y-5280000D02*
X11960000Y-5310000D01*
X12055000Y-5275000D02*
X12085000Y-5305000D01*
X12085000Y-5275000D02*
X12055000Y-5305000D01*
X12105000Y-5755655D02*
X12135000Y-5785655D01*
X12135000Y-5755655D02*
X12105000Y-5785655D01*
X12105000Y-6555655D02*
X12135000Y-6585655D01*
X12135000Y-6555655D02*
X12105000Y-6585655D01*
X12105000Y-6755655D02*
X12135000Y-6785655D01*
X12135000Y-6755655D02*
X12105000Y-6785655D01*
X12105000Y-6955655D02*
X12135000Y-6985655D01*
X12135000Y-6955655D02*
X12105000Y-6985655D01*
X12105000Y-7155655D02*
X12135000Y-7185655D01*
X12135000Y-7155655D02*
X12105000Y-7185655D01*
X12105000Y-8155655D02*
X12135000Y-8185655D01*
X12135000Y-8155655D02*
X12105000Y-8185655D01*
X12105000Y-9755655D02*
X12135000Y-9785655D01*
X12135000Y-9755655D02*
X12105000Y-9785655D01*
X12105000Y-9955655D02*
X12135000Y-9985655D01*
X12135000Y-9955655D02*
X12105000Y-9985655D01*
X12105000Y-10155655D02*
X12135000Y-10185655D01*
X12135000Y-10155655D02*
X12105000Y-10185655D01*
X12105000Y-10355655D02*
X12135000Y-10385655D01*
X12135000Y-10355655D02*
X12105000Y-10385655D01*
X12105000Y-10555655D02*
X12135000Y-10585655D01*
X12135000Y-10555655D02*
X12105000Y-10585655D01*
X12105000Y-10755655D02*
X12135000Y-10785655D01*
X12135000Y-10755655D02*
X12105000Y-10785655D01*
X12105000Y-10955655D02*
X12135000Y-10985655D01*
X12135000Y-10955655D02*
X12105000Y-10985655D01*
X12105000Y-11155655D02*
X12135000Y-11185655D01*
X12135000Y-11155655D02*
X12105000Y-11185655D01*
X12105000Y-11555655D02*
X12135000Y-11585655D01*
X12135000Y-11555655D02*
X12105000Y-11585655D01*
X12105000Y-12155655D02*
X12135000Y-12185655D01*
X12135000Y-12155655D02*
X12105000Y-12185655D01*
X12190000Y-5195000D02*
X12220000Y-5225000D01*
X12220000Y-5195000D02*
X12190000Y-5225000D01*
X12200000Y-9315000D02*
X12230000Y-9345000D01*
X12230000Y-9315000D02*
X12200000Y-9345000D01*
X12305000Y-5555655D02*
X12335000Y-5585655D01*
X12335000Y-5555655D02*
X12305000Y-5585655D01*
X12305000Y-5755655D02*
X12335000Y-5785655D01*
X12335000Y-5755655D02*
X12305000Y-5785655D01*
X12305000Y-6155655D02*
X12335000Y-6185655D01*
X12335000Y-6155655D02*
X12305000Y-6185655D01*
X12305000Y-6355655D02*
X12335000Y-6385655D01*
X12335000Y-6355655D02*
X12305000Y-6385655D01*
X12305000Y-6755655D02*
X12335000Y-6785655D01*
X12335000Y-6755655D02*
X12305000Y-6785655D01*
X12305000Y-6955655D02*
X12335000Y-6985655D01*
X12335000Y-6955655D02*
X12305000Y-6985655D01*
X12305000Y-7155655D02*
X12335000Y-7185655D01*
X12335000Y-7155655D02*
X12305000Y-7185655D01*
X12305000Y-8155655D02*
X12335000Y-8185655D01*
X12335000Y-8155655D02*
X12305000Y-8185655D01*
X12305000Y-9555655D02*
X12335000Y-9585655D01*
X12335000Y-9555655D02*
X12305000Y-9585655D01*
X12305000Y-10555655D02*
X12335000Y-10585655D01*
X12335000Y-10555655D02*
X12305000Y-10585655D01*
X12305000Y-10755655D02*
X12335000Y-10785655D01*
X12335000Y-10755655D02*
X12305000Y-10785655D01*
X12305000Y-11355655D02*
X12335000Y-11385655D01*
X12335000Y-11355655D02*
X12305000Y-11385655D01*
X12305000Y-11555655D02*
X12335000Y-11585655D01*
X12335000Y-11555655D02*
X12305000Y-11585655D01*
X12305000Y-12155655D02*
X12335000Y-12185655D01*
X12335000Y-12155655D02*
X12305000Y-12185655D01*
X12370000Y-10935000D02*
X12400000Y-10965000D01*
X12400000Y-10935000D02*
X12370000Y-10965000D01*
X12370000Y-11025000D02*
X12400000Y-11055000D01*
X12400000Y-11025000D02*
X12370000Y-11055000D01*
X12370000Y-11140000D02*
X12400000Y-11170000D01*
X12400000Y-11140000D02*
X12370000Y-11170000D01*
X12402962Y-11223747D02*
X12432962Y-11253747D01*
X12432962Y-11223747D02*
X12402962Y-11253747D01*
X12500000Y-6905000D02*
X12530000Y-6935000D01*
X12530000Y-6905000D02*
X12500000Y-6935000D01*
X12505000Y-4955655D02*
X12535000Y-4985655D01*
X12535000Y-4955655D02*
X12505000Y-4985655D01*
X12505000Y-5155655D02*
X12535000Y-5185655D01*
X12535000Y-5155655D02*
X12505000Y-5185655D01*
X12505000Y-5755655D02*
X12535000Y-5785655D01*
X12535000Y-5755655D02*
X12505000Y-5785655D01*
X12505000Y-6155655D02*
X12535000Y-6185655D01*
X12535000Y-6155655D02*
X12505000Y-6185655D01*
X12505000Y-6355655D02*
X12535000Y-6385655D01*
X12535000Y-6355655D02*
X12505000Y-6385655D01*
X12505000Y-6555655D02*
X12535000Y-6585655D01*
X12535000Y-6555655D02*
X12505000Y-6585655D01*
X12505000Y-7355655D02*
X12535000Y-7385655D01*
X12535000Y-7355655D02*
X12505000Y-7385655D01*
X12505000Y-7555655D02*
X12535000Y-7585655D01*
X12535000Y-7555655D02*
X12505000Y-7585655D01*
X12505000Y-7755655D02*
X12535000Y-7785655D01*
X12535000Y-7755655D02*
X12505000Y-7785655D01*
X12505000Y-7955655D02*
X12535000Y-7985655D01*
X12535000Y-7955655D02*
X12505000Y-7985655D01*
X12505000Y-8155655D02*
X12535000Y-8185655D01*
X12535000Y-8155655D02*
X12505000Y-8185655D01*
X12505000Y-8555655D02*
X12535000Y-8585655D01*
X12535000Y-8555655D02*
X12505000Y-8585655D01*
X12505000Y-8755655D02*
X12535000Y-8785655D01*
X12535000Y-8755655D02*
X12505000Y-8785655D01*
X12505000Y-10755655D02*
X12535000Y-10785655D01*
X12535000Y-10755655D02*
X12505000Y-10785655D01*
X12505000Y-10955655D02*
X12535000Y-10985655D01*
X12535000Y-10955655D02*
X12505000Y-10985655D01*
X12505000Y-11355655D02*
X12535000Y-11385655D01*
X12535000Y-11355655D02*
X12505000Y-11385655D01*
X12505000Y-11555655D02*
X12535000Y-11585655D01*
X12535000Y-11555655D02*
X12505000Y-11585655D01*
X12505000Y-11955655D02*
X12535000Y-11985655D01*
X12535000Y-11955655D02*
X12505000Y-11985655D01*
X12505000Y-12155655D02*
X12535000Y-12185655D01*
X12535000Y-12155655D02*
X12505000Y-12185655D01*
X12545000Y-9245000D02*
X12575000Y-9275000D01*
X12575000Y-9245000D02*
X12545000Y-9275000D01*
X12575000Y-10055000D02*
X12605000Y-10085000D01*
X12605000Y-10055000D02*
X12575000Y-10085000D01*
X12632500Y-6035000D02*
X12662500Y-6065000D01*
X12662500Y-6035000D02*
X12632500Y-6065000D01*
X12705000Y-4555655D02*
X12735000Y-4585655D01*
X12735000Y-4555655D02*
X12705000Y-4585655D01*
X12705000Y-5355655D02*
X12735000Y-5385655D01*
X12735000Y-5355655D02*
X12705000Y-5385655D01*
X12705000Y-6355655D02*
X12735000Y-6385655D01*
X12735000Y-6355655D02*
X12705000Y-6385655D01*
X12705000Y-6555655D02*
X12735000Y-6585655D01*
X12735000Y-6555655D02*
X12705000Y-6585655D01*
X12705000Y-8555655D02*
X12735000Y-8585655D01*
X12735000Y-8555655D02*
X12705000Y-8585655D01*
X12705000Y-8955655D02*
X12735000Y-8985655D01*
X12735000Y-8955655D02*
X12705000Y-8985655D01*
X12705000Y-9155655D02*
X12735000Y-9185655D01*
X12735000Y-9155655D02*
X12705000Y-9185655D01*
X12705000Y-9955655D02*
X12735000Y-9985655D01*
X12735000Y-9955655D02*
X12705000Y-9985655D01*
X12705000Y-10755655D02*
X12735000Y-10785655D01*
X12735000Y-10755655D02*
X12705000Y-10785655D01*
X12705000Y-10955655D02*
X12735000Y-10985655D01*
X12735000Y-10955655D02*
X12705000Y-10985655D01*
X12705000Y-11355655D02*
X12735000Y-11385655D01*
X12735000Y-11355655D02*
X12705000Y-11385655D01*
X12705000Y-11555655D02*
X12735000Y-11585655D01*
X12735000Y-11555655D02*
X12705000Y-11585655D01*
X12705000Y-11955655D02*
X12735000Y-11985655D01*
X12735000Y-11955655D02*
X12705000Y-11985655D01*
X12705000Y-12155655D02*
X12735000Y-12185655D01*
X12735000Y-12155655D02*
X12705000Y-12185655D01*
X12860000Y-6795000D02*
X12890000Y-6825000D01*
X12890000Y-6795000D02*
X12860000Y-6825000D01*
X12860000Y-7265000D02*
X12890000Y-7295000D01*
X12890000Y-7265000D02*
X12860000Y-7295000D01*
X12905000Y-6355655D02*
X12935000Y-6385655D01*
X12935000Y-6355655D02*
X12905000Y-6385655D01*
X12905000Y-6555655D02*
X12935000Y-6585655D01*
X12935000Y-6555655D02*
X12905000Y-6585655D01*
X12905000Y-7555655D02*
X12935000Y-7585655D01*
X12935000Y-7555655D02*
X12905000Y-7585655D01*
X12905000Y-7755655D02*
X12935000Y-7785655D01*
X12935000Y-7755655D02*
X12905000Y-7785655D01*
X12905000Y-7955655D02*
X12935000Y-7985655D01*
X12935000Y-7955655D02*
X12905000Y-7985655D01*
X12905000Y-8155655D02*
X12935000Y-8185655D01*
X12935000Y-8155655D02*
X12905000Y-8185655D01*
X12905000Y-8755655D02*
X12935000Y-8785655D01*
X12935000Y-8755655D02*
X12905000Y-8785655D01*
X12905000Y-8955655D02*
X12935000Y-8985655D01*
X12935000Y-8955655D02*
X12905000Y-8985655D01*
X12905000Y-9155655D02*
X12935000Y-9185655D01*
X12935000Y-9155655D02*
X12905000Y-9185655D01*
X12905000Y-10755655D02*
X12935000Y-10785655D01*
X12935000Y-10755655D02*
X12905000Y-10785655D01*
X12905000Y-10955655D02*
X12935000Y-10985655D01*
X12935000Y-10955655D02*
X12905000Y-10985655D01*
X12905000Y-11355655D02*
X12935000Y-11385655D01*
X12935000Y-11355655D02*
X12905000Y-11385655D01*
X12905000Y-11555655D02*
X12935000Y-11585655D01*
X12935000Y-11555655D02*
X12905000Y-11585655D01*
X12905000Y-12155655D02*
X12935000Y-12185655D01*
X12935000Y-12155655D02*
X12905000Y-12185655D01*
X12910000Y-10097500D02*
X12940000Y-10127500D01*
X12940000Y-10097500D02*
X12910000Y-10127500D01*
X12927500Y-9855000D02*
X12957500Y-9885000D01*
X12957500Y-9855000D02*
X12927500Y-9885000D01*
X13070000Y-8445000D02*
X13100000Y-8475000D01*
X13100000Y-8445000D02*
X13070000Y-8475000D01*
X13090000Y-9415000D02*
X13120000Y-9445000D01*
X13120000Y-9415000D02*
X13090000Y-9445000D01*
X13091176Y-7764779D02*
X13121176Y-7794779D01*
X13121176Y-7764779D02*
X13091176Y-7794779D01*
X13092617Y-7847937D02*
X13122617Y-7877937D01*
X13122617Y-7847937D02*
X13092617Y-7877937D01*
X13094996Y-7930568D02*
X13124996Y-7960568D01*
X13124996Y-7930568D02*
X13094996Y-7960568D01*
X13095000Y-8094000D02*
X13125000Y-8124000D01*
X13125000Y-8094000D02*
X13095000Y-8124000D01*
X13095000Y-8177000D02*
X13125000Y-8207000D01*
X13125000Y-8177000D02*
X13095000Y-8207000D01*
X13095001Y-8013568D02*
X13125001Y-8043568D01*
X13125001Y-8013568D02*
X13095001Y-8043568D01*
X13105000Y-6555655D02*
X13135000Y-6585655D01*
X13135000Y-6555655D02*
X13105000Y-6585655D01*
X13105000Y-7555655D02*
X13135000Y-7585655D01*
X13135000Y-7555655D02*
X13105000Y-7585655D01*
X13105000Y-8755655D02*
X13135000Y-8785655D01*
X13135000Y-8755655D02*
X13105000Y-8785655D01*
X13105000Y-8955655D02*
X13135000Y-8985655D01*
X13135000Y-8955655D02*
X13105000Y-8985655D01*
X13105000Y-9155655D02*
X13135000Y-9185655D01*
X13135000Y-9155655D02*
X13105000Y-9185655D01*
X13105000Y-9555655D02*
X13135000Y-9585655D01*
X13135000Y-9555655D02*
X13105000Y-9585655D01*
X13105000Y-10355655D02*
X13135000Y-10385655D01*
X13135000Y-10355655D02*
X13105000Y-10385655D01*
X13105000Y-10755655D02*
X13135000Y-10785655D01*
X13135000Y-10755655D02*
X13105000Y-10785655D01*
X13105000Y-10955655D02*
X13135000Y-10985655D01*
X13135000Y-10955655D02*
X13105000Y-10985655D01*
X13105000Y-11355655D02*
X13135000Y-11385655D01*
X13135000Y-11355655D02*
X13105000Y-11385655D01*
X13105000Y-11555655D02*
X13135000Y-11585655D01*
X13135000Y-11555655D02*
X13105000Y-11585655D01*
X13105000Y-12155655D02*
X13135000Y-12185655D01*
X13135000Y-12155655D02*
X13105000Y-12185655D01*
X13107500Y-10095000D02*
X13137500Y-10125000D01*
X13137500Y-10095000D02*
X13107500Y-10125000D01*
X13138999Y-8243915D02*
X13168999Y-8273915D01*
X13168999Y-8243915D02*
X13138999Y-8273915D01*
X13174085Y-7768661D02*
X13204085Y-7798661D01*
X13204085Y-7768661D02*
X13174085Y-7798661D01*
X13195000Y-6270000D02*
X13225000Y-6300000D01*
X13225000Y-6270000D02*
X13195000Y-6300000D01*
X13220000Y-6905000D02*
X13250000Y-6935000D01*
X13250000Y-6905000D02*
X13220000Y-6935000D01*
X13222000Y-8244000D02*
X13252000Y-8274000D01*
X13252000Y-8244000D02*
X13222000Y-8274000D01*
X13250962Y-11060962D02*
X13280962Y-11090962D01*
X13280962Y-11060962D02*
X13250962Y-11090962D01*
X13257046Y-7771235D02*
X13287046Y-7801235D01*
X13287046Y-7771235D02*
X13257046Y-7801235D01*
X13305000Y-7155655D02*
X13335000Y-7185655D01*
X13335000Y-7155655D02*
X13305000Y-7185655D01*
X13305000Y-7355655D02*
X13335000Y-7385655D01*
X13335000Y-7355655D02*
X13305000Y-7385655D01*
X13305000Y-7555655D02*
X13335000Y-7585655D01*
X13335000Y-7555655D02*
X13305000Y-7585655D01*
X13305000Y-8244000D02*
X13335000Y-8274000D01*
X13335000Y-8244000D02*
X13305000Y-8274000D01*
X13305000Y-8555655D02*
X13335000Y-8585655D01*
X13335000Y-8555655D02*
X13305000Y-8585655D01*
X13305000Y-8755655D02*
X13335000Y-8785655D01*
X13335000Y-8755655D02*
X13305000Y-8785655D01*
X13305000Y-8955655D02*
X13335000Y-8985655D01*
X13335000Y-8955655D02*
X13305000Y-8985655D01*
X13305000Y-9155655D02*
X13335000Y-9185655D01*
X13335000Y-9155655D02*
X13305000Y-9185655D01*
X13305000Y-9555655D02*
X13335000Y-9585655D01*
X13335000Y-9555655D02*
X13305000Y-9585655D01*
X13305000Y-11355655D02*
X13335000Y-11385655D01*
X13335000Y-11355655D02*
X13305000Y-11385655D01*
X13305000Y-11555655D02*
X13335000Y-11585655D01*
X13335000Y-11555655D02*
X13305000Y-11585655D01*
X13305000Y-12155655D02*
X13335000Y-12185655D01*
X13335000Y-12155655D02*
X13305000Y-12185655D01*
X13320000Y-6432500D02*
X13350000Y-6462500D01*
X13350000Y-6432500D02*
X13320000Y-6462500D01*
X13340000Y-7774000D02*
X13370000Y-7804000D01*
X13370000Y-7774000D02*
X13340000Y-7804000D01*
X13355000Y-10957500D02*
X13385000Y-10987500D01*
X13385000Y-10957500D02*
X13355000Y-10987500D01*
X13385000Y-6011076D02*
X13415000Y-6041076D01*
X13415000Y-6011076D02*
X13385000Y-6041076D01*
X13391372Y-8242000D02*
X13421372Y-8272000D01*
X13421372Y-8242000D02*
X13391372Y-8272000D01*
X13420000Y-5850000D02*
X13450000Y-5880000D01*
X13450000Y-5850000D02*
X13420000Y-5880000D01*
X13420000Y-7774000D02*
X13450000Y-7804000D01*
X13450000Y-7774000D02*
X13420000Y-7804000D01*
X13467500Y-6592500D02*
X13497500Y-6622500D01*
X13497500Y-6592500D02*
X13467500Y-6622500D01*
X13469688Y-8221021D02*
X13499688Y-8251021D01*
X13499688Y-8221021D02*
X13469688Y-8251021D01*
X13479874Y-5782805D02*
X13509874Y-5812805D01*
X13509874Y-5782805D02*
X13479874Y-5812805D01*
X13505000Y-4555655D02*
X13535000Y-4585655D01*
X13535000Y-4555655D02*
X13505000Y-4585655D01*
X13505000Y-4755655D02*
X13535000Y-4785655D01*
X13535000Y-4755655D02*
X13505000Y-4785655D01*
X13505000Y-4955655D02*
X13535000Y-4985655D01*
X13535000Y-4955655D02*
X13505000Y-4985655D01*
X13505000Y-6955655D02*
X13535000Y-6985655D01*
X13535000Y-6955655D02*
X13505000Y-6985655D01*
X13505000Y-7355655D02*
X13535000Y-7385655D01*
X13535000Y-7355655D02*
X13505000Y-7385655D01*
X13505000Y-7555655D02*
X13535000Y-7585655D01*
X13535000Y-7555655D02*
X13505000Y-7585655D01*
X13505000Y-9955655D02*
X13535000Y-9985655D01*
X13535000Y-9955655D02*
X13505000Y-9985655D01*
X13505000Y-10155655D02*
X13535000Y-10185655D01*
X13535000Y-10155655D02*
X13505000Y-10185655D01*
X13505000Y-10555655D02*
X13535000Y-10585655D01*
X13535000Y-10555655D02*
X13505000Y-10585655D01*
X13505000Y-11155655D02*
X13535000Y-11185655D01*
X13535000Y-11155655D02*
X13505000Y-11185655D01*
X13505000Y-11355655D02*
X13535000Y-11385655D01*
X13535000Y-11355655D02*
X13505000Y-11385655D01*
X13505000Y-11555655D02*
X13535000Y-11585655D01*
X13535000Y-11555655D02*
X13505000Y-11585655D01*
X13505000Y-12155655D02*
X13535000Y-12185655D01*
X13535000Y-12155655D02*
X13505000Y-12185655D01*
X13508036Y-7773957D02*
X13538036Y-7803957D01*
X13538036Y-7773957D02*
X13508036Y-7803957D01*
X13545000Y-5845000D02*
X13575000Y-5875000D01*
X13575000Y-5845000D02*
X13545000Y-5875000D01*
X13547868Y-8238900D02*
X13577868Y-8268900D01*
X13577868Y-8238900D02*
X13547868Y-8268900D01*
X13580000Y-10732500D02*
X13610000Y-10762500D01*
X13610000Y-10732500D02*
X13580000Y-10762500D01*
X13591036Y-7774252D02*
X13621036Y-7804252D01*
X13621036Y-7774252D02*
X13591036Y-7804252D01*
X13615000Y-6710000D02*
X13645000Y-6740000D01*
X13645000Y-6710000D02*
X13615000Y-6740000D01*
X13651538Y-10666538D02*
X13681538Y-10696538D01*
X13681538Y-10666538D02*
X13651538Y-10696538D01*
X13673869Y-7774000D02*
X13703869Y-7804000D01*
X13703869Y-7774000D02*
X13673869Y-7804000D01*
X13705000Y-4555655D02*
X13735000Y-4585655D01*
X13735000Y-4555655D02*
X13705000Y-4585655D01*
X13705000Y-4755655D02*
X13735000Y-4785655D01*
X13735000Y-4755655D02*
X13705000Y-4785655D01*
X13705000Y-4955655D02*
X13735000Y-4985655D01*
X13735000Y-4955655D02*
X13705000Y-4985655D01*
X13705000Y-7355655D02*
X13735000Y-7385655D01*
X13735000Y-7355655D02*
X13705000Y-7385655D01*
X13705000Y-7555655D02*
X13735000Y-7585655D01*
X13735000Y-7555655D02*
X13705000Y-7585655D01*
X13705000Y-10390000D02*
X13735000Y-10420000D01*
X13735000Y-10390000D02*
X13705000Y-10420000D01*
X13705000Y-10955655D02*
X13735000Y-10985655D01*
X13735000Y-10955655D02*
X13705000Y-10985655D01*
X13705000Y-11155655D02*
X13735000Y-11185655D01*
X13735000Y-11155655D02*
X13705000Y-11185655D01*
X13705000Y-11955655D02*
X13735000Y-11985655D01*
X13735000Y-11955655D02*
X13705000Y-11985655D01*
X13705000Y-12155655D02*
X13735000Y-12185655D01*
X13735000Y-12155655D02*
X13705000Y-12185655D01*
X13725285Y-8509494D02*
X13755285Y-8539494D01*
X13755285Y-8509494D02*
X13725285Y-8539494D01*
X13730000Y-6847500D02*
X13760000Y-6877500D01*
X13760000Y-6847500D02*
X13730000Y-6877500D01*
X13754624Y-7774000D02*
X13784624Y-7804000D01*
X13784624Y-7774000D02*
X13754624Y-7804000D01*
X13772500Y-10310000D02*
X13802500Y-10340000D01*
X13802500Y-10310000D02*
X13772500Y-10340000D01*
X13775000Y-5537500D02*
X13805000Y-5567500D01*
X13805000Y-5537500D02*
X13775000Y-5567500D01*
X13810217Y-7832709D02*
X13840217Y-7862709D01*
X13840217Y-7832709D02*
X13810217Y-7862709D01*
X13828000Y-11311000D02*
X13858000Y-11341000D01*
X13858000Y-11311000D02*
X13828000Y-11341000D01*
X13840000Y-10390000D02*
X13870000Y-10420000D01*
X13870000Y-10390000D02*
X13840000Y-10420000D01*
X13859336Y-7762625D02*
X13889336Y-7792625D01*
X13889336Y-7762625D02*
X13859336Y-7792625D01*
X13890000Y-5395000D02*
X13920000Y-5425000D01*
X13920000Y-5395000D02*
X13890000Y-5425000D01*
X13905000Y-4555655D02*
X13935000Y-4585655D01*
X13935000Y-4555655D02*
X13905000Y-4585655D01*
X13905000Y-4755655D02*
X13935000Y-4785655D01*
X13935000Y-4755655D02*
X13905000Y-4785655D01*
X13905000Y-4955655D02*
X13935000Y-4985655D01*
X13935000Y-4955655D02*
X13905000Y-4985655D01*
X13905000Y-5155655D02*
X13935000Y-5185655D01*
X13935000Y-5155655D02*
X13905000Y-5185655D01*
X13905000Y-6155655D02*
X13935000Y-6185655D01*
X13935000Y-6155655D02*
X13905000Y-6185655D01*
X13905000Y-11555655D02*
X13935000Y-11585655D01*
X13935000Y-11555655D02*
X13905000Y-11585655D01*
X13905000Y-11955655D02*
X13935000Y-11985655D01*
X13935000Y-11955655D02*
X13905000Y-11985655D01*
X13905000Y-12155655D02*
X13935000Y-12185655D01*
X13935000Y-12155655D02*
X13905000Y-12185655D01*
X13925000Y-7045000D02*
X13955000Y-7075000D01*
X13955000Y-7045000D02*
X13925000Y-7075000D01*
X13960000Y-10495000D02*
X13990000Y-10525000D01*
X13990000Y-10495000D02*
X13960000Y-10525000D01*
X13960000Y-11385000D02*
X13990000Y-11415000D01*
X13990000Y-11385000D02*
X13960000Y-11415000D01*
X13990000Y-5785000D02*
X14020000Y-5815000D01*
X14020000Y-5785000D02*
X13990000Y-5815000D01*
X14045882Y-10521912D02*
X14075882Y-10551912D01*
X14075882Y-10521912D02*
X14045882Y-10551912D01*
X14100000Y-10450000D02*
X14130000Y-10480000D01*
X14130000Y-10450000D02*
X14100000Y-10480000D01*
X14105000Y-4555655D02*
X14135000Y-4585655D01*
X14135000Y-4555655D02*
X14105000Y-4585655D01*
X14105000Y-4755655D02*
X14135000Y-4785655D01*
X14135000Y-4755655D02*
X14105000Y-4785655D01*
X14105000Y-4955655D02*
X14135000Y-4985655D01*
X14135000Y-4955655D02*
X14105000Y-4985655D01*
X14105000Y-5155655D02*
X14135000Y-5185655D01*
X14135000Y-5155655D02*
X14105000Y-5185655D01*
X14105000Y-5355655D02*
X14135000Y-5385655D01*
X14135000Y-5355655D02*
X14105000Y-5385655D01*
X14105000Y-5555655D02*
X14135000Y-5585655D01*
X14135000Y-5555655D02*
X14105000Y-5585655D01*
X14105000Y-6155655D02*
X14135000Y-6185655D01*
X14135000Y-6155655D02*
X14105000Y-6185655D01*
X14105000Y-7355655D02*
X14135000Y-7385655D01*
X14135000Y-7355655D02*
X14105000Y-7385655D01*
X14105000Y-9555655D02*
X14135000Y-9585655D01*
X14135000Y-9555655D02*
X14105000Y-9585655D01*
X14105000Y-9755655D02*
X14135000Y-9785655D01*
X14135000Y-9755655D02*
X14105000Y-9785655D01*
X14105000Y-9955655D02*
X14135000Y-9985655D01*
X14135000Y-9955655D02*
X14105000Y-9985655D01*
X14105000Y-10155655D02*
X14135000Y-10185655D01*
X14135000Y-10155655D02*
X14105000Y-10185655D01*
X14105000Y-10955655D02*
X14135000Y-10985655D01*
X14135000Y-10955655D02*
X14105000Y-10985655D01*
X14105000Y-11155655D02*
X14135000Y-11185655D01*
X14135000Y-11155655D02*
X14105000Y-11185655D01*
X14105000Y-11355655D02*
X14135000Y-11385655D01*
X14135000Y-11355655D02*
X14105000Y-11385655D01*
X14105000Y-11555655D02*
X14135000Y-11585655D01*
X14135000Y-11555655D02*
X14105000Y-11585655D01*
X14105000Y-11955655D02*
X14135000Y-11985655D01*
X14135000Y-11955655D02*
X14105000Y-11985655D01*
X14105000Y-12155655D02*
X14135000Y-12185655D01*
X14135000Y-12155655D02*
X14105000Y-12185655D01*
X14115000Y-6380000D02*
X14145000Y-6410000D01*
X14145000Y-6380000D02*
X14115000Y-6410000D01*
X14120000Y-5920000D02*
X14150000Y-5950000D01*
X14150000Y-5920000D02*
X14120000Y-5950000D01*
X14192152Y-7925583D02*
X14222152Y-7955583D01*
X14222152Y-7925583D02*
X14192152Y-7955583D01*
X14205000Y-9245000D02*
X14235000Y-9275000D01*
X14235000Y-9245000D02*
X14205000Y-9275000D01*
X14205000Y-9415000D02*
X14235000Y-9445000D01*
X14235000Y-9415000D02*
X14205000Y-9445000D01*
X14210000Y-8180000D02*
X14240000Y-8210000D01*
X14240000Y-8180000D02*
X14210000Y-8210000D01*
X14210000Y-8290000D02*
X14240000Y-8320000D01*
X14240000Y-8290000D02*
X14210000Y-8320000D01*
X14210000Y-8400000D02*
X14240000Y-8430000D01*
X14240000Y-8400000D02*
X14210000Y-8430000D01*
X14210000Y-8615000D02*
X14240000Y-8645000D01*
X14240000Y-8615000D02*
X14210000Y-8645000D01*
X14220000Y-7840000D02*
X14250000Y-7870000D01*
X14250000Y-7840000D02*
X14220000Y-7870000D01*
X14220000Y-8725000D02*
X14250000Y-8755000D01*
X14250000Y-8725000D02*
X14220000Y-8755000D01*
X14240000Y-6895000D02*
X14270000Y-6925000D01*
X14270000Y-6895000D02*
X14240000Y-6925000D01*
X14249718Y-4618000D02*
X14279718Y-4648000D01*
X14279718Y-4618000D02*
X14249718Y-4648000D01*
X14249983Y-4700988D02*
X14279983Y-4730988D01*
X14279983Y-4700988D02*
X14249983Y-4730988D01*
X14250000Y-4535000D02*
X14280000Y-4565000D01*
X14280000Y-4535000D02*
X14250000Y-4565000D01*
X14250000Y-4865000D02*
X14280000Y-4895000D01*
X14280000Y-4865000D02*
X14250000Y-4895000D01*
X14250000Y-4948000D02*
X14280000Y-4978000D01*
X14280000Y-4948000D02*
X14250000Y-4978000D01*
X14250000Y-5031001D02*
X14280000Y-5061001D01*
X14280000Y-5031001D02*
X14250000Y-5061001D01*
X14250000Y-5114001D02*
X14280000Y-5144001D01*
X14280000Y-5114001D02*
X14250000Y-5144001D01*
X14250000Y-5197001D02*
X14280000Y-5227001D01*
X14280000Y-5197001D02*
X14250000Y-5227001D01*
X14250007Y-4783989D02*
X14280007Y-4813989D01*
X14280007Y-4783989D02*
X14250007Y-4813989D01*
X14300000Y-7660000D02*
X14330000Y-7690000D01*
X14330000Y-7660000D02*
X14300000Y-7690000D01*
X14305000Y-6155655D02*
X14335000Y-6185655D01*
X14335000Y-6155655D02*
X14305000Y-6185655D01*
X14305000Y-6555655D02*
X14335000Y-6585655D01*
X14335000Y-6555655D02*
X14305000Y-6585655D01*
X14305000Y-9555655D02*
X14335000Y-9585655D01*
X14335000Y-9555655D02*
X14305000Y-9585655D01*
X14305000Y-9955655D02*
X14335000Y-9985655D01*
X14335000Y-9955655D02*
X14305000Y-9985655D01*
X14305000Y-10155655D02*
X14335000Y-10185655D01*
X14335000Y-10155655D02*
X14305000Y-10185655D01*
X14305000Y-10355655D02*
X14335000Y-10385655D01*
X14335000Y-10355655D02*
X14305000Y-10385655D01*
X14305000Y-10955655D02*
X14335000Y-10985655D01*
X14335000Y-10955655D02*
X14305000Y-10985655D01*
X14305000Y-11155655D02*
X14335000Y-11185655D01*
X14335000Y-11155655D02*
X14305000Y-11185655D01*
X14305000Y-11355655D02*
X14335000Y-11385655D01*
X14335000Y-11355655D02*
X14305000Y-11385655D01*
X14305000Y-11555655D02*
X14335000Y-11585655D01*
X14335000Y-11555655D02*
X14305000Y-11585655D01*
X14305000Y-12155655D02*
X14335000Y-12185655D01*
X14335000Y-12155655D02*
X14305000Y-12185655D01*
X14320682Y-4491490D02*
X14350682Y-4521490D01*
X14350682Y-4491490D02*
X14320682Y-4521490D01*
X14325000Y-8090000D02*
X14355000Y-8120000D01*
X14355000Y-8090000D02*
X14325000Y-8120000D01*
X14325000Y-8490000D02*
X14355000Y-8520000D01*
X14355000Y-8490000D02*
X14325000Y-8520000D01*
X14325000Y-8765000D02*
X14355000Y-8795000D01*
X14355000Y-8765000D02*
X14325000Y-8795000D01*
X14332934Y-5200317D02*
X14362934Y-5230317D01*
X14362934Y-5200317D02*
X14332934Y-5230317D01*
X14400000Y-4505000D02*
X14430000Y-4535000D01*
X14430000Y-4505000D02*
X14400000Y-4535000D01*
X14415933Y-5199976D02*
X14445933Y-5229976D01*
X14445933Y-5199976D02*
X14415933Y-5229976D01*
X14425000Y-10475000D02*
X14455000Y-10505000D01*
X14455000Y-10475000D02*
X14425000Y-10505000D01*
X14475000Y-7575000D02*
X14505000Y-7605000D01*
X14505000Y-7575000D02*
X14475000Y-7605000D01*
X14480000Y-4505000D02*
X14510000Y-4535000D01*
X14510000Y-4505000D02*
X14480000Y-4535000D01*
X14498934Y-5200003D02*
X14528934Y-5230003D01*
X14528934Y-5200003D02*
X14498934Y-5230003D01*
X14505000Y-6155655D02*
X14535000Y-6185655D01*
X14535000Y-6155655D02*
X14505000Y-6185655D01*
X14505000Y-11155655D02*
X14535000Y-11185655D01*
X14535000Y-11155655D02*
X14505000Y-11185655D01*
X14505000Y-11355655D02*
X14535000Y-11385655D01*
X14535000Y-11355655D02*
X14505000Y-11385655D01*
X14505000Y-11555655D02*
X14535000Y-11585655D01*
X14535000Y-11555655D02*
X14505000Y-11585655D01*
X14505000Y-12155655D02*
X14535000Y-12185655D01*
X14535000Y-12155655D02*
X14505000Y-12185655D01*
X14515000Y-10540000D02*
X14545000Y-10570000D01*
X14545000Y-10540000D02*
X14515000Y-10570000D01*
X14535000Y-10080000D02*
X14565000Y-10110000D01*
X14565000Y-10080000D02*
X14535000Y-10110000D01*
X14543750Y-9990426D02*
X14573750Y-10020426D01*
X14573750Y-9990426D02*
X14543750Y-10020426D01*
X14544900Y-7185000D02*
X14574900Y-7215000D01*
X14574900Y-7185000D02*
X14544900Y-7215000D01*
X14555000Y-9320000D02*
X14585000Y-9350000D01*
X14585000Y-9320000D02*
X14555000Y-9350000D01*
X14561204Y-5145126D02*
X14591204Y-5175126D01*
X14591204Y-5145126D02*
X14561204Y-5175126D01*
X14562000Y-4505000D02*
X14592000Y-4535000D01*
X14592000Y-4505000D02*
X14562000Y-4535000D01*
X14614760Y-8772859D02*
X14644760Y-8802859D01*
X14644760Y-8772859D02*
X14614760Y-8802859D01*
X14627910Y-5099959D02*
X14657910Y-5129959D01*
X14657910Y-5099959D02*
X14627910Y-5129959D01*
X14645000Y-4505000D02*
X14675000Y-4535000D01*
X14675000Y-4505000D02*
X14645000Y-4535000D01*
X14645000Y-10472500D02*
X14675000Y-10502500D01*
X14675000Y-10472500D02*
X14645000Y-10502500D01*
X14646250Y-7221250D02*
X14676250Y-7251250D01*
X14676250Y-7221250D02*
X14646250Y-7251250D01*
X14666824Y-7122935D02*
X14696824Y-7152935D01*
X14696824Y-7122935D02*
X14666824Y-7152935D01*
X14675000Y-7575000D02*
X14705000Y-7605000D01*
X14705000Y-7575000D02*
X14675000Y-7605000D01*
X14675000Y-8595000D02*
X14705000Y-8625000D01*
X14705000Y-8595000D02*
X14675000Y-8625000D01*
X14675000Y-10865000D02*
X14705000Y-10895000D01*
X14705000Y-10865000D02*
X14675000Y-10895000D01*
X14695000Y-10643959D02*
X14725000Y-10673959D01*
X14725000Y-10643959D02*
X14695000Y-10673959D01*
X14705000Y-6155655D02*
X14735000Y-6185655D01*
X14735000Y-6155655D02*
X14705000Y-6185655D01*
X14705000Y-7755655D02*
X14735000Y-7785655D01*
X14735000Y-7755655D02*
X14705000Y-7785655D01*
X14705000Y-8355655D02*
X14735000Y-8385655D01*
X14735000Y-8355655D02*
X14705000Y-8385655D01*
X14705000Y-11355655D02*
X14735000Y-11385655D01*
X14735000Y-11355655D02*
X14705000Y-11385655D01*
X14705000Y-11555655D02*
X14735000Y-11585655D01*
X14735000Y-11555655D02*
X14705000Y-11585655D01*
X14705000Y-11955655D02*
X14735000Y-11985655D01*
X14735000Y-11955655D02*
X14705000Y-11985655D01*
X14705000Y-12155655D02*
X14735000Y-12185655D01*
X14735000Y-12155655D02*
X14705000Y-12185655D01*
X14710910Y-5100014D02*
X14740910Y-5130014D01*
X14740910Y-5100014D02*
X14710910Y-5130014D01*
X14725000Y-4505000D02*
X14755000Y-4535000D01*
X14755000Y-4505000D02*
X14725000Y-4535000D01*
X14730000Y-9505000D02*
X14760000Y-9535000D01*
X14760000Y-9505000D02*
X14730000Y-9535000D01*
X14756539Y-7115783D02*
X14786539Y-7145783D01*
X14786539Y-7115783D02*
X14756539Y-7145783D01*
X14773962Y-10055000D02*
X14803962Y-10085000D01*
X14803962Y-10055000D02*
X14773962Y-10085000D01*
X14775000Y-8810000D02*
X14805000Y-8840000D01*
X14805000Y-8810000D02*
X14775000Y-8840000D01*
X14793910Y-5099999D02*
X14823910Y-5129999D01*
X14823910Y-5099999D02*
X14793910Y-5129999D01*
X14807000Y-4505000D02*
X14837000Y-4535000D01*
X14837000Y-4505000D02*
X14807000Y-4535000D01*
X14860000Y-9995000D02*
X14890000Y-10025000D01*
X14890000Y-9995000D02*
X14860000Y-10025000D01*
X14868800Y-10108800D02*
X14898800Y-10138800D01*
X14898800Y-10108800D02*
X14868800Y-10138800D01*
X14876911Y-5100000D02*
X14906911Y-5130000D01*
X14906911Y-5100000D02*
X14876911Y-5130000D01*
X14880000Y-9120000D02*
X14910000Y-9150000D01*
X14910000Y-9120000D02*
X14880000Y-9150000D01*
X14890000Y-4505000D02*
X14920000Y-4535000D01*
X14920000Y-4505000D02*
X14890000Y-4535000D01*
X14905000Y-6155655D02*
X14935000Y-6185655D01*
X14935000Y-6155655D02*
X14905000Y-6185655D01*
X14905000Y-7755655D02*
X14935000Y-7785655D01*
X14935000Y-7755655D02*
X14905000Y-7785655D01*
X14905000Y-7955655D02*
X14935000Y-7985655D01*
X14935000Y-7955655D02*
X14905000Y-7985655D01*
X14905000Y-10955655D02*
X14935000Y-10985655D01*
X14935000Y-10955655D02*
X14905000Y-10985655D01*
X14905000Y-11355655D02*
X14935000Y-11385655D01*
X14935000Y-11355655D02*
X14905000Y-11385655D01*
X14905000Y-11555655D02*
X14935000Y-11585655D01*
X14935000Y-11555655D02*
X14905000Y-11585655D01*
X14905000Y-12155655D02*
X14935000Y-12185655D01*
X14935000Y-12155655D02*
X14905000Y-12185655D01*
X14925000Y-7575000D02*
X14955000Y-7605000D01*
X14955000Y-7575000D02*
X14925000Y-7605000D01*
X14940000Y-10325000D02*
X14970000Y-10355000D01*
X14970000Y-10325000D02*
X14940000Y-10355000D01*
X14952500Y-9173327D02*
X14982500Y-9203327D01*
X14982500Y-9173327D02*
X14952500Y-9203327D01*
X14960000Y-5100000D02*
X14990000Y-5130000D01*
X14990000Y-5100000D02*
X14960000Y-5130000D01*
X14972000Y-4505000D02*
X15002000Y-4535000D01*
X15002000Y-4505000D02*
X14972000Y-4535000D01*
X15000212Y-9345000D02*
X15030212Y-9375000D01*
X15030212Y-9345000D02*
X15000212Y-9375000D01*
X15010000Y-6945000D02*
X15040000Y-6975000D01*
X15040000Y-6945000D02*
X15010000Y-6975000D01*
X15010000Y-7040000D02*
X15040000Y-7070000D01*
X15040000Y-7040000D02*
X15010000Y-7070000D01*
X15025000Y-9120000D02*
X15055000Y-9150000D01*
X15055000Y-9120000D02*
X15025000Y-9150000D01*
X15026313Y-10350497D02*
X15056313Y-10380497D01*
X15056313Y-10350497D02*
X15026313Y-10380497D01*
X15040000Y-5100000D02*
X15070000Y-5130000D01*
X15070000Y-5100000D02*
X15040000Y-5130000D01*
X15055000Y-4505000D02*
X15085000Y-4535000D01*
X15085000Y-4505000D02*
X15055000Y-4535000D01*
X15075000Y-8810000D02*
X15105000Y-8840000D01*
X15105000Y-8810000D02*
X15075000Y-8840000D01*
X15075000Y-9410000D02*
X15105000Y-9440000D01*
X15105000Y-9410000D02*
X15075000Y-9440000D01*
X15086895Y-9320789D02*
X15116895Y-9350789D01*
X15116895Y-9320789D02*
X15086895Y-9350789D01*
X15087108Y-6991415D02*
X15117108Y-7021415D01*
X15117108Y-6991415D02*
X15087108Y-7021415D01*
X15088452Y-7109853D02*
X15118452Y-7139853D01*
X15118452Y-7109853D02*
X15088452Y-7139853D01*
X15105000Y-6555655D02*
X15135000Y-6585655D01*
X15135000Y-6555655D02*
X15105000Y-6585655D01*
X15105000Y-7755655D02*
X15135000Y-7785655D01*
X15135000Y-7755655D02*
X15105000Y-7785655D01*
X15105000Y-7955655D02*
X15135000Y-7985655D01*
X15135000Y-7955655D02*
X15105000Y-7985655D01*
X15105000Y-8355655D02*
X15135000Y-8385655D01*
X15135000Y-8355655D02*
X15105000Y-8385655D01*
X15105000Y-10555655D02*
X15135000Y-10585655D01*
X15135000Y-10555655D02*
X15105000Y-10585655D01*
X15105000Y-10955655D02*
X15135000Y-10985655D01*
X15135000Y-10955655D02*
X15105000Y-10985655D01*
X15105000Y-11355655D02*
X15135000Y-11385655D01*
X15135000Y-11355655D02*
X15105000Y-11385655D01*
X15105000Y-11555655D02*
X15135000Y-11585655D01*
X15135000Y-11555655D02*
X15105000Y-11585655D01*
X15105000Y-11955655D02*
X15135000Y-11985655D01*
X15135000Y-11955655D02*
X15105000Y-11985655D01*
X15105000Y-12155655D02*
X15135000Y-12185655D01*
X15135000Y-12155655D02*
X15105000Y-12185655D01*
X15107125Y-5051182D02*
X15137125Y-5081182D01*
X15137125Y-5051182D02*
X15107125Y-5081182D01*
X15111749Y-6143251D02*
X15141749Y-6173251D01*
X15141749Y-6143251D02*
X15111749Y-6173251D01*
X15117868Y-7194910D02*
X15147868Y-7224910D01*
X15147868Y-7194910D02*
X15117868Y-7224910D01*
X15125000Y-7575000D02*
X15155000Y-7605000D01*
X15155000Y-7575000D02*
X15125000Y-7605000D01*
X15135000Y-4505000D02*
X15165000Y-4535000D01*
X15165000Y-4505000D02*
X15135000Y-4535000D01*
X15170000Y-5000000D02*
X15200000Y-5030000D01*
X15200000Y-5000000D02*
X15170000Y-5030000D01*
X15175000Y-9120000D02*
X15205000Y-9150000D01*
X15205000Y-9120000D02*
X15175000Y-9150000D01*
X15177500Y-7127500D02*
X15207500Y-7157500D01*
X15207500Y-7127500D02*
X15177500Y-7157500D01*
X15182500Y-6262500D02*
X15212500Y-6292500D01*
X15212500Y-6262500D02*
X15182500Y-6292500D01*
X15210000Y-11225000D02*
X15240000Y-11255000D01*
X15240000Y-11225000D02*
X15210000Y-11255000D01*
X15215000Y-8775000D02*
X15245000Y-8805000D01*
X15245000Y-8775000D02*
X15215000Y-8805000D01*
X15217000Y-4505000D02*
X15247000Y-4535000D01*
X15247000Y-4505000D02*
X15217000Y-4535000D01*
X15225000Y-5975000D02*
X15255000Y-6005000D01*
X15255000Y-5975000D02*
X15225000Y-6005000D01*
X15233681Y-11138171D02*
X15263681Y-11168171D01*
X15263681Y-11138171D02*
X15233681Y-11168171D01*
X15253000Y-5000000D02*
X15283000Y-5030000D01*
X15283000Y-5000000D02*
X15253000Y-5030000D01*
X15260000Y-7080000D02*
X15290000Y-7110000D01*
X15290000Y-7080000D02*
X15260000Y-7110000D01*
X15300000Y-4505000D02*
X15330000Y-4535000D01*
X15330000Y-4505000D02*
X15300000Y-4535000D01*
X15302500Y-6705000D02*
X15332500Y-6735000D01*
X15332500Y-6705000D02*
X15302500Y-6735000D01*
X15305000Y-5155655D02*
X15335000Y-5185655D01*
X15335000Y-5155655D02*
X15305000Y-5185655D01*
X15305000Y-7955655D02*
X15335000Y-7985655D01*
X15335000Y-7955655D02*
X15305000Y-7985655D01*
X15305000Y-8155655D02*
X15335000Y-8185655D01*
X15335000Y-8155655D02*
X15305000Y-8185655D01*
X15305000Y-8355655D02*
X15335000Y-8385655D01*
X15335000Y-8355655D02*
X15305000Y-8385655D01*
X15305000Y-10755655D02*
X15335000Y-10785655D01*
X15335000Y-10755655D02*
X15305000Y-10785655D01*
X15305000Y-10955655D02*
X15335000Y-10985655D01*
X15335000Y-10955655D02*
X15305000Y-10985655D01*
X15305000Y-11555655D02*
X15335000Y-11585655D01*
X15335000Y-11555655D02*
X15305000Y-11585655D01*
X15305000Y-11955655D02*
X15335000Y-11985655D01*
X15335000Y-11955655D02*
X15305000Y-11985655D01*
X15305000Y-12155655D02*
X15335000Y-12185655D01*
X15335000Y-12155655D02*
X15305000Y-12185655D01*
X15325479Y-7141746D02*
X15355479Y-7171746D01*
X15355479Y-7141746D02*
X15325479Y-7171746D01*
X15335000Y-5000000D02*
X15365000Y-5030000D01*
X15365000Y-5000000D02*
X15335000Y-5030000D01*
X15346020Y-7053532D02*
X15376020Y-7083532D01*
X15376020Y-7053532D02*
X15346020Y-7083532D01*
X15367500Y-9425000D02*
X15397500Y-9455000D01*
X15397500Y-9425000D02*
X15367500Y-9455000D01*
X15387000Y-4505000D02*
X15417000Y-4535000D01*
X15417000Y-4505000D02*
X15387000Y-4535000D01*
X15405000Y-7590000D02*
X15435000Y-7620000D01*
X15435000Y-7590000D02*
X15405000Y-7620000D01*
X15415000Y-5000000D02*
X15445000Y-5030000D01*
X15445000Y-5000000D02*
X15415000Y-5030000D01*
X15425000Y-8810000D02*
X15455000Y-8840000D01*
X15455000Y-8810000D02*
X15425000Y-8840000D01*
X15432500Y-5792500D02*
X15462500Y-5822500D01*
X15462500Y-5792500D02*
X15432500Y-5822500D01*
X15470000Y-4505000D02*
X15500000Y-4535000D01*
X15500000Y-4505000D02*
X15470000Y-4535000D01*
X15498000Y-5000000D02*
X15528000Y-5030000D01*
X15528000Y-5000000D02*
X15498000Y-5030000D01*
X15505000Y-5355655D02*
X15535000Y-5385655D01*
X15535000Y-5355655D02*
X15505000Y-5385655D01*
X15505000Y-8955655D02*
X15535000Y-8985655D01*
X15535000Y-8955655D02*
X15505000Y-8985655D01*
X15505000Y-9555655D02*
X15535000Y-9585655D01*
X15535000Y-9555655D02*
X15505000Y-9585655D01*
X15505000Y-10155655D02*
X15535000Y-10185655D01*
X15535000Y-10155655D02*
X15505000Y-10185655D01*
X15505000Y-10355655D02*
X15535000Y-10385655D01*
X15535000Y-10355655D02*
X15505000Y-10385655D01*
X15505000Y-10555655D02*
X15535000Y-10585655D01*
X15535000Y-10555655D02*
X15505000Y-10585655D01*
X15505000Y-10755655D02*
X15535000Y-10785655D01*
X15535000Y-10755655D02*
X15505000Y-10785655D01*
X15505000Y-10955655D02*
X15535000Y-10985655D01*
X15535000Y-10955655D02*
X15505000Y-10985655D01*
X15505000Y-11155655D02*
X15535000Y-11185655D01*
X15535000Y-11155655D02*
X15505000Y-11185655D01*
X15505000Y-11355655D02*
X15535000Y-11385655D01*
X15535000Y-11355655D02*
X15505000Y-11385655D01*
X15505000Y-11955655D02*
X15535000Y-11985655D01*
X15535000Y-11955655D02*
X15505000Y-11985655D01*
X15505000Y-12155655D02*
X15535000Y-12185655D01*
X15535000Y-12155655D02*
X15505000Y-12185655D01*
X15543500Y-5738500D02*
X15573500Y-5768500D01*
X15573500Y-5738500D02*
X15543500Y-5768500D01*
X15550000Y-4520000D02*
X15580000Y-4550000D01*
X15580000Y-4520000D02*
X15550000Y-4550000D01*
X15550000Y-4600000D02*
X15580000Y-4630000D01*
X15580000Y-4600000D02*
X15550000Y-4630000D01*
X15550000Y-4680000D02*
X15580000Y-4710000D01*
X15580000Y-4680000D02*
X15550000Y-4710000D01*
X15550000Y-4765000D02*
X15580000Y-4795000D01*
X15580000Y-4765000D02*
X15550000Y-4795000D01*
X15550000Y-4855000D02*
X15580000Y-4885000D01*
X15580000Y-4855000D02*
X15550000Y-4885000D01*
X15550000Y-4935000D02*
X15580000Y-4965000D01*
X15580000Y-4935000D02*
X15550000Y-4965000D01*
X15630000Y-6380000D02*
X15660000Y-6410000D01*
X15660000Y-6380000D02*
X15630000Y-6410000D01*
X15632500Y-9680000D02*
X15662500Y-9710000D01*
X15662500Y-9680000D02*
X15632500Y-9710000D01*
X15641360Y-7123640D02*
X15671360Y-7153640D01*
X15671360Y-7123640D02*
X15641360Y-7153640D01*
X15685000Y-7490000D02*
X15715000Y-7520000D01*
X15715000Y-7490000D02*
X15685000Y-7520000D01*
X15705000Y-4555655D02*
X15735000Y-4585655D01*
X15735000Y-4555655D02*
X15705000Y-4585655D01*
X15705000Y-4755655D02*
X15735000Y-4785655D01*
X15735000Y-4755655D02*
X15705000Y-4785655D01*
X15705000Y-5155655D02*
X15735000Y-5185655D01*
X15735000Y-5155655D02*
X15705000Y-5185655D01*
X15705000Y-7060000D02*
X15735000Y-7090000D01*
X15735000Y-7060000D02*
X15705000Y-7090000D01*
X15705000Y-8955655D02*
X15735000Y-8985655D01*
X15735000Y-8955655D02*
X15705000Y-8985655D01*
X15705000Y-9155655D02*
X15735000Y-9185655D01*
X15735000Y-9155655D02*
X15705000Y-9185655D01*
X15705000Y-10155655D02*
X15735000Y-10185655D01*
X15735000Y-10155655D02*
X15705000Y-10185655D01*
X15705000Y-10355655D02*
X15735000Y-10385655D01*
X15735000Y-10355655D02*
X15705000Y-10385655D01*
X15705000Y-10555655D02*
X15735000Y-10585655D01*
X15735000Y-10555655D02*
X15705000Y-10585655D01*
X15705000Y-10755655D02*
X15735000Y-10785655D01*
X15735000Y-10755655D02*
X15705000Y-10785655D01*
X15705000Y-10955655D02*
X15735000Y-10985655D01*
X15735000Y-10955655D02*
X15705000Y-10985655D01*
X15705000Y-11155655D02*
X15735000Y-11185655D01*
X15735000Y-11155655D02*
X15705000Y-11185655D01*
X15705000Y-11355655D02*
X15735000Y-11385655D01*
X15735000Y-11355655D02*
X15705000Y-11385655D01*
X15705000Y-11555655D02*
X15735000Y-11585655D01*
X15735000Y-11555655D02*
X15705000Y-11585655D01*
X15705000Y-12155655D02*
X15735000Y-12185655D01*
X15735000Y-12155655D02*
X15705000Y-12185655D01*
X15709900Y-6960000D02*
X15739900Y-6990000D01*
X15739900Y-6960000D02*
X15709900Y-6990000D01*
X15710000Y-6805000D02*
X15740000Y-6835000D01*
X15740000Y-6805000D02*
X15710000Y-6835000D01*
X15761229Y-6731002D02*
X15791229Y-6761002D01*
X15791229Y-6731002D02*
X15761229Y-6761002D01*
X15770000Y-6485000D02*
X15800000Y-6515000D01*
X15800000Y-6485000D02*
X15770000Y-6515000D01*
X15785000Y-8650000D02*
X15815000Y-8680000D01*
X15815000Y-8650000D02*
X15785000Y-8680000D01*
X15792500Y-8285000D02*
X15822500Y-8315000D01*
X15822500Y-8285000D02*
X15792500Y-8315000D01*
X15860000Y-9655000D02*
X15890000Y-9685000D01*
X15890000Y-9655000D02*
X15860000Y-9685000D01*
X15905000Y-4555655D02*
X15935000Y-4585655D01*
X15935000Y-4555655D02*
X15905000Y-4585655D01*
X15905000Y-4955655D02*
X15935000Y-4985655D01*
X15935000Y-4955655D02*
X15905000Y-4985655D01*
X15905000Y-5955655D02*
X15935000Y-5985655D01*
X15935000Y-5955655D02*
X15905000Y-5985655D01*
X15905000Y-7955655D02*
X15935000Y-7985655D01*
X15935000Y-7955655D02*
X15905000Y-7985655D01*
X15905000Y-10155655D02*
X15935000Y-10185655D01*
X15935000Y-10155655D02*
X15905000Y-10185655D01*
X15905000Y-10355655D02*
X15935000Y-10385655D01*
X15935000Y-10355655D02*
X15905000Y-10385655D01*
X15905000Y-10555655D02*
X15935000Y-10585655D01*
X15935000Y-10555655D02*
X15905000Y-10585655D01*
X15905000Y-10755655D02*
X15935000Y-10785655D01*
X15935000Y-10755655D02*
X15905000Y-10785655D01*
X15905000Y-10955655D02*
X15935000Y-10985655D01*
X15935000Y-10955655D02*
X15905000Y-10985655D01*
X15905000Y-11155655D02*
X15935000Y-11185655D01*
X15935000Y-11155655D02*
X15905000Y-11185655D01*
X15905000Y-11355655D02*
X15935000Y-11385655D01*
X15935000Y-11355655D02*
X15905000Y-11385655D01*
X15905000Y-11555655D02*
X15935000Y-11585655D01*
X15935000Y-11555655D02*
X15905000Y-11585655D01*
X15905000Y-12155655D02*
X15935000Y-12185655D01*
X15935000Y-12155655D02*
X15905000Y-12185655D01*
X15937500Y-8372500D02*
X15967500Y-8402500D01*
X15967500Y-8372500D02*
X15937500Y-8402500D01*
X16040000Y-6910000D02*
X16070000Y-6940000D01*
X16070000Y-6910000D02*
X16040000Y-6940000D01*
X16050000Y-6735000D02*
X16080000Y-6765000D01*
X16080000Y-6735000D02*
X16050000Y-6765000D01*
X16105000Y-4755655D02*
X16135000Y-4785655D01*
X16135000Y-4755655D02*
X16105000Y-4785655D01*
X16105000Y-4955655D02*
X16135000Y-4985655D01*
X16135000Y-4955655D02*
X16105000Y-4985655D01*
X16105000Y-7555655D02*
X16135000Y-7585655D01*
X16135000Y-7555655D02*
X16105000Y-7585655D01*
X16105000Y-7955655D02*
X16135000Y-7985655D01*
X16135000Y-7955655D02*
X16105000Y-7985655D01*
X16105000Y-9955655D02*
X16135000Y-9985655D01*
X16135000Y-9955655D02*
X16105000Y-9985655D01*
X16105000Y-10155655D02*
X16135000Y-10185655D01*
X16135000Y-10155655D02*
X16105000Y-10185655D01*
X16105000Y-10355655D02*
X16135000Y-10385655D01*
X16135000Y-10355655D02*
X16105000Y-10385655D01*
X16105000Y-10555655D02*
X16135000Y-10585655D01*
X16135000Y-10555655D02*
X16105000Y-10585655D01*
X16105000Y-10755655D02*
X16135000Y-10785655D01*
X16135000Y-10755655D02*
X16105000Y-10785655D01*
X16105000Y-10955655D02*
X16135000Y-10985655D01*
X16135000Y-10955655D02*
X16105000Y-10985655D01*
X16105000Y-11155655D02*
X16135000Y-11185655D01*
X16135000Y-11155655D02*
X16105000Y-11185655D01*
X16105000Y-11355655D02*
X16135000Y-11385655D01*
X16135000Y-11355655D02*
X16105000Y-11385655D01*
X16105000Y-11555655D02*
X16135000Y-11585655D01*
X16135000Y-11555655D02*
X16105000Y-11585655D01*
X16105000Y-12155655D02*
X16135000Y-12185655D01*
X16135000Y-12155655D02*
X16105000Y-12185655D01*
X16140000Y-6487500D02*
X16170000Y-6517500D01*
X16170000Y-6487500D02*
X16140000Y-6517500D01*
X16207500Y-9447500D02*
X16237500Y-9477500D01*
X16237500Y-9447500D02*
X16207500Y-9477500D01*
X16305000Y-5955655D02*
X16335000Y-5985655D01*
X16335000Y-5955655D02*
X16305000Y-5985655D01*
X16305000Y-6355655D02*
X16335000Y-6385655D01*
X16335000Y-6355655D02*
X16305000Y-6385655D01*
X16305000Y-6755655D02*
X16335000Y-6785655D01*
X16335000Y-6755655D02*
X16305000Y-6785655D01*
X16305000Y-7555655D02*
X16335000Y-7585655D01*
X16335000Y-7555655D02*
X16305000Y-7585655D01*
X16305000Y-8155655D02*
X16335000Y-8185655D01*
X16335000Y-8155655D02*
X16305000Y-8185655D01*
X16305000Y-8355655D02*
X16335000Y-8385655D01*
X16335000Y-8355655D02*
X16305000Y-8385655D01*
X16305000Y-8555655D02*
X16335000Y-8585655D01*
X16335000Y-8555655D02*
X16305000Y-8585655D01*
X16305000Y-8755655D02*
X16335000Y-8785655D01*
X16335000Y-8755655D02*
X16305000Y-8785655D01*
X16305000Y-8955655D02*
X16335000Y-8985655D01*
X16335000Y-8955655D02*
X16305000Y-8985655D01*
X16305000Y-9155655D02*
X16335000Y-9185655D01*
X16335000Y-9155655D02*
X16305000Y-9185655D01*
X16305000Y-9955655D02*
X16335000Y-9985655D01*
X16335000Y-9955655D02*
X16305000Y-9985655D01*
X16305000Y-10155655D02*
X16335000Y-10185655D01*
X16335000Y-10155655D02*
X16305000Y-10185655D01*
X16305000Y-10355655D02*
X16335000Y-10385655D01*
X16335000Y-10355655D02*
X16305000Y-10385655D01*
X16305000Y-10555655D02*
X16335000Y-10585655D01*
X16335000Y-10555655D02*
X16305000Y-10585655D01*
X16305000Y-10755655D02*
X16335000Y-10785655D01*
X16335000Y-10755655D02*
X16305000Y-10785655D01*
X16305000Y-10955655D02*
X16335000Y-10985655D01*
X16335000Y-10955655D02*
X16305000Y-10985655D01*
X16305000Y-11155655D02*
X16335000Y-11185655D01*
X16335000Y-11155655D02*
X16305000Y-11185655D01*
X16305000Y-11355655D02*
X16335000Y-11385655D01*
X16335000Y-11355655D02*
X16305000Y-11385655D01*
X16305000Y-11555655D02*
X16335000Y-11585655D01*
X16335000Y-11555655D02*
X16305000Y-11585655D01*
X16305000Y-12155655D02*
X16335000Y-12185655D01*
X16335000Y-12155655D02*
X16305000Y-12185655D01*
X16505000Y-5355655D02*
X16535000Y-5385655D01*
X16535000Y-5355655D02*
X16505000Y-5385655D01*
X16505000Y-5955655D02*
X16535000Y-5985655D01*
X16535000Y-5955655D02*
X16505000Y-5985655D01*
X16505000Y-6355655D02*
X16535000Y-6385655D01*
X16535000Y-6355655D02*
X16505000Y-6385655D01*
X16505000Y-6555655D02*
X16535000Y-6585655D01*
X16535000Y-6555655D02*
X16505000Y-6585655D01*
X16505000Y-6955655D02*
X16535000Y-6985655D01*
X16535000Y-6955655D02*
X16505000Y-6985655D01*
X16505000Y-7155655D02*
X16535000Y-7185655D01*
X16535000Y-7155655D02*
X16505000Y-7185655D01*
X16505000Y-7555655D02*
X16535000Y-7585655D01*
X16535000Y-7555655D02*
X16505000Y-7585655D01*
X16505000Y-8355655D02*
X16535000Y-8385655D01*
X16535000Y-8355655D02*
X16505000Y-8385655D01*
X16505000Y-8555655D02*
X16535000Y-8585655D01*
X16535000Y-8555655D02*
X16505000Y-8585655D01*
X16505000Y-8755655D02*
X16535000Y-8785655D01*
X16535000Y-8755655D02*
X16505000Y-8785655D01*
X16505000Y-8955655D02*
X16535000Y-8985655D01*
X16535000Y-8955655D02*
X16505000Y-8985655D01*
X16505000Y-9155655D02*
X16535000Y-9185655D01*
X16535000Y-9155655D02*
X16505000Y-9185655D01*
X16505000Y-9355655D02*
X16535000Y-9385655D01*
X16535000Y-9355655D02*
X16505000Y-9385655D01*
X16505000Y-10155655D02*
X16535000Y-10185655D01*
X16535000Y-10155655D02*
X16505000Y-10185655D01*
X16505000Y-10355655D02*
X16535000Y-10385655D01*
X16535000Y-10355655D02*
X16505000Y-10385655D01*
X16505000Y-10555655D02*
X16535000Y-10585655D01*
X16535000Y-10555655D02*
X16505000Y-10585655D01*
X16505000Y-10755655D02*
X16535000Y-10785655D01*
X16535000Y-10755655D02*
X16505000Y-10785655D01*
X16505000Y-10955655D02*
X16535000Y-10985655D01*
X16535000Y-10955655D02*
X16505000Y-10985655D01*
X16505000Y-11155655D02*
X16535000Y-11185655D01*
X16535000Y-11155655D02*
X16505000Y-11185655D01*
X16505000Y-11355655D02*
X16535000Y-11385655D01*
X16535000Y-11355655D02*
X16505000Y-11385655D01*
X16505000Y-11555655D02*
X16535000Y-11585655D01*
X16535000Y-11555655D02*
X16505000Y-11585655D01*
X16505000Y-11955655D02*
X16535000Y-11985655D01*
X16535000Y-11955655D02*
X16505000Y-11985655D01*
X16505000Y-12155655D02*
X16535000Y-12185655D01*
X16535000Y-12155655D02*
X16505000Y-12185655D01*
X16570000Y-9800000D02*
X16600000Y-9830000D01*
X16600000Y-9800000D02*
X16570000Y-9830000D01*
X16705000Y-4755655D02*
X16735000Y-4785655D01*
X16735000Y-4755655D02*
X16705000Y-4785655D01*
X16705000Y-5155655D02*
X16735000Y-5185655D01*
X16735000Y-5155655D02*
X16705000Y-5185655D01*
X16705000Y-5555655D02*
X16735000Y-5585655D01*
X16735000Y-5555655D02*
X16705000Y-5585655D01*
X16705000Y-6755655D02*
X16735000Y-6785655D01*
X16735000Y-6755655D02*
X16705000Y-6785655D01*
X16705000Y-6955655D02*
X16735000Y-6985655D01*
X16735000Y-6955655D02*
X16705000Y-6985655D01*
X16705000Y-7155655D02*
X16735000Y-7185655D01*
X16735000Y-7155655D02*
X16705000Y-7185655D01*
X16705000Y-7755655D02*
X16735000Y-7785655D01*
X16735000Y-7755655D02*
X16705000Y-7785655D01*
X16705000Y-8355655D02*
X16735000Y-8385655D01*
X16735000Y-8355655D02*
X16705000Y-8385655D01*
X16705000Y-8555655D02*
X16735000Y-8585655D01*
X16735000Y-8555655D02*
X16705000Y-8585655D01*
X16705000Y-8755655D02*
X16735000Y-8785655D01*
X16735000Y-8755655D02*
X16705000Y-8785655D01*
X16705000Y-8955655D02*
X16735000Y-8985655D01*
X16735000Y-8955655D02*
X16705000Y-8985655D01*
X16705000Y-9155655D02*
X16735000Y-9185655D01*
X16735000Y-9155655D02*
X16705000Y-9185655D01*
X16705000Y-9355655D02*
X16735000Y-9385655D01*
X16735000Y-9355655D02*
X16705000Y-9385655D01*
X16705000Y-9555655D02*
X16735000Y-9585655D01*
X16735000Y-9555655D02*
X16705000Y-9585655D01*
X16705000Y-10355655D02*
X16735000Y-10385655D01*
X16735000Y-10355655D02*
X16705000Y-10385655D01*
X16705000Y-10555655D02*
X16735000Y-10585655D01*
X16735000Y-10555655D02*
X16705000Y-10585655D01*
X16705000Y-10755655D02*
X16735000Y-10785655D01*
X16735000Y-10755655D02*
X16705000Y-10785655D01*
X16705000Y-10955655D02*
X16735000Y-10985655D01*
X16735000Y-10955655D02*
X16705000Y-10985655D01*
X16705000Y-11155655D02*
X16735000Y-11185655D01*
X16735000Y-11155655D02*
X16705000Y-11185655D01*
X16705000Y-11355655D02*
X16735000Y-11385655D01*
X16735000Y-11355655D02*
X16705000Y-11385655D01*
X16705000Y-11555655D02*
X16735000Y-11585655D01*
X16735000Y-11555655D02*
X16705000Y-11585655D01*
X16705000Y-11955655D02*
X16735000Y-11985655D01*
X16735000Y-11955655D02*
X16705000Y-11985655D01*
X16705000Y-12155655D02*
X16735000Y-12185655D01*
X16735000Y-12155655D02*
X16705000Y-12185655D01*
X16745000Y-5965000D02*
X16775000Y-5995000D01*
X16775000Y-5965000D02*
X16745000Y-5995000D01*
X16903351Y-9757831D02*
X16933351Y-9787831D01*
X16933351Y-9757831D02*
X16903351Y-9787831D01*
X16905000Y-4955655D02*
X16935000Y-4985655D01*
X16935000Y-4955655D02*
X16905000Y-4985655D01*
X16905000Y-5355655D02*
X16935000Y-5385655D01*
X16935000Y-5355655D02*
X16905000Y-5385655D01*
X16905000Y-5755655D02*
X16935000Y-5785655D01*
X16935000Y-5755655D02*
X16905000Y-5785655D01*
X16905000Y-6355655D02*
X16935000Y-6385655D01*
X16935000Y-6355655D02*
X16905000Y-6385655D01*
X16905000Y-6555655D02*
X16935000Y-6585655D01*
X16935000Y-6555655D02*
X16905000Y-6585655D01*
X16905000Y-6755655D02*
X16935000Y-6785655D01*
X16935000Y-6755655D02*
X16905000Y-6785655D01*
X16905000Y-6955655D02*
X16935000Y-6985655D01*
X16935000Y-6955655D02*
X16905000Y-6985655D01*
X16905000Y-7555655D02*
X16935000Y-7585655D01*
X16935000Y-7555655D02*
X16905000Y-7585655D01*
X16905000Y-7755655D02*
X16935000Y-7785655D01*
X16935000Y-7755655D02*
X16905000Y-7785655D01*
X16905000Y-8355655D02*
X16935000Y-8385655D01*
X16935000Y-8355655D02*
X16905000Y-8385655D01*
X16905000Y-8555655D02*
X16935000Y-8585655D01*
X16935000Y-8555655D02*
X16905000Y-8585655D01*
X16905000Y-8755655D02*
X16935000Y-8785655D01*
X16935000Y-8755655D02*
X16905000Y-8785655D01*
X16905000Y-9355655D02*
X16935000Y-9385655D01*
X16935000Y-9355655D02*
X16905000Y-9385655D01*
X16905000Y-9555655D02*
X16935000Y-9585655D01*
X16935000Y-9555655D02*
X16905000Y-9585655D01*
X16905000Y-10555655D02*
X16935000Y-10585655D01*
X16935000Y-10555655D02*
X16905000Y-10585655D01*
X16905000Y-10755655D02*
X16935000Y-10785655D01*
X16935000Y-10755655D02*
X16905000Y-10785655D01*
X16905000Y-10955655D02*
X16935000Y-10985655D01*
X16935000Y-10955655D02*
X16905000Y-10985655D01*
X16905000Y-11155655D02*
X16935000Y-11185655D01*
X16935000Y-11155655D02*
X16905000Y-11185655D01*
X16905000Y-11355655D02*
X16935000Y-11385655D01*
X16935000Y-11355655D02*
X16905000Y-11385655D01*
X16905000Y-11555655D02*
X16935000Y-11585655D01*
X16935000Y-11555655D02*
X16905000Y-11585655D01*
X16905000Y-12155655D02*
X16935000Y-12185655D01*
X16935000Y-12155655D02*
X16905000Y-12185655D01*
X16960000Y-10185000D02*
X16990000Y-10215000D01*
X16990000Y-10185000D02*
X16960000Y-10215000D01*
X16980000Y-9805000D02*
X17010000Y-9835000D01*
X17010000Y-9805000D02*
X16980000Y-9835000D01*
X17105000Y-4755655D02*
X17135000Y-4785655D01*
X17135000Y-4755655D02*
X17105000Y-4785655D01*
X17105000Y-5155655D02*
X17135000Y-5185655D01*
X17135000Y-5155655D02*
X17105000Y-5185655D01*
X17105000Y-5555655D02*
X17135000Y-5585655D01*
X17135000Y-5555655D02*
X17105000Y-5585655D01*
X17105000Y-7555655D02*
X17135000Y-7585655D01*
X17135000Y-7555655D02*
X17105000Y-7585655D01*
X17105000Y-7755655D02*
X17135000Y-7785655D01*
X17135000Y-7755655D02*
X17105000Y-7785655D01*
X17105000Y-8355655D02*
X17135000Y-8385655D01*
X17135000Y-8355655D02*
X17105000Y-8385655D01*
X17105000Y-8555655D02*
X17135000Y-8585655D01*
X17135000Y-8555655D02*
X17105000Y-8585655D01*
X17105000Y-8755655D02*
X17135000Y-8785655D01*
X17135000Y-8755655D02*
X17105000Y-8785655D01*
X17105000Y-9355655D02*
X17135000Y-9385655D01*
X17135000Y-9355655D02*
X17105000Y-9385655D01*
X17105000Y-9955655D02*
X17135000Y-9985655D01*
X17135000Y-9955655D02*
X17105000Y-9985655D01*
X17105000Y-10755655D02*
X17135000Y-10785655D01*
X17135000Y-10755655D02*
X17105000Y-10785655D01*
X17105000Y-10955655D02*
X17135000Y-10985655D01*
X17135000Y-10955655D02*
X17105000Y-10985655D01*
X17105000Y-11155655D02*
X17135000Y-11185655D01*
X17135000Y-11155655D02*
X17105000Y-11185655D01*
X17105000Y-11355655D02*
X17135000Y-11385655D01*
X17135000Y-11355655D02*
X17105000Y-11385655D01*
X17105000Y-12155655D02*
X17135000Y-12185655D01*
X17135000Y-12155655D02*
X17105000Y-12185655D01*
X17212500Y-7017500D02*
X17242500Y-7047500D01*
X17242500Y-7017500D02*
X17212500Y-7047500D01*
X17305000Y-5155655D02*
X17335000Y-5185655D01*
X17335000Y-5155655D02*
X17305000Y-5185655D01*
X17305000Y-5555655D02*
X17335000Y-5585655D01*
X17335000Y-5555655D02*
X17305000Y-5585655D01*
X17305000Y-6355655D02*
X17335000Y-6385655D01*
X17335000Y-6355655D02*
X17305000Y-6385655D01*
X17305000Y-6555655D02*
X17335000Y-6585655D01*
X17335000Y-6555655D02*
X17305000Y-6585655D01*
X17305000Y-6755655D02*
X17335000Y-6785655D01*
X17335000Y-6755655D02*
X17305000Y-6785655D01*
X17305000Y-7755655D02*
X17335000Y-7785655D01*
X17335000Y-7755655D02*
X17305000Y-7785655D01*
X17305000Y-8555655D02*
X17335000Y-8585655D01*
X17335000Y-8555655D02*
X17305000Y-8585655D01*
X17305000Y-10155655D02*
X17335000Y-10185655D01*
X17335000Y-10155655D02*
X17305000Y-10185655D01*
X17305000Y-12155655D02*
X17335000Y-12185655D01*
X17335000Y-12155655D02*
X17305000Y-12185655D01*
X17505000Y-4755655D02*
X17535000Y-4785655D01*
X17535000Y-4755655D02*
X17505000Y-4785655D01*
X17505000Y-4955655D02*
X17535000Y-4985655D01*
X17535000Y-4955655D02*
X17505000Y-4985655D01*
X17505000Y-5155655D02*
X17535000Y-5185655D01*
X17535000Y-5155655D02*
X17505000Y-5185655D01*
X17505000Y-6555655D02*
X17535000Y-6585655D01*
X17535000Y-6555655D02*
X17505000Y-6585655D01*
X17505000Y-6755655D02*
X17535000Y-6785655D01*
X17535000Y-6755655D02*
X17505000Y-6785655D01*
X17505000Y-8555655D02*
X17535000Y-8585655D01*
X17535000Y-8555655D02*
X17505000Y-8585655D01*
X17505000Y-8955655D02*
X17535000Y-8985655D01*
X17535000Y-8955655D02*
X17505000Y-8985655D01*
X17505000Y-9555655D02*
X17535000Y-9585655D01*
X17535000Y-9555655D02*
X17505000Y-9585655D01*
X17505000Y-10155655D02*
X17535000Y-10185655D01*
X17535000Y-10155655D02*
X17505000Y-10185655D01*
X17505000Y-10355655D02*
X17535000Y-10385655D01*
X17535000Y-10355655D02*
X17505000Y-10385655D01*
X17505000Y-10755655D02*
X17535000Y-10785655D01*
X17535000Y-10755655D02*
X17505000Y-10785655D01*
X17505000Y-10955655D02*
X17535000Y-10985655D01*
X17535000Y-10955655D02*
X17505000Y-10985655D01*
X17505000Y-11155655D02*
X17535000Y-11185655D01*
X17535000Y-11155655D02*
X17505000Y-11185655D01*
X17505000Y-11555655D02*
X17535000Y-11585655D01*
X17535000Y-11555655D02*
X17505000Y-11585655D01*
X17505000Y-11755655D02*
X17535000Y-11785655D01*
X17535000Y-11755655D02*
X17505000Y-11785655D01*
X17505000Y-12155655D02*
X17535000Y-12185655D01*
X17535000Y-12155655D02*
X17505000Y-12185655D01*
X17705000Y-4555655D02*
X17735000Y-4585655D01*
X17735000Y-4555655D02*
X17705000Y-4585655D01*
X17705000Y-4755655D02*
X17735000Y-4785655D01*
X17735000Y-4755655D02*
X17705000Y-4785655D01*
X17705000Y-4955655D02*
X17735000Y-4985655D01*
X17735000Y-4955655D02*
X17705000Y-4985655D01*
X17705000Y-5155655D02*
X17735000Y-5185655D01*
X17735000Y-5155655D02*
X17705000Y-5185655D01*
X17705000Y-6555655D02*
X17735000Y-6585655D01*
X17735000Y-6555655D02*
X17705000Y-6585655D01*
X17705000Y-6755655D02*
X17735000Y-6785655D01*
X17735000Y-6755655D02*
X17705000Y-6785655D01*
X17705000Y-6955655D02*
X17735000Y-6985655D01*
X17735000Y-6955655D02*
X17705000Y-6985655D01*
X17705000Y-8355655D02*
X17735000Y-8385655D01*
X17735000Y-8355655D02*
X17705000Y-8385655D01*
X17705000Y-8955655D02*
X17735000Y-8985655D01*
X17735000Y-8955655D02*
X17705000Y-8985655D01*
X17705000Y-9155655D02*
X17735000Y-9185655D01*
X17735000Y-9155655D02*
X17705000Y-9185655D01*
X17705000Y-9555655D02*
X17735000Y-9585655D01*
X17735000Y-9555655D02*
X17705000Y-9585655D01*
X17705000Y-9755655D02*
X17735000Y-9785655D01*
X17735000Y-9755655D02*
X17705000Y-9785655D01*
X17705000Y-9955655D02*
X17735000Y-9985655D01*
X17735000Y-9955655D02*
X17705000Y-9985655D01*
X17705000Y-10155655D02*
X17735000Y-10185655D01*
X17735000Y-10155655D02*
X17705000Y-10185655D01*
X17705000Y-10355655D02*
X17735000Y-10385655D01*
X17735000Y-10355655D02*
X17705000Y-10385655D01*
X17705000Y-10555655D02*
X17735000Y-10585655D01*
X17735000Y-10555655D02*
X17705000Y-10585655D01*
X17705000Y-10955655D02*
X17735000Y-10985655D01*
X17735000Y-10955655D02*
X17705000Y-10985655D01*
X17705000Y-11155655D02*
X17735000Y-11185655D01*
X17735000Y-11155655D02*
X17705000Y-11185655D01*
X17705000Y-11555655D02*
X17735000Y-11585655D01*
X17735000Y-11555655D02*
X17705000Y-11585655D01*
X17705000Y-11755655D02*
X17735000Y-11785655D01*
X17735000Y-11755655D02*
X17705000Y-11785655D01*
X17705000Y-11955655D02*
X17735000Y-11985655D01*
X17735000Y-11955655D02*
X17705000Y-11985655D01*
X17705000Y-12155655D02*
X17735000Y-12185655D01*
X17735000Y-12155655D02*
X17705000Y-12185655D01*
X17730000Y-7720000D02*
X17760000Y-7750000D01*
X17760000Y-7720000D02*
X17730000Y-7750000D01*
X17780000Y-5705000D02*
X17810000Y-5735000D01*
X17810000Y-5705000D02*
X17780000Y-5735000D01*
X17810000Y-7135000D02*
X17840000Y-7165000D01*
X17840000Y-7135000D02*
X17810000Y-7165000D01*
X17810000Y-7227500D02*
X17840000Y-7257500D01*
X17840000Y-7227500D02*
X17810000Y-7257500D01*
X17815000Y-7685000D02*
X17845000Y-7715000D01*
X17845000Y-7685000D02*
X17815000Y-7715000D01*
X17827681Y-7446244D02*
X17857681Y-7476244D01*
X17857681Y-7446244D02*
X17827681Y-7476244D01*
X17828750Y-7356250D02*
X17858750Y-7386250D01*
X17858750Y-7356250D02*
X17828750Y-7386250D01*
X17840000Y-7595000D02*
X17870000Y-7625000D01*
X17870000Y-7595000D02*
X17840000Y-7625000D01*
X17905000Y-4555655D02*
X17935000Y-4585655D01*
X17935000Y-4555655D02*
X17905000Y-4585655D01*
X17905000Y-6555655D02*
X17935000Y-6585655D01*
X17935000Y-6555655D02*
X17905000Y-6585655D01*
X17905000Y-6755655D02*
X17935000Y-6785655D01*
X17935000Y-6755655D02*
X17905000Y-6785655D01*
X17905000Y-6955655D02*
X17935000Y-6985655D01*
X17935000Y-6955655D02*
X17905000Y-6985655D01*
X17905000Y-8355655D02*
X17935000Y-8385655D01*
X17935000Y-8355655D02*
X17905000Y-8385655D01*
X17905000Y-8955655D02*
X17935000Y-8985655D01*
X17935000Y-8955655D02*
X17905000Y-8985655D01*
X17905000Y-9155655D02*
X17935000Y-9185655D01*
X17935000Y-9155655D02*
X17905000Y-9185655D01*
X17905000Y-9555655D02*
X17935000Y-9585655D01*
X17935000Y-9555655D02*
X17905000Y-9585655D01*
X17905000Y-9755655D02*
X17935000Y-9785655D01*
X17935000Y-9755655D02*
X17905000Y-9785655D01*
X17905000Y-9955655D02*
X17935000Y-9985655D01*
X17935000Y-9955655D02*
X17905000Y-9985655D01*
X17905000Y-10155655D02*
X17935000Y-10185655D01*
X17935000Y-10155655D02*
X17905000Y-10185655D01*
X17905000Y-10355655D02*
X17935000Y-10385655D01*
X17935000Y-10355655D02*
X17905000Y-10385655D01*
X17905000Y-10555655D02*
X17935000Y-10585655D01*
X17935000Y-10555655D02*
X17905000Y-10585655D01*
X17905000Y-10755655D02*
X17935000Y-10785655D01*
X17935000Y-10755655D02*
X17905000Y-10785655D01*
X17905000Y-11155655D02*
X17935000Y-11185655D01*
X17935000Y-11155655D02*
X17905000Y-11185655D01*
X17905000Y-11555655D02*
X17935000Y-11585655D01*
X17935000Y-11555655D02*
X17905000Y-11585655D01*
X18030000Y-6125000D02*
X18060000Y-6155000D01*
X18060000Y-6125000D02*
X18030000Y-6155000D01*
X18045000Y-5765000D02*
X18075000Y-5795000D01*
X18075000Y-5765000D02*
X18045000Y-5795000D01*
X18060000Y-5945000D02*
X18090000Y-5975000D01*
X18090000Y-5945000D02*
X18060000Y-5975000D01*
X18095000Y-8510000D02*
X18125000Y-8540000D01*
X18125000Y-8510000D02*
X18095000Y-8540000D01*
X18100000Y-8660000D02*
X18130000Y-8690000D01*
X18130000Y-8660000D02*
X18100000Y-8690000D01*
X18105000Y-5555655D02*
X18135000Y-5585655D01*
X18135000Y-5555655D02*
X18105000Y-5585655D01*
X18105000Y-6355655D02*
X18135000Y-6385655D01*
X18135000Y-6355655D02*
X18105000Y-6385655D01*
X18105000Y-6555655D02*
X18135000Y-6585655D01*
X18135000Y-6555655D02*
X18105000Y-6585655D01*
X18105000Y-6755655D02*
X18135000Y-6785655D01*
X18135000Y-6755655D02*
X18105000Y-6785655D01*
X18105000Y-8955655D02*
X18135000Y-8985655D01*
X18135000Y-8955655D02*
X18105000Y-8985655D01*
X18105000Y-9155655D02*
X18135000Y-9185655D01*
X18135000Y-9155655D02*
X18105000Y-9185655D01*
X18105000Y-9355655D02*
X18135000Y-9385655D01*
X18135000Y-9355655D02*
X18105000Y-9385655D01*
X18105000Y-9555655D02*
X18135000Y-9585655D01*
X18135000Y-9555655D02*
X18105000Y-9585655D01*
X18105000Y-9755655D02*
X18135000Y-9785655D01*
X18135000Y-9755655D02*
X18105000Y-9785655D01*
X18105000Y-9955655D02*
X18135000Y-9985655D01*
X18135000Y-9955655D02*
X18105000Y-9985655D01*
X18105000Y-10155655D02*
X18135000Y-10185655D01*
X18135000Y-10155655D02*
X18105000Y-10185655D01*
X18105000Y-10355655D02*
X18135000Y-10385655D01*
X18135000Y-10355655D02*
X18105000Y-10385655D01*
X18105000Y-10555655D02*
X18135000Y-10585655D01*
X18135000Y-10555655D02*
X18105000Y-10585655D01*
X18145000Y-7105000D02*
X18175000Y-7135000D01*
X18175000Y-7105000D02*
X18145000Y-7135000D01*
X18150000Y-7375000D02*
X18180000Y-7405000D01*
X18180000Y-7375000D02*
X18150000Y-7405000D01*
X18155000Y-7485000D02*
X18185000Y-7515000D01*
X18185000Y-7485000D02*
X18155000Y-7515000D01*
X18155000Y-7595000D02*
X18185000Y-7625000D01*
X18185000Y-7595000D02*
X18155000Y-7625000D01*
X18155000Y-7705000D02*
X18185000Y-7735000D01*
X18185000Y-7705000D02*
X18155000Y-7735000D01*
X18155000Y-7925000D02*
X18185000Y-7955000D01*
X18185000Y-7925000D02*
X18155000Y-7955000D01*
X18155000Y-8035000D02*
X18185000Y-8065000D01*
X18185000Y-8035000D02*
X18155000Y-8065000D01*
X18265000Y-7505000D02*
X18295000Y-7535000D01*
X18295000Y-7505000D02*
X18265000Y-7535000D01*
X18305000Y-6555655D02*
X18335000Y-6585655D01*
X18335000Y-6555655D02*
X18305000Y-6585655D01*
X18305000Y-6755655D02*
X18335000Y-6785655D01*
X18335000Y-6755655D02*
X18305000Y-6785655D01*
X18305000Y-8955655D02*
X18335000Y-8985655D01*
X18335000Y-8955655D02*
X18305000Y-8985655D01*
X18305000Y-9155655D02*
X18335000Y-9185655D01*
X18335000Y-9155655D02*
X18305000Y-9185655D01*
X18305000Y-9555655D02*
X18335000Y-9585655D01*
X18335000Y-9555655D02*
X18305000Y-9585655D01*
X18305000Y-9755655D02*
X18335000Y-9785655D01*
X18335000Y-9755655D02*
X18305000Y-9785655D01*
X18305000Y-9955655D02*
X18335000Y-9985655D01*
X18335000Y-9955655D02*
X18305000Y-9985655D01*
X18305000Y-10155655D02*
X18335000Y-10185655D01*
X18335000Y-10155655D02*
X18305000Y-10185655D01*
X18305000Y-10355655D02*
X18335000Y-10385655D01*
X18335000Y-10355655D02*
X18305000Y-10385655D01*
X18305000Y-10555655D02*
X18335000Y-10585655D01*
X18335000Y-10555655D02*
X18305000Y-10585655D01*
X18525000Y-7595000D02*
X18555000Y-7625000D01*
X18555000Y-7595000D02*
X18525000Y-7625000D01*
X11740000Y-8625000D02*
G75*
G02*
X11700000Y-8625000I-20000J0D01*
G01*
X11700000Y-8625000D02*
G75*
G02*
X11740000Y-8625000I20000J0D01*
G01*
X12005000Y-6210000D02*
G75*
G02*
X11965000Y-6210000I-20000J0D01*
G01*
X11965000Y-6210000D02*
G75*
G02*
X12005000Y-6210000I20000J0D01*
G01*
X10893553Y-4888553D02*
X10893553Y-4938553D01*
X10868553Y-4913553D02*
X10918553Y-4913553D01*
X10893553Y-11888553D02*
X10893553Y-11938553D01*
X10868553Y-11913553D02*
X10918553Y-11913553D01*
X10963848Y-4718848D02*
X10963848Y-4768848D01*
X10938848Y-4743848D02*
X10988848Y-4743848D01*
X10963848Y-5058259D02*
X10963848Y-5108259D01*
X10938848Y-5083259D02*
X10988848Y-5083259D01*
X10963848Y-11718848D02*
X10963848Y-11768848D01*
X10938848Y-11743848D02*
X10988848Y-11743848D01*
X10963848Y-12058259D02*
X10963848Y-12108259D01*
X10938848Y-12083259D02*
X10988848Y-12083259D01*
X11133553Y-4648553D02*
X11133553Y-4698553D01*
X11108553Y-4673553D02*
X11158553Y-4673553D01*
X11133553Y-5128553D02*
X11133553Y-5178553D01*
X11108553Y-5153553D02*
X11158553Y-5153553D01*
X11133553Y-11648553D02*
X11133553Y-11698553D01*
X11108553Y-11673553D02*
X11158553Y-11673553D01*
X11133553Y-12128553D02*
X11133553Y-12178553D01*
X11108553Y-12153553D02*
X11158553Y-12153553D01*
X11303259Y-4718848D02*
X11303259Y-4768848D01*
X11278259Y-4743848D02*
X11328259Y-4743848D01*
X11303259Y-5058259D02*
X11303259Y-5108259D01*
X11278259Y-5083259D02*
X11328259Y-5083259D01*
X11303259Y-11718848D02*
X11303259Y-11768848D01*
X11278259Y-11743848D02*
X11328259Y-11743848D01*
X11303259Y-12058259D02*
X11303259Y-12108259D01*
X11278259Y-12083259D02*
X11328259Y-12083259D01*
X11373553Y-4888553D02*
X11373553Y-4938553D01*
X11348553Y-4913553D02*
X11398553Y-4913553D01*
X11373553Y-11888553D02*
X11373553Y-11938553D01*
X11348553Y-11913553D02*
X11398553Y-11913553D01*
X13760000Y-7905000D02*
X13760000Y-7955000D01*
X13735000Y-7930000D02*
X13785000Y-7930000D01*
X13760000Y-8095000D02*
X13760000Y-8145000D01*
X13735000Y-8120000D02*
X13785000Y-8120000D01*
X17893553Y-4888553D02*
X17893553Y-4938553D01*
X17868553Y-4913553D02*
X17918553Y-4913553D01*
X17893553Y-11888553D02*
X17893553Y-11938553D01*
X17868553Y-11913553D02*
X17918553Y-11913553D01*
X17963848Y-4718848D02*
X17963848Y-4768848D01*
X17938848Y-4743848D02*
X17988848Y-4743848D01*
X17963848Y-5058259D02*
X17963848Y-5108259D01*
X17938848Y-5083259D02*
X17988848Y-5083259D01*
X17963848Y-11718848D02*
X17963848Y-11768848D01*
X17938848Y-11743848D02*
X17988848Y-11743848D01*
X17963848Y-12058259D02*
X17963848Y-12108259D01*
X17938848Y-12083259D02*
X17988848Y-12083259D01*
X18133553Y-4648553D02*
X18133553Y-4698553D01*
X18108553Y-4673553D02*
X18158553Y-4673553D01*
X18133553Y-5128553D02*
X18133553Y-5178553D01*
X18108553Y-5153553D02*
X18158553Y-5153553D01*
X18133553Y-11648553D02*
X18133553Y-11698553D01*
X18108553Y-11673553D02*
X18158553Y-11673553D01*
X18133553Y-12128553D02*
X18133553Y-12178553D01*
X18108553Y-12153553D02*
X18158553Y-12153553D01*
X18303259Y-4718848D02*
X18303259Y-4768848D01*
X18278259Y-4743848D02*
X18328259Y-4743848D01*
X18303259Y-5058259D02*
X18303259Y-5108259D01*
X18278259Y-5083259D02*
X18328259Y-5083259D01*
X18303259Y-11718848D02*
X18303259Y-11768848D01*
X18278259Y-11743848D02*
X18328259Y-11743848D01*
X18303259Y-12058259D02*
X18303259Y-12108259D01*
X18278259Y-12083259D02*
X18328259Y-12083259D01*
X18373553Y-4888553D02*
X18373553Y-4938553D01*
X18348553Y-4913553D02*
X18398553Y-4913553D01*
X18373553Y-11888553D02*
X18373553Y-11938553D01*
X18348553Y-11913553D02*
X18398553Y-11913553D01*
X17978713Y-5549213D02*
X17978713Y-5506787D01*
X17936287Y-5506787D01*
X17936287Y-5549213D01*
X17978713Y-5549213D01*
X17902500Y-5558000D02*
X18012500Y-5558000D01*
X18012500Y-5498000D02*
G75*
G02*
X18012500Y-5558000I0J-30000D01*
G01*
X18012500Y-5498000D02*
X17902500Y-5498000D01*
X17902500Y-5498000D02*
G75*
G03*
X17902500Y-5558000I0J-30000D01*
G01*
X17978713Y-6413213D02*
X17978713Y-6370787D01*
X17936287Y-6370787D01*
X17936287Y-6413213D01*
X17978713Y-6413213D01*
X17902500Y-6422000D02*
X18012500Y-6422000D01*
X18012500Y-6362000D02*
G75*
G02*
X18012500Y-6422000I0J-30000D01*
G01*
X18012500Y-6362000D02*
X17902500Y-6362000D01*
X17902500Y-6362000D02*
G75*
G03*
X17902500Y-6422000I0J-30000D01*
G01*
X18396713Y-5549213D02*
X18396713Y-5506787D01*
X18354287Y-5506787D01*
X18354287Y-5549213D01*
X18396713Y-5549213D01*
X18335500Y-5558000D02*
X18415500Y-5558000D01*
X18415500Y-5498000D02*
G75*
G02*
X18415500Y-5558000I0J-30000D01*
G01*
X18415500Y-5498000D02*
X18335500Y-5498000D01*
X18335500Y-5498000D02*
G75*
G03*
X18335500Y-5558000I0J-30000D01*
G01*
X18396713Y-6413213D02*
X18396713Y-6370787D01*
X18354287Y-6370787D01*
X18354287Y-6413213D01*
X18396713Y-6413213D01*
X18335500Y-6422000D02*
X18415500Y-6422000D01*
X18415500Y-6362000D02*
G75*
G02*
X18415500Y-6422000I0J-30000D01*
G01*
X18415500Y-6362000D02*
X18335500Y-6362000D01*
X18335500Y-6362000D02*
G75*
G03*
X18335500Y-6422000I0J-30000D01*
G01*
X11704000Y-4730000D02*
X11754000Y-4680000D01*
X11704000Y-4630000D01*
X11654000Y-4680000D01*
X11704000Y-4730000D01*
X11958000Y-4730000D02*
X12008000Y-4680000D01*
X11958000Y-4630000D01*
X11908000Y-4680000D01*
X11958000Y-4730000D01*
X12212000Y-4730000D02*
X12262000Y-4680000D01*
X12212000Y-4630000D01*
X12162000Y-4680000D01*
X12212000Y-4730000D01*
X12466000Y-4730000D02*
X12516000Y-4680000D01*
X12466000Y-4630000D01*
X12416000Y-4680000D01*
X12466000Y-4730000D01*
X12865000Y-4734000D02*
X12915000Y-4684000D01*
X12865000Y-4634000D01*
X12815000Y-4684000D01*
X12865000Y-4734000D01*
X12865000Y-4988000D02*
X12915000Y-4938000D01*
X12865000Y-4888000D01*
X12815000Y-4938000D01*
X12865000Y-4988000D01*
X12865000Y-5242000D02*
X12915000Y-5192000D01*
X12865000Y-5142000D01*
X12815000Y-5192000D01*
X12865000Y-5242000D01*
X12865000Y-5496000D02*
X12915000Y-5446000D01*
X12865000Y-5396000D01*
X12815000Y-5446000D01*
X12865000Y-5496000D01*
X13325000Y-9774000D02*
X13375000Y-9724000D01*
X13325000Y-9674000D01*
X13275000Y-9724000D01*
X13325000Y-9774000D01*
X13325000Y-10028000D02*
X13375000Y-9978000D01*
X13325000Y-9928000D01*
X13275000Y-9978000D01*
X13325000Y-10028000D01*
X13325000Y-10282000D02*
X13375000Y-10232000D01*
X13325000Y-10182000D01*
X13275000Y-10232000D01*
X13325000Y-10282000D01*
X13325000Y-10536000D02*
X13375000Y-10486000D01*
X13325000Y-10436000D01*
X13275000Y-10486000D01*
X13325000Y-10536000D01*
X14274000Y-9815000D02*
X14324000Y-9765000D01*
X14274000Y-9715000D01*
X14224000Y-9765000D01*
X14274000Y-9815000D01*
X14491000Y-6740000D02*
X14541000Y-6690000D01*
X14491000Y-6640000D01*
X14441000Y-6690000D01*
X14491000Y-6740000D01*
X14528000Y-9815000D02*
X14578000Y-9765000D01*
X14528000Y-9715000D01*
X14478000Y-9765000D01*
X14528000Y-9815000D01*
X14745000Y-6740000D02*
X14795000Y-6690000D01*
X14745000Y-6640000D01*
X14695000Y-6690000D01*
X14745000Y-6740000D01*
X14782000Y-9815000D02*
X14832000Y-9765000D01*
X14782000Y-9715000D01*
X14732000Y-9765000D01*
X14782000Y-9815000D01*
X14999000Y-6740000D02*
X15049000Y-6690000D01*
X14999000Y-6640000D01*
X14949000Y-6690000D01*
X14999000Y-6740000D01*
X15036000Y-9815000D02*
X15086000Y-9765000D01*
X15036000Y-9715000D01*
X14986000Y-9765000D01*
X15036000Y-9815000D01*
X16275000Y-4640000D02*
X16325000Y-4590000D01*
X16275000Y-4540000D01*
X16225000Y-4590000D01*
X16275000Y-4640000D01*
X16529000Y-4640000D02*
X16579000Y-4590000D01*
X16529000Y-4540000D01*
X16479000Y-4590000D01*
X16529000Y-4640000D01*
X16783000Y-4640000D02*
X16833000Y-4590000D01*
X16783000Y-4540000D01*
X16733000Y-4590000D01*
X16783000Y-4640000D01*
X17037000Y-4640000D02*
X17087000Y-4590000D01*
X17037000Y-4540000D01*
X16987000Y-4590000D01*
X17037000Y-4640000D01*
X17291000Y-4640000D02*
X17341000Y-4590000D01*
X17291000Y-4540000D01*
X17241000Y-4590000D01*
X17291000Y-4640000D01*
X17545000Y-4640000D02*
X17595000Y-4590000D01*
X17545000Y-4540000D01*
X17495000Y-4590000D01*
X17545000Y-4640000D01*
D13*
X11123250Y-9675000D02*
X11233250Y-9785000D01*
X11233250Y-9675000D02*
X11123250Y-9785000D01*
X11233250Y-9730000D02*
G75*
G02*
X11123250Y-9730000I-55000J0D01*
G01*
X11123250Y-9730000D02*
G75*
G02*
X11233250Y-9730000I55000J0D01*
G01*
X11123250Y-10175000D02*
X11233250Y-10285000D01*
X11233250Y-10175000D02*
X11123250Y-10285000D01*
X11233250Y-10230000D02*
G75*
G02*
X11123250Y-10230000I-55000J0D01*
G01*
X11123250Y-10230000D02*
G75*
G02*
X11233250Y-10230000I55000J0D01*
G01*
X14335500Y-11891750D02*
X14445500Y-12001750D01*
X14445500Y-11891750D02*
X14335500Y-12001750D01*
X14445500Y-11946750D02*
G75*
G02*
X14335500Y-11946750I-55000J0D01*
G01*
X14335500Y-11946750D02*
G75*
G02*
X14445500Y-11946750I55000J0D01*
G01*
X14835500Y-11891750D02*
X14945500Y-12001750D01*
X14945500Y-11891750D02*
X14835500Y-12001750D01*
X14945500Y-11946750D02*
G75*
G02*
X14835500Y-11946750I-55000J0D01*
G01*
X14835500Y-11946750D02*
G75*
G02*
X14945500Y-11946750I55000J0D01*
G01*
D14*
X10963250Y-5457500D02*
X11083250Y-5577500D01*
X11083250Y-5457500D02*
X10963250Y-5577500D01*
X11023250Y-5457500D02*
X11023250Y-5577500D01*
X10963250Y-5517500D02*
X11083250Y-5517500D01*
X10963250Y-5711500D02*
X11083250Y-5831500D01*
X11083250Y-5711500D02*
X10963250Y-5831500D01*
X11023250Y-5711500D02*
X11023250Y-5831500D01*
X10963250Y-5771500D02*
X11083250Y-5771500D01*
X10963250Y-6192500D02*
X11083250Y-6312500D01*
X11083250Y-6192500D02*
X10963250Y-6312500D01*
X11023250Y-6192500D02*
X11023250Y-6312500D01*
X10963250Y-6252500D02*
X11083250Y-6252500D01*
X10963250Y-6446500D02*
X11083250Y-6566500D01*
X11083250Y-6446500D02*
X10963250Y-6566500D01*
X11023250Y-6446500D02*
X11023250Y-6566500D01*
X10963250Y-6506500D02*
X11083250Y-6506500D01*
X11080000Y-10726000D02*
X11200000Y-10846000D01*
X11200000Y-10726000D02*
X11080000Y-10846000D01*
X11140000Y-10726000D02*
X11140000Y-10846000D01*
X11080000Y-10786000D02*
X11200000Y-10786000D01*
X11080000Y-10980000D02*
X11200000Y-11100000D01*
X11200000Y-10980000D02*
X11080000Y-11100000D01*
X11140000Y-10980000D02*
X11140000Y-11100000D01*
X11080000Y-11040000D02*
X11200000Y-11040000D01*
X11080000Y-11234000D02*
X11200000Y-11354000D01*
X11200000Y-11234000D02*
X11080000Y-11354000D01*
X11140000Y-11234000D02*
X11140000Y-11354000D01*
X11080000Y-11294000D02*
X11200000Y-11294000D01*
X11700000Y-11940000D02*
X11820000Y-12060000D01*
X11820000Y-11940000D02*
X11700000Y-12060000D01*
X11760000Y-11940000D02*
X11760000Y-12060000D01*
X11700000Y-12000000D02*
X11820000Y-12000000D01*
X11954000Y-11940000D02*
X12074000Y-12060000D01*
X12074000Y-11940000D02*
X11954000Y-12060000D01*
X12014000Y-11940000D02*
X12014000Y-12060000D01*
X11954000Y-12000000D02*
X12074000Y-12000000D01*
X12208000Y-11940000D02*
X12328000Y-12060000D01*
X12328000Y-11940000D02*
X12208000Y-12060000D01*
X12268000Y-11940000D02*
X12268000Y-12060000D01*
X12208000Y-12000000D02*
X12328000Y-12000000D01*
X12966250Y-11940000D02*
X13086250Y-12060000D01*
X13086250Y-11940000D02*
X12966250Y-12060000D01*
X13026250Y-11940000D02*
X13026250Y-12060000D01*
X12966250Y-12000000D02*
X13086250Y-12000000D01*
X13220250Y-11940000D02*
X13340250Y-12060000D01*
X13340250Y-11940000D02*
X13220250Y-12060000D01*
X13280250Y-11940000D02*
X13280250Y-12060000D01*
X13220250Y-12000000D02*
X13340250Y-12000000D01*
X13474250Y-11940000D02*
X13594250Y-12060000D01*
X13594250Y-11940000D02*
X13474250Y-12060000D01*
X13534250Y-11940000D02*
X13534250Y-12060000D01*
X13474250Y-12000000D02*
X13594250Y-12000000D01*
X15685750Y-11940000D02*
X15805750Y-12060000D01*
X15805750Y-11940000D02*
X15685750Y-12060000D01*
X15745750Y-11940000D02*
X15745750Y-12060000D01*
X15685750Y-12000000D02*
X15805750Y-12000000D01*
X15939750Y-11940000D02*
X16059750Y-12060000D01*
X16059750Y-11940000D02*
X15939750Y-12060000D01*
X15999750Y-11940000D02*
X15999750Y-12060000D01*
X15939750Y-12000000D02*
X16059750Y-12000000D01*
X16193750Y-11940000D02*
X16313750Y-12060000D01*
X16313750Y-11940000D02*
X16193750Y-12060000D01*
X16253750Y-11940000D02*
X16253750Y-12060000D01*
X16193750Y-12000000D02*
X16313750Y-12000000D01*
X16952000Y-11940000D02*
X17072000Y-12060000D01*
X17072000Y-11940000D02*
X16952000Y-12060000D01*
X17012000Y-11940000D02*
X17012000Y-12060000D01*
X16952000Y-12000000D02*
X17072000Y-12000000D01*
X17206000Y-11940000D02*
X17326000Y-12060000D01*
X17326000Y-11940000D02*
X17206000Y-12060000D01*
X17266000Y-11940000D02*
X17266000Y-12060000D01*
X17206000Y-12000000D02*
X17326000Y-12000000D01*
X17460000Y-11940000D02*
X17580000Y-12060000D01*
X17580000Y-11940000D02*
X17460000Y-12060000D01*
X17520000Y-11940000D02*
X17520000Y-12060000D01*
X17460000Y-12000000D02*
X17580000Y-12000000D01*
X18190000Y-10732000D02*
X18310000Y-10852000D01*
X18310000Y-10732000D02*
X18190000Y-10852000D01*
X18250000Y-10732000D02*
X18250000Y-10852000D01*
X18190000Y-10792000D02*
X18310000Y-10792000D01*
X18190000Y-10986000D02*
X18310000Y-11106000D01*
X18310000Y-10986000D02*
X18190000Y-11106000D01*
X18250000Y-10986000D02*
X18250000Y-11106000D01*
X18190000Y-11046000D02*
X18310000Y-11046000D01*
X18190000Y-11240000D02*
X18310000Y-11360000D01*
X18310000Y-11240000D02*
X18190000Y-11360000D01*
X18250000Y-11240000D02*
X18250000Y-11360000D01*
X18190000Y-11300000D02*
X18310000Y-11300000D01*
D15*
X10973553Y-4753553D02*
X11293553Y-5073553D01*
X11293553Y-4753553D02*
X10973553Y-5073553D01*
X11246692Y-5026692D02*
X11246692Y-4800415D01*
X11020415Y-4800415D01*
X11020415Y-5026692D01*
X11246692Y-5026692D01*
X10973553Y-11753553D02*
X11293553Y-12073553D01*
X11293553Y-11753553D02*
X10973553Y-12073553D01*
X11246692Y-12026692D02*
X11246692Y-11800415D01*
X11020415Y-11800415D01*
X11020415Y-12026692D01*
X11246692Y-12026692D01*
X17973553Y-4753553D02*
X18293553Y-5073553D01*
X18293553Y-4753553D02*
X17973553Y-5073553D01*
X18246692Y-5026692D02*
X18246692Y-4800415D01*
X18020415Y-4800415D01*
X18020415Y-5026692D01*
X18246692Y-5026692D01*
X17973553Y-11753553D02*
X18293553Y-12073553D01*
X18293553Y-11753553D02*
X17973553Y-12073553D01*
X18246692Y-12026692D02*
X18246692Y-11800415D01*
X18020415Y-11800415D01*
X18020415Y-12026692D01*
X18246692Y-12026692D01*
D11*
X10891830Y-12727537D02*
X10891830Y-12527537D01*
X10891830Y-12527537D02*
X10939449Y-12527537D01*
X10939449Y-12527537D02*
X10968021Y-12537061D01*
X10968021Y-12537061D02*
X10987068Y-12556109D01*
X10987068Y-12556109D02*
X10996592Y-12575156D01*
X10996592Y-12575156D02*
X11006116Y-12613251D01*
X11006116Y-12613251D02*
X11006116Y-12641823D01*
X11006116Y-12641823D02*
X10996592Y-12679918D01*
X10996592Y-12679918D02*
X10987068Y-12698966D01*
X10987068Y-12698966D02*
X10968021Y-12718013D01*
X10968021Y-12718013D02*
X10939449Y-12727537D01*
X10939449Y-12727537D02*
X10891830Y-12727537D01*
X11091830Y-12727537D02*
X11091830Y-12594204D01*
X11091830Y-12632299D02*
X11101354Y-12613251D01*
X11101354Y-12613251D02*
X11110878Y-12603728D01*
X11110878Y-12603728D02*
X11129925Y-12594204D01*
X11129925Y-12594204D02*
X11148973Y-12594204D01*
X11215640Y-12727537D02*
X11215640Y-12594204D01*
X11215640Y-12527537D02*
X11206116Y-12537061D01*
X11206116Y-12537061D02*
X11215640Y-12546585D01*
X11215640Y-12546585D02*
X11225163Y-12537061D01*
X11225163Y-12537061D02*
X11215640Y-12527537D01*
X11215640Y-12527537D02*
X11215640Y-12546585D01*
X11339449Y-12727537D02*
X11320402Y-12718013D01*
X11320402Y-12718013D02*
X11310878Y-12698966D01*
X11310878Y-12698966D02*
X11310878Y-12527537D01*
X11444211Y-12727537D02*
X11425163Y-12718013D01*
X11425163Y-12718013D02*
X11415640Y-12698966D01*
X11415640Y-12698966D02*
X11415640Y-12527537D01*
X11672783Y-12727537D02*
X11672783Y-12527537D01*
X11672783Y-12527537D02*
X11739449Y-12670394D01*
X11739449Y-12670394D02*
X11806116Y-12527537D01*
X11806116Y-12527537D02*
X11806116Y-12727537D01*
X11987068Y-12727537D02*
X11987068Y-12622775D01*
X11987068Y-12622775D02*
X11977544Y-12603728D01*
X11977544Y-12603728D02*
X11958497Y-12594204D01*
X11958497Y-12594204D02*
X11920402Y-12594204D01*
X11920402Y-12594204D02*
X11901354Y-12603728D01*
X11987068Y-12718013D02*
X11968021Y-12727537D01*
X11968021Y-12727537D02*
X11920402Y-12727537D01*
X11920402Y-12727537D02*
X11901354Y-12718013D01*
X11901354Y-12718013D02*
X11891830Y-12698966D01*
X11891830Y-12698966D02*
X11891830Y-12679918D01*
X11891830Y-12679918D02*
X11901354Y-12660870D01*
X11901354Y-12660870D02*
X11920402Y-12651347D01*
X11920402Y-12651347D02*
X11968021Y-12651347D01*
X11968021Y-12651347D02*
X11987068Y-12641823D01*
X12082306Y-12594204D02*
X12082306Y-12794204D01*
X12082306Y-12603728D02*
X12101354Y-12594204D01*
X12101354Y-12594204D02*
X12139449Y-12594204D01*
X12139449Y-12594204D02*
X12158497Y-12603728D01*
X12158497Y-12603728D02*
X12168021Y-12613251D01*
X12168021Y-12613251D02*
X12177544Y-12632299D01*
X12177544Y-12632299D02*
X12177544Y-12689442D01*
X12177544Y-12689442D02*
X12168021Y-12708489D01*
X12168021Y-12708489D02*
X12158497Y-12718013D01*
X12158497Y-12718013D02*
X12139449Y-12727537D01*
X12139449Y-12727537D02*
X12101354Y-12727537D01*
X12101354Y-12727537D02*
X12082306Y-12718013D01*
X12263259Y-12708489D02*
X12272783Y-12718013D01*
X12272783Y-12718013D02*
X12263259Y-12727537D01*
X12263259Y-12727537D02*
X12253735Y-12718013D01*
X12253735Y-12718013D02*
X12263259Y-12708489D01*
X12263259Y-12708489D02*
X12263259Y-12727537D01*
X12263259Y-12603728D02*
X12272783Y-12613251D01*
X12272783Y-12613251D02*
X12263259Y-12622775D01*
X12263259Y-12622775D02*
X12253735Y-12613251D01*
X12253735Y-12613251D02*
X12263259Y-12603728D01*
X12263259Y-12603728D02*
X12263259Y-12622775D01*
D12*
X10601053Y-13041053D02*
X10631053Y-13071053D01*
X10631053Y-13041053D02*
X10601053Y-13071053D01*
D11*
X10929925Y-12947537D02*
X10948973Y-12947537D01*
X10948973Y-12947537D02*
X10968021Y-12957061D01*
X10968021Y-12957061D02*
X10977545Y-12966585D01*
X10977545Y-12966585D02*
X10987068Y-12985632D01*
X10987068Y-12985632D02*
X10996592Y-13023728D01*
X10996592Y-13023728D02*
X10996592Y-13071347D01*
X10996592Y-13071347D02*
X10987068Y-13109442D01*
X10987068Y-13109442D02*
X10977545Y-13128489D01*
X10977545Y-13128489D02*
X10968021Y-13138013D01*
X10968021Y-13138013D02*
X10948973Y-13147537D01*
X10948973Y-13147537D02*
X10929925Y-13147537D01*
X10929925Y-13147537D02*
X10910878Y-13138013D01*
X10910878Y-13138013D02*
X10901354Y-13128489D01*
X10901354Y-13128489D02*
X10891830Y-13109442D01*
X10891830Y-13109442D02*
X10882306Y-13071347D01*
X10882306Y-13071347D02*
X10882306Y-13023728D01*
X10882306Y-13023728D02*
X10891830Y-12985632D01*
X10891830Y-12985632D02*
X10901354Y-12966585D01*
X10901354Y-12966585D02*
X10910878Y-12957061D01*
X10910878Y-12957061D02*
X10929925Y-12947537D01*
X11082306Y-13128489D02*
X11091830Y-13138013D01*
X11091830Y-13138013D02*
X11082306Y-13147537D01*
X11082306Y-13147537D02*
X11072783Y-13138013D01*
X11072783Y-13138013D02*
X11082306Y-13128489D01*
X11082306Y-13128489D02*
X11082306Y-13147537D01*
X11158497Y-12947537D02*
X11282306Y-12947537D01*
X11282306Y-12947537D02*
X11215640Y-13023728D01*
X11215640Y-13023728D02*
X11244211Y-13023728D01*
X11244211Y-13023728D02*
X11263259Y-13033251D01*
X11263259Y-13033251D02*
X11272783Y-13042775D01*
X11272783Y-13042775D02*
X11282306Y-13061823D01*
X11282306Y-13061823D02*
X11282306Y-13109442D01*
X11282306Y-13109442D02*
X11272783Y-13128489D01*
X11272783Y-13128489D02*
X11263259Y-13138013D01*
X11263259Y-13138013D02*
X11244211Y-13147537D01*
X11244211Y-13147537D02*
X11187068Y-13147537D01*
X11187068Y-13147537D02*
X11168021Y-13138013D01*
X11168021Y-13138013D02*
X11158497Y-13128489D01*
X11406116Y-12947537D02*
X11425164Y-12947537D01*
X11425164Y-12947537D02*
X11444211Y-12957061D01*
X11444211Y-12957061D02*
X11453735Y-12966585D01*
X11453735Y-12966585D02*
X11463259Y-12985632D01*
X11463259Y-12985632D02*
X11472783Y-13023728D01*
X11472783Y-13023728D02*
X11472783Y-13071347D01*
X11472783Y-13071347D02*
X11463259Y-13109442D01*
X11463259Y-13109442D02*
X11453735Y-13128489D01*
X11453735Y-13128489D02*
X11444211Y-13138013D01*
X11444211Y-13138013D02*
X11425164Y-13147537D01*
X11425164Y-13147537D02*
X11406116Y-13147537D01*
X11406116Y-13147537D02*
X11387068Y-13138013D01*
X11387068Y-13138013D02*
X11377544Y-13128489D01*
X11377544Y-13128489D02*
X11368021Y-13109442D01*
X11368021Y-13109442D02*
X11358497Y-13071347D01*
X11358497Y-13071347D02*
X11358497Y-13023728D01*
X11358497Y-13023728D02*
X11368021Y-12985632D01*
X11368021Y-12985632D02*
X11377544Y-12966585D01*
X11377544Y-12966585D02*
X11387068Y-12957061D01*
X11387068Y-12957061D02*
X11406116Y-12947537D01*
X11596592Y-12947537D02*
X11615640Y-12947537D01*
X11615640Y-12947537D02*
X11634687Y-12957061D01*
X11634687Y-12957061D02*
X11644211Y-12966585D01*
X11644211Y-12966585D02*
X11653735Y-12985632D01*
X11653735Y-12985632D02*
X11663259Y-13023728D01*
X11663259Y-13023728D02*
X11663259Y-13071347D01*
X11663259Y-13071347D02*
X11653735Y-13109442D01*
X11653735Y-13109442D02*
X11644211Y-13128489D01*
X11644211Y-13128489D02*
X11634687Y-13138013D01*
X11634687Y-13138013D02*
X11615640Y-13147537D01*
X11615640Y-13147537D02*
X11596592Y-13147537D01*
X11596592Y-13147537D02*
X11577544Y-13138013D01*
X11577544Y-13138013D02*
X11568021Y-13128489D01*
X11568021Y-13128489D02*
X11558497Y-13109442D01*
X11558497Y-13109442D02*
X11548973Y-13071347D01*
X11548973Y-13071347D02*
X11548973Y-13023728D01*
X11548973Y-13023728D02*
X11558497Y-12985632D01*
X11558497Y-12985632D02*
X11568021Y-12966585D01*
X11568021Y-12966585D02*
X11577544Y-12957061D01*
X11577544Y-12957061D02*
X11596592Y-12947537D01*
X11748973Y-13147537D02*
X11748973Y-13014204D01*
X11748973Y-13033251D02*
X11758497Y-13023728D01*
X11758497Y-13023728D02*
X11777544Y-13014204D01*
X11777544Y-13014204D02*
X11806116Y-13014204D01*
X11806116Y-13014204D02*
X11825164Y-13023728D01*
X11825164Y-13023728D02*
X11834687Y-13042775D01*
X11834687Y-13042775D02*
X11834687Y-13147537D01*
X11834687Y-13042775D02*
X11844211Y-13023728D01*
X11844211Y-13023728D02*
X11863259Y-13014204D01*
X11863259Y-13014204D02*
X11891830Y-13014204D01*
X11891830Y-13014204D02*
X11910878Y-13023728D01*
X11910878Y-13023728D02*
X11920402Y-13042775D01*
X11920402Y-13042775D02*
X11920402Y-13147537D01*
X12015640Y-13147537D02*
X12015640Y-13014204D01*
X12015640Y-13033251D02*
X12025164Y-13023728D01*
X12025164Y-13023728D02*
X12044211Y-13014204D01*
X12044211Y-13014204D02*
X12072783Y-13014204D01*
X12072783Y-13014204D02*
X12091830Y-13023728D01*
X12091830Y-13023728D02*
X12101354Y-13042775D01*
X12101354Y-13042775D02*
X12101354Y-13147537D01*
X12101354Y-13042775D02*
X12110878Y-13023728D01*
X12110878Y-13023728D02*
X12129925Y-13014204D01*
X12129925Y-13014204D02*
X12158497Y-13014204D01*
X12158497Y-13014204D02*
X12177545Y-13023728D01*
X12177545Y-13023728D02*
X12187068Y-13042775D01*
X12187068Y-13042775D02*
X12187068Y-13147537D01*
X12577545Y-12938013D02*
X12406116Y-13195156D01*
X12834687Y-12947537D02*
X12853735Y-12947537D01*
X12853735Y-12947537D02*
X12872783Y-12957061D01*
X12872783Y-12957061D02*
X12882307Y-12966585D01*
X12882307Y-12966585D02*
X12891830Y-12985632D01*
X12891830Y-12985632D02*
X12901354Y-13023728D01*
X12901354Y-13023728D02*
X12901354Y-13071347D01*
X12901354Y-13071347D02*
X12891830Y-13109442D01*
X12891830Y-13109442D02*
X12882307Y-13128489D01*
X12882307Y-13128489D02*
X12872783Y-13138013D01*
X12872783Y-13138013D02*
X12853735Y-13147537D01*
X12853735Y-13147537D02*
X12834687Y-13147537D01*
X12834687Y-13147537D02*
X12815640Y-13138013D01*
X12815640Y-13138013D02*
X12806116Y-13128489D01*
X12806116Y-13128489D02*
X12796592Y-13109442D01*
X12796592Y-13109442D02*
X12787068Y-13071347D01*
X12787068Y-13071347D02*
X12787068Y-13023728D01*
X12787068Y-13023728D02*
X12796592Y-12985632D01*
X12796592Y-12985632D02*
X12806116Y-12966585D01*
X12806116Y-12966585D02*
X12815640Y-12957061D01*
X12815640Y-12957061D02*
X12834687Y-12947537D01*
X12987068Y-13128489D02*
X12996592Y-13138013D01*
X12996592Y-13138013D02*
X12987068Y-13147537D01*
X12987068Y-13147537D02*
X12977545Y-13138013D01*
X12977545Y-13138013D02*
X12987068Y-13128489D01*
X12987068Y-13128489D02*
X12987068Y-13147537D01*
X13120402Y-12947537D02*
X13139449Y-12947537D01*
X13139449Y-12947537D02*
X13158497Y-12957061D01*
X13158497Y-12957061D02*
X13168021Y-12966585D01*
X13168021Y-12966585D02*
X13177545Y-12985632D01*
X13177545Y-12985632D02*
X13187068Y-13023728D01*
X13187068Y-13023728D02*
X13187068Y-13071347D01*
X13187068Y-13071347D02*
X13177545Y-13109442D01*
X13177545Y-13109442D02*
X13168021Y-13128489D01*
X13168021Y-13128489D02*
X13158497Y-13138013D01*
X13158497Y-13138013D02*
X13139449Y-13147537D01*
X13139449Y-13147537D02*
X13120402Y-13147537D01*
X13120402Y-13147537D02*
X13101354Y-13138013D01*
X13101354Y-13138013D02*
X13091830Y-13128489D01*
X13091830Y-13128489D02*
X13082307Y-13109442D01*
X13082307Y-13109442D02*
X13072783Y-13071347D01*
X13072783Y-13071347D02*
X13072783Y-13023728D01*
X13072783Y-13023728D02*
X13082307Y-12985632D01*
X13082307Y-12985632D02*
X13091830Y-12966585D01*
X13091830Y-12966585D02*
X13101354Y-12957061D01*
X13101354Y-12957061D02*
X13120402Y-12947537D01*
X13377545Y-13147537D02*
X13263259Y-13147537D01*
X13320402Y-13147537D02*
X13320402Y-12947537D01*
X13320402Y-12947537D02*
X13301354Y-12976109D01*
X13301354Y-12976109D02*
X13282307Y-12995156D01*
X13282307Y-12995156D02*
X13263259Y-13004680D01*
X13568021Y-13147537D02*
X13453735Y-13147537D01*
X13510878Y-13147537D02*
X13510878Y-12947537D01*
X13510878Y-12947537D02*
X13491830Y-12976109D01*
X13491830Y-12976109D02*
X13472783Y-12995156D01*
X13472783Y-12995156D02*
X13453735Y-13004680D01*
X13682307Y-13033251D02*
X13663259Y-13023728D01*
X13663259Y-13023728D02*
X13653735Y-13014204D01*
X13653735Y-13014204D02*
X13644211Y-12995156D01*
X13644211Y-12995156D02*
X13644211Y-12985632D01*
X13644211Y-12985632D02*
X13653735Y-12966585D01*
X13653735Y-12966585D02*
X13663259Y-12957061D01*
X13663259Y-12957061D02*
X13682307Y-12947537D01*
X13682307Y-12947537D02*
X13720402Y-12947537D01*
X13720402Y-12947537D02*
X13739449Y-12957061D01*
X13739449Y-12957061D02*
X13748973Y-12966585D01*
X13748973Y-12966585D02*
X13758497Y-12985632D01*
X13758497Y-12985632D02*
X13758497Y-12995156D01*
X13758497Y-12995156D02*
X13748973Y-13014204D01*
X13748973Y-13014204D02*
X13739449Y-13023728D01*
X13739449Y-13023728D02*
X13720402Y-13033251D01*
X13720402Y-13033251D02*
X13682307Y-13033251D01*
X13682307Y-13033251D02*
X13663259Y-13042775D01*
X13663259Y-13042775D02*
X13653735Y-13052299D01*
X13653735Y-13052299D02*
X13644211Y-13071347D01*
X13644211Y-13071347D02*
X13644211Y-13109442D01*
X13644211Y-13109442D02*
X13653735Y-13128489D01*
X13653735Y-13128489D02*
X13663259Y-13138013D01*
X13663259Y-13138013D02*
X13682307Y-13147537D01*
X13682307Y-13147537D02*
X13720402Y-13147537D01*
X13720402Y-13147537D02*
X13739449Y-13138013D01*
X13739449Y-13138013D02*
X13748973Y-13128489D01*
X13748973Y-13128489D02*
X13758497Y-13109442D01*
X13758497Y-13109442D02*
X13758497Y-13071347D01*
X13758497Y-13071347D02*
X13748973Y-13052299D01*
X13748973Y-13052299D02*
X13739449Y-13042775D01*
X13739449Y-13042775D02*
X13720402Y-13033251D01*
X13834688Y-12947537D02*
X13834688Y-12985632D01*
X13910878Y-12947537D02*
X13910878Y-12985632D01*
X14206116Y-13223728D02*
X14196592Y-13214204D01*
X14196592Y-13214204D02*
X14177545Y-13185632D01*
X14177545Y-13185632D02*
X14168021Y-13166585D01*
X14168021Y-13166585D02*
X14158497Y-13138013D01*
X14158497Y-13138013D02*
X14148973Y-13090394D01*
X14148973Y-13090394D02*
X14148973Y-13052299D01*
X14148973Y-13052299D02*
X14158497Y-13004680D01*
X14158497Y-13004680D02*
X14168021Y-12976109D01*
X14168021Y-12976109D02*
X14177545Y-12957061D01*
X14177545Y-12957061D02*
X14196592Y-12928489D01*
X14196592Y-12928489D02*
X14206116Y-12918966D01*
X14263259Y-12947537D02*
X14396592Y-12947537D01*
X14396592Y-12947537D02*
X14310878Y-13147537D01*
X14558497Y-13014204D02*
X14558497Y-13147537D01*
X14510878Y-12938013D02*
X14463259Y-13080870D01*
X14463259Y-13080870D02*
X14587069Y-13080870D01*
X14644211Y-12947537D02*
X14777545Y-12947537D01*
X14777545Y-12947537D02*
X14691830Y-13147537D01*
X15006116Y-13147537D02*
X15006116Y-12947537D01*
X15091831Y-13147537D02*
X15091831Y-13042775D01*
X15091831Y-13042775D02*
X15082307Y-13023728D01*
X15082307Y-13023728D02*
X15063259Y-13014204D01*
X15063259Y-13014204D02*
X15034688Y-13014204D01*
X15034688Y-13014204D02*
X15015640Y-13023728D01*
X15015640Y-13023728D02*
X15006116Y-13033251D01*
X15215640Y-13147537D02*
X15196592Y-13138013D01*
X15196592Y-13138013D02*
X15187069Y-13128489D01*
X15187069Y-13128489D02*
X15177545Y-13109442D01*
X15177545Y-13109442D02*
X15177545Y-13052299D01*
X15177545Y-13052299D02*
X15187069Y-13033251D01*
X15187069Y-13033251D02*
X15196592Y-13023728D01*
X15196592Y-13023728D02*
X15215640Y-13014204D01*
X15215640Y-13014204D02*
X15244212Y-13014204D01*
X15244212Y-13014204D02*
X15263259Y-13023728D01*
X15263259Y-13023728D02*
X15272783Y-13033251D01*
X15272783Y-13033251D02*
X15282307Y-13052299D01*
X15282307Y-13052299D02*
X15282307Y-13109442D01*
X15282307Y-13109442D02*
X15272783Y-13128489D01*
X15272783Y-13128489D02*
X15263259Y-13138013D01*
X15263259Y-13138013D02*
X15244212Y-13147537D01*
X15244212Y-13147537D02*
X15215640Y-13147537D01*
X15396592Y-13147537D02*
X15377545Y-13138013D01*
X15377545Y-13138013D02*
X15368021Y-13118966D01*
X15368021Y-13118966D02*
X15368021Y-12947537D01*
X15548973Y-13138013D02*
X15529926Y-13147537D01*
X15529926Y-13147537D02*
X15491831Y-13147537D01*
X15491831Y-13147537D02*
X15472783Y-13138013D01*
X15472783Y-13138013D02*
X15463259Y-13118966D01*
X15463259Y-13118966D02*
X15463259Y-13042775D01*
X15463259Y-13042775D02*
X15472783Y-13023728D01*
X15472783Y-13023728D02*
X15491831Y-13014204D01*
X15491831Y-13014204D02*
X15529926Y-13014204D01*
X15529926Y-13014204D02*
X15548973Y-13023728D01*
X15548973Y-13023728D02*
X15558497Y-13042775D01*
X15558497Y-13042775D02*
X15558497Y-13061823D01*
X15558497Y-13061823D02*
X15463259Y-13080870D01*
X15634688Y-13138013D02*
X15653735Y-13147537D01*
X15653735Y-13147537D02*
X15691831Y-13147537D01*
X15691831Y-13147537D02*
X15710878Y-13138013D01*
X15710878Y-13138013D02*
X15720402Y-13118966D01*
X15720402Y-13118966D02*
X15720402Y-13109442D01*
X15720402Y-13109442D02*
X15710878Y-13090394D01*
X15710878Y-13090394D02*
X15691831Y-13080870D01*
X15691831Y-13080870D02*
X15663259Y-13080870D01*
X15663259Y-13080870D02*
X15644212Y-13071347D01*
X15644212Y-13071347D02*
X15634688Y-13052299D01*
X15634688Y-13052299D02*
X15634688Y-13042775D01*
X15634688Y-13042775D02*
X15644212Y-13023728D01*
X15644212Y-13023728D02*
X15663259Y-13014204D01*
X15663259Y-13014204D02*
X15691831Y-13014204D01*
X15691831Y-13014204D02*
X15710878Y-13023728D01*
X15787069Y-13223728D02*
X15796593Y-13214204D01*
X15796593Y-13214204D02*
X15815640Y-13185632D01*
X15815640Y-13185632D02*
X15825164Y-13166585D01*
X15825164Y-13166585D02*
X15834688Y-13138013D01*
X15834688Y-13138013D02*
X15844212Y-13090394D01*
X15844212Y-13090394D02*
X15844212Y-13052299D01*
X15844212Y-13052299D02*
X15834688Y-13004680D01*
X15834688Y-13004680D02*
X15825164Y-12976109D01*
X15825164Y-12976109D02*
X15815640Y-12957061D01*
X15815640Y-12957061D02*
X15796593Y-12928489D01*
X15796593Y-12928489D02*
X15787069Y-12918966D01*
D12*
X10631053Y-13320053D02*
G75*
G02*
X10591053Y-13320053I-20000J0D01*
G01*
X10591053Y-13320053D02*
G75*
G02*
X10631053Y-13320053I20000J0D01*
G01*
D11*
X10929925Y-13211537D02*
X10948973Y-13211537D01*
X10948973Y-13211537D02*
X10968021Y-13221061D01*
X10968021Y-13221061D02*
X10977545Y-13230585D01*
X10977545Y-13230585D02*
X10987068Y-13249632D01*
X10987068Y-13249632D02*
X10996592Y-13287728D01*
X10996592Y-13287728D02*
X10996592Y-13335347D01*
X10996592Y-13335347D02*
X10987068Y-13373442D01*
X10987068Y-13373442D02*
X10977545Y-13392489D01*
X10977545Y-13392489D02*
X10968021Y-13402013D01*
X10968021Y-13402013D02*
X10948973Y-13411537D01*
X10948973Y-13411537D02*
X10929925Y-13411537D01*
X10929925Y-13411537D02*
X10910878Y-13402013D01*
X10910878Y-13402013D02*
X10901354Y-13392489D01*
X10901354Y-13392489D02*
X10891830Y-13373442D01*
X10891830Y-13373442D02*
X10882306Y-13335347D01*
X10882306Y-13335347D02*
X10882306Y-13287728D01*
X10882306Y-13287728D02*
X10891830Y-13249632D01*
X10891830Y-13249632D02*
X10901354Y-13230585D01*
X10901354Y-13230585D02*
X10910878Y-13221061D01*
X10910878Y-13221061D02*
X10929925Y-13211537D01*
X11082306Y-13392489D02*
X11091830Y-13402013D01*
X11091830Y-13402013D02*
X11082306Y-13411537D01*
X11082306Y-13411537D02*
X11072783Y-13402013D01*
X11072783Y-13402013D02*
X11082306Y-13392489D01*
X11082306Y-13392489D02*
X11082306Y-13411537D01*
X11263259Y-13278204D02*
X11263259Y-13411537D01*
X11215640Y-13202013D02*
X11168021Y-13344870D01*
X11168021Y-13344870D02*
X11291830Y-13344870D01*
X11406116Y-13211537D02*
X11425164Y-13211537D01*
X11425164Y-13211537D02*
X11444211Y-13221061D01*
X11444211Y-13221061D02*
X11453735Y-13230585D01*
X11453735Y-13230585D02*
X11463259Y-13249632D01*
X11463259Y-13249632D02*
X11472783Y-13287728D01*
X11472783Y-13287728D02*
X11472783Y-13335347D01*
X11472783Y-13335347D02*
X11463259Y-13373442D01*
X11463259Y-13373442D02*
X11453735Y-13392489D01*
X11453735Y-13392489D02*
X11444211Y-13402013D01*
X11444211Y-13402013D02*
X11425164Y-13411537D01*
X11425164Y-13411537D02*
X11406116Y-13411537D01*
X11406116Y-13411537D02*
X11387068Y-13402013D01*
X11387068Y-13402013D02*
X11377544Y-13392489D01*
X11377544Y-13392489D02*
X11368021Y-13373442D01*
X11368021Y-13373442D02*
X11358497Y-13335347D01*
X11358497Y-13335347D02*
X11358497Y-13287728D01*
X11358497Y-13287728D02*
X11368021Y-13249632D01*
X11368021Y-13249632D02*
X11377544Y-13230585D01*
X11377544Y-13230585D02*
X11387068Y-13221061D01*
X11387068Y-13221061D02*
X11406116Y-13211537D01*
X11596592Y-13211537D02*
X11615640Y-13211537D01*
X11615640Y-13211537D02*
X11634687Y-13221061D01*
X11634687Y-13221061D02*
X11644211Y-13230585D01*
X11644211Y-13230585D02*
X11653735Y-13249632D01*
X11653735Y-13249632D02*
X11663259Y-13287728D01*
X11663259Y-13287728D02*
X11663259Y-13335347D01*
X11663259Y-13335347D02*
X11653735Y-13373442D01*
X11653735Y-13373442D02*
X11644211Y-13392489D01*
X11644211Y-13392489D02*
X11634687Y-13402013D01*
X11634687Y-13402013D02*
X11615640Y-13411537D01*
X11615640Y-13411537D02*
X11596592Y-13411537D01*
X11596592Y-13411537D02*
X11577544Y-13402013D01*
X11577544Y-13402013D02*
X11568021Y-13392489D01*
X11568021Y-13392489D02*
X11558497Y-13373442D01*
X11558497Y-13373442D02*
X11548973Y-13335347D01*
X11548973Y-13335347D02*
X11548973Y-13287728D01*
X11548973Y-13287728D02*
X11558497Y-13249632D01*
X11558497Y-13249632D02*
X11568021Y-13230585D01*
X11568021Y-13230585D02*
X11577544Y-13221061D01*
X11577544Y-13221061D02*
X11596592Y-13211537D01*
X11748973Y-13411537D02*
X11748973Y-13278204D01*
X11748973Y-13297251D02*
X11758497Y-13287728D01*
X11758497Y-13287728D02*
X11777544Y-13278204D01*
X11777544Y-13278204D02*
X11806116Y-13278204D01*
X11806116Y-13278204D02*
X11825164Y-13287728D01*
X11825164Y-13287728D02*
X11834687Y-13306775D01*
X11834687Y-13306775D02*
X11834687Y-13411537D01*
X11834687Y-13306775D02*
X11844211Y-13287728D01*
X11844211Y-13287728D02*
X11863259Y-13278204D01*
X11863259Y-13278204D02*
X11891830Y-13278204D01*
X11891830Y-13278204D02*
X11910878Y-13287728D01*
X11910878Y-13287728D02*
X11920402Y-13306775D01*
X11920402Y-13306775D02*
X11920402Y-13411537D01*
X12015640Y-13411537D02*
X12015640Y-13278204D01*
X12015640Y-13297251D02*
X12025164Y-13287728D01*
X12025164Y-13287728D02*
X12044211Y-13278204D01*
X12044211Y-13278204D02*
X12072783Y-13278204D01*
X12072783Y-13278204D02*
X12091830Y-13287728D01*
X12091830Y-13287728D02*
X12101354Y-13306775D01*
X12101354Y-13306775D02*
X12101354Y-13411537D01*
X12101354Y-13306775D02*
X12110878Y-13287728D01*
X12110878Y-13287728D02*
X12129925Y-13278204D01*
X12129925Y-13278204D02*
X12158497Y-13278204D01*
X12158497Y-13278204D02*
X12177545Y-13287728D01*
X12177545Y-13287728D02*
X12187068Y-13306775D01*
X12187068Y-13306775D02*
X12187068Y-13411537D01*
X12577545Y-13202013D02*
X12406116Y-13459156D01*
X12834687Y-13211537D02*
X12853735Y-13211537D01*
X12853735Y-13211537D02*
X12872783Y-13221061D01*
X12872783Y-13221061D02*
X12882307Y-13230585D01*
X12882307Y-13230585D02*
X12891830Y-13249632D01*
X12891830Y-13249632D02*
X12901354Y-13287728D01*
X12901354Y-13287728D02*
X12901354Y-13335347D01*
X12901354Y-13335347D02*
X12891830Y-13373442D01*
X12891830Y-13373442D02*
X12882307Y-13392489D01*
X12882307Y-13392489D02*
X12872783Y-13402013D01*
X12872783Y-13402013D02*
X12853735Y-13411537D01*
X12853735Y-13411537D02*
X12834687Y-13411537D01*
X12834687Y-13411537D02*
X12815640Y-13402013D01*
X12815640Y-13402013D02*
X12806116Y-13392489D01*
X12806116Y-13392489D02*
X12796592Y-13373442D01*
X12796592Y-13373442D02*
X12787068Y-13335347D01*
X12787068Y-13335347D02*
X12787068Y-13287728D01*
X12787068Y-13287728D02*
X12796592Y-13249632D01*
X12796592Y-13249632D02*
X12806116Y-13230585D01*
X12806116Y-13230585D02*
X12815640Y-13221061D01*
X12815640Y-13221061D02*
X12834687Y-13211537D01*
X12987068Y-13392489D02*
X12996592Y-13402013D01*
X12996592Y-13402013D02*
X12987068Y-13411537D01*
X12987068Y-13411537D02*
X12977545Y-13402013D01*
X12977545Y-13402013D02*
X12987068Y-13392489D01*
X12987068Y-13392489D02*
X12987068Y-13411537D01*
X13120402Y-13211537D02*
X13139449Y-13211537D01*
X13139449Y-13211537D02*
X13158497Y-13221061D01*
X13158497Y-13221061D02*
X13168021Y-13230585D01*
X13168021Y-13230585D02*
X13177545Y-13249632D01*
X13177545Y-13249632D02*
X13187068Y-13287728D01*
X13187068Y-13287728D02*
X13187068Y-13335347D01*
X13187068Y-13335347D02*
X13177545Y-13373442D01*
X13177545Y-13373442D02*
X13168021Y-13392489D01*
X13168021Y-13392489D02*
X13158497Y-13402013D01*
X13158497Y-13402013D02*
X13139449Y-13411537D01*
X13139449Y-13411537D02*
X13120402Y-13411537D01*
X13120402Y-13411537D02*
X13101354Y-13402013D01*
X13101354Y-13402013D02*
X13091830Y-13392489D01*
X13091830Y-13392489D02*
X13082307Y-13373442D01*
X13082307Y-13373442D02*
X13072783Y-13335347D01*
X13072783Y-13335347D02*
X13072783Y-13287728D01*
X13072783Y-13287728D02*
X13082307Y-13249632D01*
X13082307Y-13249632D02*
X13091830Y-13230585D01*
X13091830Y-13230585D02*
X13101354Y-13221061D01*
X13101354Y-13221061D02*
X13120402Y-13211537D01*
X13377545Y-13411537D02*
X13263259Y-13411537D01*
X13320402Y-13411537D02*
X13320402Y-13211537D01*
X13320402Y-13211537D02*
X13301354Y-13240109D01*
X13301354Y-13240109D02*
X13282307Y-13259156D01*
X13282307Y-13259156D02*
X13263259Y-13268680D01*
X13558497Y-13211537D02*
X13463259Y-13211537D01*
X13463259Y-13211537D02*
X13453735Y-13306775D01*
X13453735Y-13306775D02*
X13463259Y-13297251D01*
X13463259Y-13297251D02*
X13482307Y-13287728D01*
X13482307Y-13287728D02*
X13529926Y-13287728D01*
X13529926Y-13287728D02*
X13548973Y-13297251D01*
X13548973Y-13297251D02*
X13558497Y-13306775D01*
X13558497Y-13306775D02*
X13568021Y-13325823D01*
X13568021Y-13325823D02*
X13568021Y-13373442D01*
X13568021Y-13373442D02*
X13558497Y-13392489D01*
X13558497Y-13392489D02*
X13548973Y-13402013D01*
X13548973Y-13402013D02*
X13529926Y-13411537D01*
X13529926Y-13411537D02*
X13482307Y-13411537D01*
X13482307Y-13411537D02*
X13463259Y-13402013D01*
X13463259Y-13402013D02*
X13453735Y-13392489D01*
X13634688Y-13211537D02*
X13768021Y-13211537D01*
X13768021Y-13211537D02*
X13682307Y-13411537D01*
X13834688Y-13211537D02*
X13834688Y-13249632D01*
X13910878Y-13211537D02*
X13910878Y-13249632D01*
X14206116Y-13487728D02*
X14196592Y-13478204D01*
X14196592Y-13478204D02*
X14177545Y-13449632D01*
X14177545Y-13449632D02*
X14168021Y-13430585D01*
X14168021Y-13430585D02*
X14158497Y-13402013D01*
X14158497Y-13402013D02*
X14148973Y-13354394D01*
X14148973Y-13354394D02*
X14148973Y-13316299D01*
X14148973Y-13316299D02*
X14158497Y-13268680D01*
X14158497Y-13268680D02*
X14168021Y-13240109D01*
X14168021Y-13240109D02*
X14177545Y-13221061D01*
X14177545Y-13221061D02*
X14196592Y-13192489D01*
X14196592Y-13192489D02*
X14206116Y-13182966D01*
X14272783Y-13230585D02*
X14282307Y-13221061D01*
X14282307Y-13221061D02*
X14301354Y-13211537D01*
X14301354Y-13211537D02*
X14348973Y-13211537D01*
X14348973Y-13211537D02*
X14368021Y-13221061D01*
X14368021Y-13221061D02*
X14377545Y-13230585D01*
X14377545Y-13230585D02*
X14387069Y-13249632D01*
X14387069Y-13249632D02*
X14387069Y-13268680D01*
X14387069Y-13268680D02*
X14377545Y-13297251D01*
X14377545Y-13297251D02*
X14263259Y-13411537D01*
X14263259Y-13411537D02*
X14387069Y-13411537D01*
X14625164Y-13411537D02*
X14625164Y-13211537D01*
X14710878Y-13411537D02*
X14710878Y-13306775D01*
X14710878Y-13306775D02*
X14701354Y-13287728D01*
X14701354Y-13287728D02*
X14682307Y-13278204D01*
X14682307Y-13278204D02*
X14653735Y-13278204D01*
X14653735Y-13278204D02*
X14634688Y-13287728D01*
X14634688Y-13287728D02*
X14625164Y-13297251D01*
X14834688Y-13411537D02*
X14815640Y-13402013D01*
X14815640Y-13402013D02*
X14806116Y-13392489D01*
X14806116Y-13392489D02*
X14796592Y-13373442D01*
X14796592Y-13373442D02*
X14796592Y-13316299D01*
X14796592Y-13316299D02*
X14806116Y-13297251D01*
X14806116Y-13297251D02*
X14815640Y-13287728D01*
X14815640Y-13287728D02*
X14834688Y-13278204D01*
X14834688Y-13278204D02*
X14863259Y-13278204D01*
X14863259Y-13278204D02*
X14882307Y-13287728D01*
X14882307Y-13287728D02*
X14891831Y-13297251D01*
X14891831Y-13297251D02*
X14901354Y-13316299D01*
X14901354Y-13316299D02*
X14901354Y-13373442D01*
X14901354Y-13373442D02*
X14891831Y-13392489D01*
X14891831Y-13392489D02*
X14882307Y-13402013D01*
X14882307Y-13402013D02*
X14863259Y-13411537D01*
X14863259Y-13411537D02*
X14834688Y-13411537D01*
X15015640Y-13411537D02*
X14996592Y-13402013D01*
X14996592Y-13402013D02*
X14987069Y-13382966D01*
X14987069Y-13382966D02*
X14987069Y-13211537D01*
X15168021Y-13402013D02*
X15148973Y-13411537D01*
X15148973Y-13411537D02*
X15110878Y-13411537D01*
X15110878Y-13411537D02*
X15091831Y-13402013D01*
X15091831Y-13402013D02*
X15082307Y-13382966D01*
X15082307Y-13382966D02*
X15082307Y-13306775D01*
X15082307Y-13306775D02*
X15091831Y-13287728D01*
X15091831Y-13287728D02*
X15110878Y-13278204D01*
X15110878Y-13278204D02*
X15148973Y-13278204D01*
X15148973Y-13278204D02*
X15168021Y-13287728D01*
X15168021Y-13287728D02*
X15177545Y-13306775D01*
X15177545Y-13306775D02*
X15177545Y-13325823D01*
X15177545Y-13325823D02*
X15082307Y-13344870D01*
X15253735Y-13402013D02*
X15272783Y-13411537D01*
X15272783Y-13411537D02*
X15310878Y-13411537D01*
X15310878Y-13411537D02*
X15329926Y-13402013D01*
X15329926Y-13402013D02*
X15339450Y-13382966D01*
X15339450Y-13382966D02*
X15339450Y-13373442D01*
X15339450Y-13373442D02*
X15329926Y-13354394D01*
X15329926Y-13354394D02*
X15310878Y-13344870D01*
X15310878Y-13344870D02*
X15282307Y-13344870D01*
X15282307Y-13344870D02*
X15263259Y-13335347D01*
X15263259Y-13335347D02*
X15253735Y-13316299D01*
X15253735Y-13316299D02*
X15253735Y-13306775D01*
X15253735Y-13306775D02*
X15263259Y-13287728D01*
X15263259Y-13287728D02*
X15282307Y-13278204D01*
X15282307Y-13278204D02*
X15310878Y-13278204D01*
X15310878Y-13278204D02*
X15329926Y-13287728D01*
X15406116Y-13487728D02*
X15415640Y-13478204D01*
X15415640Y-13478204D02*
X15434688Y-13449632D01*
X15434688Y-13449632D02*
X15444212Y-13430585D01*
X15444212Y-13430585D02*
X15453735Y-13402013D01*
X15453735Y-13402013D02*
X15463259Y-13354394D01*
X15463259Y-13354394D02*
X15463259Y-13316299D01*
X15463259Y-13316299D02*
X15453735Y-13268680D01*
X15453735Y-13268680D02*
X15444212Y-13240109D01*
X15444212Y-13240109D02*
X15434688Y-13221061D01*
X15434688Y-13221061D02*
X15415640Y-13192489D01*
X15415640Y-13192489D02*
X15406116Y-13182966D01*
D12*
X10606053Y-13559053D02*
X10606053Y-13609053D01*
X10581053Y-13584053D02*
X10631053Y-13584053D01*
D11*
X10929925Y-13475537D02*
X10948973Y-13475537D01*
X10948973Y-13475537D02*
X10968021Y-13485061D01*
X10968021Y-13485061D02*
X10977545Y-13494585D01*
X10977545Y-13494585D02*
X10987068Y-13513632D01*
X10987068Y-13513632D02*
X10996592Y-13551728D01*
X10996592Y-13551728D02*
X10996592Y-13599347D01*
X10996592Y-13599347D02*
X10987068Y-13637442D01*
X10987068Y-13637442D02*
X10977545Y-13656489D01*
X10977545Y-13656489D02*
X10968021Y-13666013D01*
X10968021Y-13666013D02*
X10948973Y-13675537D01*
X10948973Y-13675537D02*
X10929925Y-13675537D01*
X10929925Y-13675537D02*
X10910878Y-13666013D01*
X10910878Y-13666013D02*
X10901354Y-13656489D01*
X10901354Y-13656489D02*
X10891830Y-13637442D01*
X10891830Y-13637442D02*
X10882306Y-13599347D01*
X10882306Y-13599347D02*
X10882306Y-13551728D01*
X10882306Y-13551728D02*
X10891830Y-13513632D01*
X10891830Y-13513632D02*
X10901354Y-13494585D01*
X10901354Y-13494585D02*
X10910878Y-13485061D01*
X10910878Y-13485061D02*
X10929925Y-13475537D01*
X11082306Y-13656489D02*
X11091830Y-13666013D01*
X11091830Y-13666013D02*
X11082306Y-13675537D01*
X11082306Y-13675537D02*
X11072783Y-13666013D01*
X11072783Y-13666013D02*
X11082306Y-13656489D01*
X11082306Y-13656489D02*
X11082306Y-13675537D01*
X11272783Y-13475537D02*
X11177545Y-13475537D01*
X11177545Y-13475537D02*
X11168021Y-13570775D01*
X11168021Y-13570775D02*
X11177545Y-13561251D01*
X11177545Y-13561251D02*
X11196592Y-13551728D01*
X11196592Y-13551728D02*
X11244211Y-13551728D01*
X11244211Y-13551728D02*
X11263259Y-13561251D01*
X11263259Y-13561251D02*
X11272783Y-13570775D01*
X11272783Y-13570775D02*
X11282306Y-13589823D01*
X11282306Y-13589823D02*
X11282306Y-13637442D01*
X11282306Y-13637442D02*
X11272783Y-13656489D01*
X11272783Y-13656489D02*
X11263259Y-13666013D01*
X11263259Y-13666013D02*
X11244211Y-13675537D01*
X11244211Y-13675537D02*
X11196592Y-13675537D01*
X11196592Y-13675537D02*
X11177545Y-13666013D01*
X11177545Y-13666013D02*
X11168021Y-13656489D01*
X11406116Y-13475537D02*
X11425164Y-13475537D01*
X11425164Y-13475537D02*
X11444211Y-13485061D01*
X11444211Y-13485061D02*
X11453735Y-13494585D01*
X11453735Y-13494585D02*
X11463259Y-13513632D01*
X11463259Y-13513632D02*
X11472783Y-13551728D01*
X11472783Y-13551728D02*
X11472783Y-13599347D01*
X11472783Y-13599347D02*
X11463259Y-13637442D01*
X11463259Y-13637442D02*
X11453735Y-13656489D01*
X11453735Y-13656489D02*
X11444211Y-13666013D01*
X11444211Y-13666013D02*
X11425164Y-13675537D01*
X11425164Y-13675537D02*
X11406116Y-13675537D01*
X11406116Y-13675537D02*
X11387068Y-13666013D01*
X11387068Y-13666013D02*
X11377544Y-13656489D01*
X11377544Y-13656489D02*
X11368021Y-13637442D01*
X11368021Y-13637442D02*
X11358497Y-13599347D01*
X11358497Y-13599347D02*
X11358497Y-13551728D01*
X11358497Y-13551728D02*
X11368021Y-13513632D01*
X11368021Y-13513632D02*
X11377544Y-13494585D01*
X11377544Y-13494585D02*
X11387068Y-13485061D01*
X11387068Y-13485061D02*
X11406116Y-13475537D01*
X11596592Y-13475537D02*
X11615640Y-13475537D01*
X11615640Y-13475537D02*
X11634687Y-13485061D01*
X11634687Y-13485061D02*
X11644211Y-13494585D01*
X11644211Y-13494585D02*
X11653735Y-13513632D01*
X11653735Y-13513632D02*
X11663259Y-13551728D01*
X11663259Y-13551728D02*
X11663259Y-13599347D01*
X11663259Y-13599347D02*
X11653735Y-13637442D01*
X11653735Y-13637442D02*
X11644211Y-13656489D01*
X11644211Y-13656489D02*
X11634687Y-13666013D01*
X11634687Y-13666013D02*
X11615640Y-13675537D01*
X11615640Y-13675537D02*
X11596592Y-13675537D01*
X11596592Y-13675537D02*
X11577544Y-13666013D01*
X11577544Y-13666013D02*
X11568021Y-13656489D01*
X11568021Y-13656489D02*
X11558497Y-13637442D01*
X11558497Y-13637442D02*
X11548973Y-13599347D01*
X11548973Y-13599347D02*
X11548973Y-13551728D01*
X11548973Y-13551728D02*
X11558497Y-13513632D01*
X11558497Y-13513632D02*
X11568021Y-13494585D01*
X11568021Y-13494585D02*
X11577544Y-13485061D01*
X11577544Y-13485061D02*
X11596592Y-13475537D01*
X11748973Y-13675537D02*
X11748973Y-13542204D01*
X11748973Y-13561251D02*
X11758497Y-13551728D01*
X11758497Y-13551728D02*
X11777544Y-13542204D01*
X11777544Y-13542204D02*
X11806116Y-13542204D01*
X11806116Y-13542204D02*
X11825164Y-13551728D01*
X11825164Y-13551728D02*
X11834687Y-13570775D01*
X11834687Y-13570775D02*
X11834687Y-13675537D01*
X11834687Y-13570775D02*
X11844211Y-13551728D01*
X11844211Y-13551728D02*
X11863259Y-13542204D01*
X11863259Y-13542204D02*
X11891830Y-13542204D01*
X11891830Y-13542204D02*
X11910878Y-13551728D01*
X11910878Y-13551728D02*
X11920402Y-13570775D01*
X11920402Y-13570775D02*
X11920402Y-13675537D01*
X12015640Y-13675537D02*
X12015640Y-13542204D01*
X12015640Y-13561251D02*
X12025164Y-13551728D01*
X12025164Y-13551728D02*
X12044211Y-13542204D01*
X12044211Y-13542204D02*
X12072783Y-13542204D01*
X12072783Y-13542204D02*
X12091830Y-13551728D01*
X12091830Y-13551728D02*
X12101354Y-13570775D01*
X12101354Y-13570775D02*
X12101354Y-13675537D01*
X12101354Y-13570775D02*
X12110878Y-13551728D01*
X12110878Y-13551728D02*
X12129925Y-13542204D01*
X12129925Y-13542204D02*
X12158497Y-13542204D01*
X12158497Y-13542204D02*
X12177545Y-13551728D01*
X12177545Y-13551728D02*
X12187068Y-13570775D01*
X12187068Y-13570775D02*
X12187068Y-13675537D01*
X12577545Y-13466013D02*
X12406116Y-13723156D01*
X12834687Y-13475537D02*
X12853735Y-13475537D01*
X12853735Y-13475537D02*
X12872783Y-13485061D01*
X12872783Y-13485061D02*
X12882307Y-13494585D01*
X12882307Y-13494585D02*
X12891830Y-13513632D01*
X12891830Y-13513632D02*
X12901354Y-13551728D01*
X12901354Y-13551728D02*
X12901354Y-13599347D01*
X12901354Y-13599347D02*
X12891830Y-13637442D01*
X12891830Y-13637442D02*
X12882307Y-13656489D01*
X12882307Y-13656489D02*
X12872783Y-13666013D01*
X12872783Y-13666013D02*
X12853735Y-13675537D01*
X12853735Y-13675537D02*
X12834687Y-13675537D01*
X12834687Y-13675537D02*
X12815640Y-13666013D01*
X12815640Y-13666013D02*
X12806116Y-13656489D01*
X12806116Y-13656489D02*
X12796592Y-13637442D01*
X12796592Y-13637442D02*
X12787068Y-13599347D01*
X12787068Y-13599347D02*
X12787068Y-13551728D01*
X12787068Y-13551728D02*
X12796592Y-13513632D01*
X12796592Y-13513632D02*
X12806116Y-13494585D01*
X12806116Y-13494585D02*
X12815640Y-13485061D01*
X12815640Y-13485061D02*
X12834687Y-13475537D01*
X12987068Y-13656489D02*
X12996592Y-13666013D01*
X12996592Y-13666013D02*
X12987068Y-13675537D01*
X12987068Y-13675537D02*
X12977545Y-13666013D01*
X12977545Y-13666013D02*
X12987068Y-13656489D01*
X12987068Y-13656489D02*
X12987068Y-13675537D01*
X13120402Y-13475537D02*
X13139449Y-13475537D01*
X13139449Y-13475537D02*
X13158497Y-13485061D01*
X13158497Y-13485061D02*
X13168021Y-13494585D01*
X13168021Y-13494585D02*
X13177545Y-13513632D01*
X13177545Y-13513632D02*
X13187068Y-13551728D01*
X13187068Y-13551728D02*
X13187068Y-13599347D01*
X13187068Y-13599347D02*
X13177545Y-13637442D01*
X13177545Y-13637442D02*
X13168021Y-13656489D01*
X13168021Y-13656489D02*
X13158497Y-13666013D01*
X13158497Y-13666013D02*
X13139449Y-13675537D01*
X13139449Y-13675537D02*
X13120402Y-13675537D01*
X13120402Y-13675537D02*
X13101354Y-13666013D01*
X13101354Y-13666013D02*
X13091830Y-13656489D01*
X13091830Y-13656489D02*
X13082307Y-13637442D01*
X13082307Y-13637442D02*
X13072783Y-13599347D01*
X13072783Y-13599347D02*
X13072783Y-13551728D01*
X13072783Y-13551728D02*
X13082307Y-13513632D01*
X13082307Y-13513632D02*
X13091830Y-13494585D01*
X13091830Y-13494585D02*
X13101354Y-13485061D01*
X13101354Y-13485061D02*
X13120402Y-13475537D01*
X13377545Y-13675537D02*
X13263259Y-13675537D01*
X13320402Y-13675537D02*
X13320402Y-13475537D01*
X13320402Y-13475537D02*
X13301354Y-13504109D01*
X13301354Y-13504109D02*
X13282307Y-13523156D01*
X13282307Y-13523156D02*
X13263259Y-13532680D01*
X13472783Y-13675537D02*
X13510878Y-13675537D01*
X13510878Y-13675537D02*
X13529926Y-13666013D01*
X13529926Y-13666013D02*
X13539449Y-13656489D01*
X13539449Y-13656489D02*
X13558497Y-13627918D01*
X13558497Y-13627918D02*
X13568021Y-13589823D01*
X13568021Y-13589823D02*
X13568021Y-13513632D01*
X13568021Y-13513632D02*
X13558497Y-13494585D01*
X13558497Y-13494585D02*
X13548973Y-13485061D01*
X13548973Y-13485061D02*
X13529926Y-13475537D01*
X13529926Y-13475537D02*
X13491830Y-13475537D01*
X13491830Y-13475537D02*
X13472783Y-13485061D01*
X13472783Y-13485061D02*
X13463259Y-13494585D01*
X13463259Y-13494585D02*
X13453735Y-13513632D01*
X13453735Y-13513632D02*
X13453735Y-13561251D01*
X13453735Y-13561251D02*
X13463259Y-13580299D01*
X13463259Y-13580299D02*
X13472783Y-13589823D01*
X13472783Y-13589823D02*
X13491830Y-13599347D01*
X13491830Y-13599347D02*
X13529926Y-13599347D01*
X13529926Y-13599347D02*
X13548973Y-13589823D01*
X13548973Y-13589823D02*
X13558497Y-13580299D01*
X13558497Y-13580299D02*
X13568021Y-13561251D01*
X13634688Y-13475537D02*
X13768021Y-13475537D01*
X13768021Y-13475537D02*
X13682307Y-13675537D01*
X13834688Y-13475537D02*
X13834688Y-13513632D01*
X13910878Y-13475537D02*
X13910878Y-13513632D01*
X14206116Y-13751728D02*
X14196592Y-13742204D01*
X14196592Y-13742204D02*
X14177545Y-13713632D01*
X14177545Y-13713632D02*
X14168021Y-13694585D01*
X14168021Y-13694585D02*
X14158497Y-13666013D01*
X14158497Y-13666013D02*
X14148973Y-13618394D01*
X14148973Y-13618394D02*
X14148973Y-13580299D01*
X14148973Y-13580299D02*
X14158497Y-13532680D01*
X14158497Y-13532680D02*
X14168021Y-13504109D01*
X14168021Y-13504109D02*
X14177545Y-13485061D01*
X14177545Y-13485061D02*
X14196592Y-13456489D01*
X14196592Y-13456489D02*
X14206116Y-13446966D01*
X14263259Y-13475537D02*
X14387069Y-13475537D01*
X14387069Y-13475537D02*
X14320402Y-13551728D01*
X14320402Y-13551728D02*
X14348973Y-13551728D01*
X14348973Y-13551728D02*
X14368021Y-13561251D01*
X14368021Y-13561251D02*
X14377545Y-13570775D01*
X14377545Y-13570775D02*
X14387069Y-13589823D01*
X14387069Y-13589823D02*
X14387069Y-13637442D01*
X14387069Y-13637442D02*
X14377545Y-13656489D01*
X14377545Y-13656489D02*
X14368021Y-13666013D01*
X14368021Y-13666013D02*
X14348973Y-13675537D01*
X14348973Y-13675537D02*
X14291830Y-13675537D01*
X14291830Y-13675537D02*
X14272783Y-13666013D01*
X14272783Y-13666013D02*
X14263259Y-13656489D01*
X14558497Y-13542204D02*
X14558497Y-13675537D01*
X14510878Y-13466013D02*
X14463259Y-13608870D01*
X14463259Y-13608870D02*
X14587069Y-13608870D01*
X14815640Y-13675537D02*
X14815640Y-13475537D01*
X14901354Y-13675537D02*
X14901354Y-13570775D01*
X14901354Y-13570775D02*
X14891831Y-13551728D01*
X14891831Y-13551728D02*
X14872783Y-13542204D01*
X14872783Y-13542204D02*
X14844211Y-13542204D01*
X14844211Y-13542204D02*
X14825164Y-13551728D01*
X14825164Y-13551728D02*
X14815640Y-13561251D01*
X15025164Y-13675537D02*
X15006116Y-13666013D01*
X15006116Y-13666013D02*
X14996592Y-13656489D01*
X14996592Y-13656489D02*
X14987069Y-13637442D01*
X14987069Y-13637442D02*
X14987069Y-13580299D01*
X14987069Y-13580299D02*
X14996592Y-13561251D01*
X14996592Y-13561251D02*
X15006116Y-13551728D01*
X15006116Y-13551728D02*
X15025164Y-13542204D01*
X15025164Y-13542204D02*
X15053735Y-13542204D01*
X15053735Y-13542204D02*
X15072783Y-13551728D01*
X15072783Y-13551728D02*
X15082307Y-13561251D01*
X15082307Y-13561251D02*
X15091831Y-13580299D01*
X15091831Y-13580299D02*
X15091831Y-13637442D01*
X15091831Y-13637442D02*
X15082307Y-13656489D01*
X15082307Y-13656489D02*
X15072783Y-13666013D01*
X15072783Y-13666013D02*
X15053735Y-13675537D01*
X15053735Y-13675537D02*
X15025164Y-13675537D01*
X15206116Y-13675537D02*
X15187069Y-13666013D01*
X15187069Y-13666013D02*
X15177545Y-13646966D01*
X15177545Y-13646966D02*
X15177545Y-13475537D01*
X15358497Y-13666013D02*
X15339450Y-13675537D01*
X15339450Y-13675537D02*
X15301354Y-13675537D01*
X15301354Y-13675537D02*
X15282307Y-13666013D01*
X15282307Y-13666013D02*
X15272783Y-13646966D01*
X15272783Y-13646966D02*
X15272783Y-13570775D01*
X15272783Y-13570775D02*
X15282307Y-13551728D01*
X15282307Y-13551728D02*
X15301354Y-13542204D01*
X15301354Y-13542204D02*
X15339450Y-13542204D01*
X15339450Y-13542204D02*
X15358497Y-13551728D01*
X15358497Y-13551728D02*
X15368021Y-13570775D01*
X15368021Y-13570775D02*
X15368021Y-13589823D01*
X15368021Y-13589823D02*
X15272783Y-13608870D01*
X15444212Y-13666013D02*
X15463259Y-13675537D01*
X15463259Y-13675537D02*
X15501354Y-13675537D01*
X15501354Y-13675537D02*
X15520402Y-13666013D01*
X15520402Y-13666013D02*
X15529926Y-13646966D01*
X15529926Y-13646966D02*
X15529926Y-13637442D01*
X15529926Y-13637442D02*
X15520402Y-13618394D01*
X15520402Y-13618394D02*
X15501354Y-13608870D01*
X15501354Y-13608870D02*
X15472783Y-13608870D01*
X15472783Y-13608870D02*
X15453735Y-13599347D01*
X15453735Y-13599347D02*
X15444212Y-13580299D01*
X15444212Y-13580299D02*
X15444212Y-13570775D01*
X15444212Y-13570775D02*
X15453735Y-13551728D01*
X15453735Y-13551728D02*
X15472783Y-13542204D01*
X15472783Y-13542204D02*
X15501354Y-13542204D01*
X15501354Y-13542204D02*
X15520402Y-13551728D01*
X15596593Y-13751728D02*
X15606116Y-13742204D01*
X15606116Y-13742204D02*
X15625164Y-13713632D01*
X15625164Y-13713632D02*
X15634688Y-13694585D01*
X15634688Y-13694585D02*
X15644212Y-13666013D01*
X15644212Y-13666013D02*
X15653735Y-13618394D01*
X15653735Y-13618394D02*
X15653735Y-13580299D01*
X15653735Y-13580299D02*
X15644212Y-13532680D01*
X15644212Y-13532680D02*
X15634688Y-13504109D01*
X15634688Y-13504109D02*
X15625164Y-13485061D01*
X15625164Y-13485061D02*
X15606116Y-13456489D01*
X15606116Y-13456489D02*
X15596593Y-13446966D01*
D12*
X10622267Y-13869267D02*
X10622267Y-13826840D01*
X10579840Y-13826840D01*
X10579840Y-13869267D01*
X10622267Y-13869267D01*
D11*
X10929925Y-13739537D02*
X10948973Y-13739537D01*
X10948973Y-13739537D02*
X10968021Y-13749061D01*
X10968021Y-13749061D02*
X10977545Y-13758585D01*
X10977545Y-13758585D02*
X10987068Y-13777632D01*
X10987068Y-13777632D02*
X10996592Y-13815728D01*
X10996592Y-13815728D02*
X10996592Y-13863347D01*
X10996592Y-13863347D02*
X10987068Y-13901442D01*
X10987068Y-13901442D02*
X10977545Y-13920489D01*
X10977545Y-13920489D02*
X10968021Y-13930013D01*
X10968021Y-13930013D02*
X10948973Y-13939537D01*
X10948973Y-13939537D02*
X10929925Y-13939537D01*
X10929925Y-13939537D02*
X10910878Y-13930013D01*
X10910878Y-13930013D02*
X10901354Y-13920489D01*
X10901354Y-13920489D02*
X10891830Y-13901442D01*
X10891830Y-13901442D02*
X10882306Y-13863347D01*
X10882306Y-13863347D02*
X10882306Y-13815728D01*
X10882306Y-13815728D02*
X10891830Y-13777632D01*
X10891830Y-13777632D02*
X10901354Y-13758585D01*
X10901354Y-13758585D02*
X10910878Y-13749061D01*
X10910878Y-13749061D02*
X10929925Y-13739537D01*
X11082306Y-13920489D02*
X11091830Y-13930013D01*
X11091830Y-13930013D02*
X11082306Y-13939537D01*
X11082306Y-13939537D02*
X11072783Y-13930013D01*
X11072783Y-13930013D02*
X11082306Y-13920489D01*
X11082306Y-13920489D02*
X11082306Y-13939537D01*
X11263259Y-13739537D02*
X11225163Y-13739537D01*
X11225163Y-13739537D02*
X11206116Y-13749061D01*
X11206116Y-13749061D02*
X11196592Y-13758585D01*
X11196592Y-13758585D02*
X11177545Y-13787156D01*
X11177545Y-13787156D02*
X11168021Y-13825251D01*
X11168021Y-13825251D02*
X11168021Y-13901442D01*
X11168021Y-13901442D02*
X11177545Y-13920489D01*
X11177545Y-13920489D02*
X11187068Y-13930013D01*
X11187068Y-13930013D02*
X11206116Y-13939537D01*
X11206116Y-13939537D02*
X11244211Y-13939537D01*
X11244211Y-13939537D02*
X11263259Y-13930013D01*
X11263259Y-13930013D02*
X11272783Y-13920489D01*
X11272783Y-13920489D02*
X11282306Y-13901442D01*
X11282306Y-13901442D02*
X11282306Y-13853823D01*
X11282306Y-13853823D02*
X11272783Y-13834775D01*
X11272783Y-13834775D02*
X11263259Y-13825251D01*
X11263259Y-13825251D02*
X11244211Y-13815728D01*
X11244211Y-13815728D02*
X11206116Y-13815728D01*
X11206116Y-13815728D02*
X11187068Y-13825251D01*
X11187068Y-13825251D02*
X11177545Y-13834775D01*
X11177545Y-13834775D02*
X11168021Y-13853823D01*
X11406116Y-13739537D02*
X11425164Y-13739537D01*
X11425164Y-13739537D02*
X11444211Y-13749061D01*
X11444211Y-13749061D02*
X11453735Y-13758585D01*
X11453735Y-13758585D02*
X11463259Y-13777632D01*
X11463259Y-13777632D02*
X11472783Y-13815728D01*
X11472783Y-13815728D02*
X11472783Y-13863347D01*
X11472783Y-13863347D02*
X11463259Y-13901442D01*
X11463259Y-13901442D02*
X11453735Y-13920489D01*
X11453735Y-13920489D02*
X11444211Y-13930013D01*
X11444211Y-13930013D02*
X11425164Y-13939537D01*
X11425164Y-13939537D02*
X11406116Y-13939537D01*
X11406116Y-13939537D02*
X11387068Y-13930013D01*
X11387068Y-13930013D02*
X11377544Y-13920489D01*
X11377544Y-13920489D02*
X11368021Y-13901442D01*
X11368021Y-13901442D02*
X11358497Y-13863347D01*
X11358497Y-13863347D02*
X11358497Y-13815728D01*
X11358497Y-13815728D02*
X11368021Y-13777632D01*
X11368021Y-13777632D02*
X11377544Y-13758585D01*
X11377544Y-13758585D02*
X11387068Y-13749061D01*
X11387068Y-13749061D02*
X11406116Y-13739537D01*
X11596592Y-13739537D02*
X11615640Y-13739537D01*
X11615640Y-13739537D02*
X11634687Y-13749061D01*
X11634687Y-13749061D02*
X11644211Y-13758585D01*
X11644211Y-13758585D02*
X11653735Y-13777632D01*
X11653735Y-13777632D02*
X11663259Y-13815728D01*
X11663259Y-13815728D02*
X11663259Y-13863347D01*
X11663259Y-13863347D02*
X11653735Y-13901442D01*
X11653735Y-13901442D02*
X11644211Y-13920489D01*
X11644211Y-13920489D02*
X11634687Y-13930013D01*
X11634687Y-13930013D02*
X11615640Y-13939537D01*
X11615640Y-13939537D02*
X11596592Y-13939537D01*
X11596592Y-13939537D02*
X11577544Y-13930013D01*
X11577544Y-13930013D02*
X11568021Y-13920489D01*
X11568021Y-13920489D02*
X11558497Y-13901442D01*
X11558497Y-13901442D02*
X11548973Y-13863347D01*
X11548973Y-13863347D02*
X11548973Y-13815728D01*
X11548973Y-13815728D02*
X11558497Y-13777632D01*
X11558497Y-13777632D02*
X11568021Y-13758585D01*
X11568021Y-13758585D02*
X11577544Y-13749061D01*
X11577544Y-13749061D02*
X11596592Y-13739537D01*
X11748973Y-13939537D02*
X11748973Y-13806204D01*
X11748973Y-13825251D02*
X11758497Y-13815728D01*
X11758497Y-13815728D02*
X11777544Y-13806204D01*
X11777544Y-13806204D02*
X11806116Y-13806204D01*
X11806116Y-13806204D02*
X11825164Y-13815728D01*
X11825164Y-13815728D02*
X11834687Y-13834775D01*
X11834687Y-13834775D02*
X11834687Y-13939537D01*
X11834687Y-13834775D02*
X11844211Y-13815728D01*
X11844211Y-13815728D02*
X11863259Y-13806204D01*
X11863259Y-13806204D02*
X11891830Y-13806204D01*
X11891830Y-13806204D02*
X11910878Y-13815728D01*
X11910878Y-13815728D02*
X11920402Y-13834775D01*
X11920402Y-13834775D02*
X11920402Y-13939537D01*
X12015640Y-13939537D02*
X12015640Y-13806204D01*
X12015640Y-13825251D02*
X12025164Y-13815728D01*
X12025164Y-13815728D02*
X12044211Y-13806204D01*
X12044211Y-13806204D02*
X12072783Y-13806204D01*
X12072783Y-13806204D02*
X12091830Y-13815728D01*
X12091830Y-13815728D02*
X12101354Y-13834775D01*
X12101354Y-13834775D02*
X12101354Y-13939537D01*
X12101354Y-13834775D02*
X12110878Y-13815728D01*
X12110878Y-13815728D02*
X12129925Y-13806204D01*
X12129925Y-13806204D02*
X12158497Y-13806204D01*
X12158497Y-13806204D02*
X12177545Y-13815728D01*
X12177545Y-13815728D02*
X12187068Y-13834775D01*
X12187068Y-13834775D02*
X12187068Y-13939537D01*
X12577545Y-13730013D02*
X12406116Y-13987156D01*
X12834687Y-13739537D02*
X12853735Y-13739537D01*
X12853735Y-13739537D02*
X12872783Y-13749061D01*
X12872783Y-13749061D02*
X12882307Y-13758585D01*
X12882307Y-13758585D02*
X12891830Y-13777632D01*
X12891830Y-13777632D02*
X12901354Y-13815728D01*
X12901354Y-13815728D02*
X12901354Y-13863347D01*
X12901354Y-13863347D02*
X12891830Y-13901442D01*
X12891830Y-13901442D02*
X12882307Y-13920489D01*
X12882307Y-13920489D02*
X12872783Y-13930013D01*
X12872783Y-13930013D02*
X12853735Y-13939537D01*
X12853735Y-13939537D02*
X12834687Y-13939537D01*
X12834687Y-13939537D02*
X12815640Y-13930013D01*
X12815640Y-13930013D02*
X12806116Y-13920489D01*
X12806116Y-13920489D02*
X12796592Y-13901442D01*
X12796592Y-13901442D02*
X12787068Y-13863347D01*
X12787068Y-13863347D02*
X12787068Y-13815728D01*
X12787068Y-13815728D02*
X12796592Y-13777632D01*
X12796592Y-13777632D02*
X12806116Y-13758585D01*
X12806116Y-13758585D02*
X12815640Y-13749061D01*
X12815640Y-13749061D02*
X12834687Y-13739537D01*
X12987068Y-13920489D02*
X12996592Y-13930013D01*
X12996592Y-13930013D02*
X12987068Y-13939537D01*
X12987068Y-13939537D02*
X12977545Y-13930013D01*
X12977545Y-13930013D02*
X12987068Y-13920489D01*
X12987068Y-13920489D02*
X12987068Y-13939537D01*
X13120402Y-13739537D02*
X13139449Y-13739537D01*
X13139449Y-13739537D02*
X13158497Y-13749061D01*
X13158497Y-13749061D02*
X13168021Y-13758585D01*
X13168021Y-13758585D02*
X13177545Y-13777632D01*
X13177545Y-13777632D02*
X13187068Y-13815728D01*
X13187068Y-13815728D02*
X13187068Y-13863347D01*
X13187068Y-13863347D02*
X13177545Y-13901442D01*
X13177545Y-13901442D02*
X13168021Y-13920489D01*
X13168021Y-13920489D02*
X13158497Y-13930013D01*
X13158497Y-13930013D02*
X13139449Y-13939537D01*
X13139449Y-13939537D02*
X13120402Y-13939537D01*
X13120402Y-13939537D02*
X13101354Y-13930013D01*
X13101354Y-13930013D02*
X13091830Y-13920489D01*
X13091830Y-13920489D02*
X13082307Y-13901442D01*
X13082307Y-13901442D02*
X13072783Y-13863347D01*
X13072783Y-13863347D02*
X13072783Y-13815728D01*
X13072783Y-13815728D02*
X13082307Y-13777632D01*
X13082307Y-13777632D02*
X13091830Y-13758585D01*
X13091830Y-13758585D02*
X13101354Y-13749061D01*
X13101354Y-13749061D02*
X13120402Y-13739537D01*
X13263259Y-13758585D02*
X13272783Y-13749061D01*
X13272783Y-13749061D02*
X13291830Y-13739537D01*
X13291830Y-13739537D02*
X13339449Y-13739537D01*
X13339449Y-13739537D02*
X13358497Y-13749061D01*
X13358497Y-13749061D02*
X13368021Y-13758585D01*
X13368021Y-13758585D02*
X13377545Y-13777632D01*
X13377545Y-13777632D02*
X13377545Y-13796680D01*
X13377545Y-13796680D02*
X13368021Y-13825251D01*
X13368021Y-13825251D02*
X13253735Y-13939537D01*
X13253735Y-13939537D02*
X13377545Y-13939537D01*
X13444211Y-13739537D02*
X13568021Y-13739537D01*
X13568021Y-13739537D02*
X13501354Y-13815728D01*
X13501354Y-13815728D02*
X13529926Y-13815728D01*
X13529926Y-13815728D02*
X13548973Y-13825251D01*
X13548973Y-13825251D02*
X13558497Y-13834775D01*
X13558497Y-13834775D02*
X13568021Y-13853823D01*
X13568021Y-13853823D02*
X13568021Y-13901442D01*
X13568021Y-13901442D02*
X13558497Y-13920489D01*
X13558497Y-13920489D02*
X13548973Y-13930013D01*
X13548973Y-13930013D02*
X13529926Y-13939537D01*
X13529926Y-13939537D02*
X13472783Y-13939537D01*
X13472783Y-13939537D02*
X13453735Y-13930013D01*
X13453735Y-13930013D02*
X13444211Y-13920489D01*
X13739449Y-13739537D02*
X13701354Y-13739537D01*
X13701354Y-13739537D02*
X13682307Y-13749061D01*
X13682307Y-13749061D02*
X13672783Y-13758585D01*
X13672783Y-13758585D02*
X13653735Y-13787156D01*
X13653735Y-13787156D02*
X13644211Y-13825251D01*
X13644211Y-13825251D02*
X13644211Y-13901442D01*
X13644211Y-13901442D02*
X13653735Y-13920489D01*
X13653735Y-13920489D02*
X13663259Y-13930013D01*
X13663259Y-13930013D02*
X13682307Y-13939537D01*
X13682307Y-13939537D02*
X13720402Y-13939537D01*
X13720402Y-13939537D02*
X13739449Y-13930013D01*
X13739449Y-13930013D02*
X13748973Y-13920489D01*
X13748973Y-13920489D02*
X13758497Y-13901442D01*
X13758497Y-13901442D02*
X13758497Y-13853823D01*
X13758497Y-13853823D02*
X13748973Y-13834775D01*
X13748973Y-13834775D02*
X13739449Y-13825251D01*
X13739449Y-13825251D02*
X13720402Y-13815728D01*
X13720402Y-13815728D02*
X13682307Y-13815728D01*
X13682307Y-13815728D02*
X13663259Y-13825251D01*
X13663259Y-13825251D02*
X13653735Y-13834775D01*
X13653735Y-13834775D02*
X13644211Y-13853823D01*
X13834688Y-13739537D02*
X13834688Y-13777632D01*
X13910878Y-13739537D02*
X13910878Y-13777632D01*
X14206116Y-14015728D02*
X14196592Y-14006204D01*
X14196592Y-14006204D02*
X14177545Y-13977632D01*
X14177545Y-13977632D02*
X14168021Y-13958585D01*
X14168021Y-13958585D02*
X14158497Y-13930013D01*
X14158497Y-13930013D02*
X14148973Y-13882394D01*
X14148973Y-13882394D02*
X14148973Y-13844299D01*
X14148973Y-13844299D02*
X14158497Y-13796680D01*
X14158497Y-13796680D02*
X14168021Y-13768109D01*
X14168021Y-13768109D02*
X14177545Y-13749061D01*
X14177545Y-13749061D02*
X14196592Y-13720489D01*
X14196592Y-13720489D02*
X14206116Y-13710966D01*
X14320402Y-13739537D02*
X14339450Y-13739537D01*
X14339450Y-13739537D02*
X14358497Y-13749061D01*
X14358497Y-13749061D02*
X14368021Y-13758585D01*
X14368021Y-13758585D02*
X14377545Y-13777632D01*
X14377545Y-13777632D02*
X14387069Y-13815728D01*
X14387069Y-13815728D02*
X14387069Y-13863347D01*
X14387069Y-13863347D02*
X14377545Y-13901442D01*
X14377545Y-13901442D02*
X14368021Y-13920489D01*
X14368021Y-13920489D02*
X14358497Y-13930013D01*
X14358497Y-13930013D02*
X14339450Y-13939537D01*
X14339450Y-13939537D02*
X14320402Y-13939537D01*
X14320402Y-13939537D02*
X14301354Y-13930013D01*
X14301354Y-13930013D02*
X14291830Y-13920489D01*
X14291830Y-13920489D02*
X14282307Y-13901442D01*
X14282307Y-13901442D02*
X14272783Y-13863347D01*
X14272783Y-13863347D02*
X14272783Y-13815728D01*
X14272783Y-13815728D02*
X14282307Y-13777632D01*
X14282307Y-13777632D02*
X14291830Y-13758585D01*
X14291830Y-13758585D02*
X14301354Y-13749061D01*
X14301354Y-13749061D02*
X14320402Y-13739537D01*
X14625164Y-13939537D02*
X14625164Y-13739537D01*
X14710878Y-13939537D02*
X14710878Y-13834775D01*
X14710878Y-13834775D02*
X14701354Y-13815728D01*
X14701354Y-13815728D02*
X14682307Y-13806204D01*
X14682307Y-13806204D02*
X14653735Y-13806204D01*
X14653735Y-13806204D02*
X14634688Y-13815728D01*
X14634688Y-13815728D02*
X14625164Y-13825251D01*
X14834688Y-13939537D02*
X14815640Y-13930013D01*
X14815640Y-13930013D02*
X14806116Y-13920489D01*
X14806116Y-13920489D02*
X14796592Y-13901442D01*
X14796592Y-13901442D02*
X14796592Y-13844299D01*
X14796592Y-13844299D02*
X14806116Y-13825251D01*
X14806116Y-13825251D02*
X14815640Y-13815728D01*
X14815640Y-13815728D02*
X14834688Y-13806204D01*
X14834688Y-13806204D02*
X14863259Y-13806204D01*
X14863259Y-13806204D02*
X14882307Y-13815728D01*
X14882307Y-13815728D02*
X14891831Y-13825251D01*
X14891831Y-13825251D02*
X14901354Y-13844299D01*
X14901354Y-13844299D02*
X14901354Y-13901442D01*
X14901354Y-13901442D02*
X14891831Y-13920489D01*
X14891831Y-13920489D02*
X14882307Y-13930013D01*
X14882307Y-13930013D02*
X14863259Y-13939537D01*
X14863259Y-13939537D02*
X14834688Y-13939537D01*
X15015640Y-13939537D02*
X14996592Y-13930013D01*
X14996592Y-13930013D02*
X14987069Y-13910966D01*
X14987069Y-13910966D02*
X14987069Y-13739537D01*
X15168021Y-13930013D02*
X15148973Y-13939537D01*
X15148973Y-13939537D02*
X15110878Y-13939537D01*
X15110878Y-13939537D02*
X15091831Y-13930013D01*
X15091831Y-13930013D02*
X15082307Y-13910966D01*
X15082307Y-13910966D02*
X15082307Y-13834775D01*
X15082307Y-13834775D02*
X15091831Y-13815728D01*
X15091831Y-13815728D02*
X15110878Y-13806204D01*
X15110878Y-13806204D02*
X15148973Y-13806204D01*
X15148973Y-13806204D02*
X15168021Y-13815728D01*
X15168021Y-13815728D02*
X15177545Y-13834775D01*
X15177545Y-13834775D02*
X15177545Y-13853823D01*
X15177545Y-13853823D02*
X15082307Y-13872870D01*
X15253735Y-13930013D02*
X15272783Y-13939537D01*
X15272783Y-13939537D02*
X15310878Y-13939537D01*
X15310878Y-13939537D02*
X15329926Y-13930013D01*
X15329926Y-13930013D02*
X15339450Y-13910966D01*
X15339450Y-13910966D02*
X15339450Y-13901442D01*
X15339450Y-13901442D02*
X15329926Y-13882394D01*
X15329926Y-13882394D02*
X15310878Y-13872870D01*
X15310878Y-13872870D02*
X15282307Y-13872870D01*
X15282307Y-13872870D02*
X15263259Y-13863347D01*
X15263259Y-13863347D02*
X15253735Y-13844299D01*
X15253735Y-13844299D02*
X15253735Y-13834775D01*
X15253735Y-13834775D02*
X15263259Y-13815728D01*
X15263259Y-13815728D02*
X15282307Y-13806204D01*
X15282307Y-13806204D02*
X15310878Y-13806204D01*
X15310878Y-13806204D02*
X15329926Y-13815728D01*
X15577545Y-13863347D02*
X15729926Y-13863347D01*
X15653735Y-13939537D02*
X15653735Y-13787156D01*
X16063259Y-13806204D02*
X16063259Y-13939537D01*
X16015640Y-13730013D02*
X15968021Y-13872870D01*
X15968021Y-13872870D02*
X16091831Y-13872870D01*
X16310878Y-13930013D02*
X16329926Y-13939537D01*
X16329926Y-13939537D02*
X16368021Y-13939537D01*
X16368021Y-13939537D02*
X16387069Y-13930013D01*
X16387069Y-13930013D02*
X16396593Y-13910966D01*
X16396593Y-13910966D02*
X16396593Y-13901442D01*
X16396593Y-13901442D02*
X16387069Y-13882394D01*
X16387069Y-13882394D02*
X16368021Y-13872870D01*
X16368021Y-13872870D02*
X16339450Y-13872870D01*
X16339450Y-13872870D02*
X16320402Y-13863347D01*
X16320402Y-13863347D02*
X16310878Y-13844299D01*
X16310878Y-13844299D02*
X16310878Y-13834775D01*
X16310878Y-13834775D02*
X16320402Y-13815728D01*
X16320402Y-13815728D02*
X16339450Y-13806204D01*
X16339450Y-13806204D02*
X16368021Y-13806204D01*
X16368021Y-13806204D02*
X16387069Y-13815728D01*
X16510878Y-13939537D02*
X16491831Y-13930013D01*
X16491831Y-13930013D02*
X16482307Y-13910966D01*
X16482307Y-13910966D02*
X16482307Y-13739537D01*
X16615640Y-13939537D02*
X16596593Y-13930013D01*
X16596593Y-13930013D02*
X16587069Y-13920489D01*
X16587069Y-13920489D02*
X16577545Y-13901442D01*
X16577545Y-13901442D02*
X16577545Y-13844299D01*
X16577545Y-13844299D02*
X16587069Y-13825251D01*
X16587069Y-13825251D02*
X16596593Y-13815728D01*
X16596593Y-13815728D02*
X16615640Y-13806204D01*
X16615640Y-13806204D02*
X16644212Y-13806204D01*
X16644212Y-13806204D02*
X16663259Y-13815728D01*
X16663259Y-13815728D02*
X16672783Y-13825251D01*
X16672783Y-13825251D02*
X16682307Y-13844299D01*
X16682307Y-13844299D02*
X16682307Y-13901442D01*
X16682307Y-13901442D02*
X16672783Y-13920489D01*
X16672783Y-13920489D02*
X16663259Y-13930013D01*
X16663259Y-13930013D02*
X16644212Y-13939537D01*
X16644212Y-13939537D02*
X16615640Y-13939537D01*
X16739450Y-13806204D02*
X16815640Y-13806204D01*
X16768021Y-13739537D02*
X16768021Y-13910966D01*
X16768021Y-13910966D02*
X16777545Y-13930013D01*
X16777545Y-13930013D02*
X16796593Y-13939537D01*
X16796593Y-13939537D02*
X16815640Y-13939537D01*
X16872783Y-13930013D02*
X16891831Y-13939537D01*
X16891831Y-13939537D02*
X16929926Y-13939537D01*
X16929926Y-13939537D02*
X16948974Y-13930013D01*
X16948974Y-13930013D02*
X16958498Y-13910966D01*
X16958498Y-13910966D02*
X16958498Y-13901442D01*
X16958498Y-13901442D02*
X16948974Y-13882394D01*
X16948974Y-13882394D02*
X16929926Y-13872870D01*
X16929926Y-13872870D02*
X16901355Y-13872870D01*
X16901355Y-13872870D02*
X16882307Y-13863347D01*
X16882307Y-13863347D02*
X16872783Y-13844299D01*
X16872783Y-13844299D02*
X16872783Y-13834775D01*
X16872783Y-13834775D02*
X16882307Y-13815728D01*
X16882307Y-13815728D02*
X16901355Y-13806204D01*
X16901355Y-13806204D02*
X16929926Y-13806204D01*
X16929926Y-13806204D02*
X16948974Y-13815728D01*
X17025164Y-14015728D02*
X17034688Y-14006204D01*
X17034688Y-14006204D02*
X17053736Y-13977632D01*
X17053736Y-13977632D02*
X17063259Y-13958585D01*
X17063259Y-13958585D02*
X17072783Y-13930013D01*
X17072783Y-13930013D02*
X17082307Y-13882394D01*
X17082307Y-13882394D02*
X17082307Y-13844299D01*
X17082307Y-13844299D02*
X17072783Y-13796680D01*
X17072783Y-13796680D02*
X17063259Y-13768109D01*
X17063259Y-13768109D02*
X17053736Y-13749061D01*
X17053736Y-13749061D02*
X17034688Y-13720489D01*
X17034688Y-13720489D02*
X17025164Y-13710966D01*
D12*
X10581053Y-14162053D02*
X10631053Y-14112053D01*
X10581053Y-14062053D01*
X10531053Y-14112053D01*
X10581053Y-14162053D01*
D11*
X10996592Y-14203537D02*
X10882306Y-14203537D01*
X10939449Y-14203537D02*
X10939449Y-14003537D01*
X10939449Y-14003537D02*
X10920402Y-14032109D01*
X10920402Y-14032109D02*
X10901354Y-14051156D01*
X10901354Y-14051156D02*
X10882306Y-14060680D01*
X11082306Y-14184489D02*
X11091830Y-14194013D01*
X11091830Y-14194013D02*
X11082306Y-14203537D01*
X11082306Y-14203537D02*
X11072783Y-14194013D01*
X11072783Y-14194013D02*
X11082306Y-14184489D01*
X11082306Y-14184489D02*
X11082306Y-14203537D01*
X11215640Y-14003537D02*
X11234687Y-14003537D01*
X11234687Y-14003537D02*
X11253735Y-14013061D01*
X11253735Y-14013061D02*
X11263259Y-14022585D01*
X11263259Y-14022585D02*
X11272783Y-14041632D01*
X11272783Y-14041632D02*
X11282306Y-14079728D01*
X11282306Y-14079728D02*
X11282306Y-14127347D01*
X11282306Y-14127347D02*
X11272783Y-14165442D01*
X11272783Y-14165442D02*
X11263259Y-14184489D01*
X11263259Y-14184489D02*
X11253735Y-14194013D01*
X11253735Y-14194013D02*
X11234687Y-14203537D01*
X11234687Y-14203537D02*
X11215640Y-14203537D01*
X11215640Y-14203537D02*
X11196592Y-14194013D01*
X11196592Y-14194013D02*
X11187068Y-14184489D01*
X11187068Y-14184489D02*
X11177545Y-14165442D01*
X11177545Y-14165442D02*
X11168021Y-14127347D01*
X11168021Y-14127347D02*
X11168021Y-14079728D01*
X11168021Y-14079728D02*
X11177545Y-14041632D01*
X11177545Y-14041632D02*
X11187068Y-14022585D01*
X11187068Y-14022585D02*
X11196592Y-14013061D01*
X11196592Y-14013061D02*
X11215640Y-14003537D01*
X11406116Y-14003537D02*
X11425164Y-14003537D01*
X11425164Y-14003537D02*
X11444211Y-14013061D01*
X11444211Y-14013061D02*
X11453735Y-14022585D01*
X11453735Y-14022585D02*
X11463259Y-14041632D01*
X11463259Y-14041632D02*
X11472783Y-14079728D01*
X11472783Y-14079728D02*
X11472783Y-14127347D01*
X11472783Y-14127347D02*
X11463259Y-14165442D01*
X11463259Y-14165442D02*
X11453735Y-14184489D01*
X11453735Y-14184489D02*
X11444211Y-14194013D01*
X11444211Y-14194013D02*
X11425164Y-14203537D01*
X11425164Y-14203537D02*
X11406116Y-14203537D01*
X11406116Y-14203537D02*
X11387068Y-14194013D01*
X11387068Y-14194013D02*
X11377544Y-14184489D01*
X11377544Y-14184489D02*
X11368021Y-14165442D01*
X11368021Y-14165442D02*
X11358497Y-14127347D01*
X11358497Y-14127347D02*
X11358497Y-14079728D01*
X11358497Y-14079728D02*
X11368021Y-14041632D01*
X11368021Y-14041632D02*
X11377544Y-14022585D01*
X11377544Y-14022585D02*
X11387068Y-14013061D01*
X11387068Y-14013061D02*
X11406116Y-14003537D01*
X11596592Y-14003537D02*
X11615640Y-14003537D01*
X11615640Y-14003537D02*
X11634687Y-14013061D01*
X11634687Y-14013061D02*
X11644211Y-14022585D01*
X11644211Y-14022585D02*
X11653735Y-14041632D01*
X11653735Y-14041632D02*
X11663259Y-14079728D01*
X11663259Y-14079728D02*
X11663259Y-14127347D01*
X11663259Y-14127347D02*
X11653735Y-14165442D01*
X11653735Y-14165442D02*
X11644211Y-14184489D01*
X11644211Y-14184489D02*
X11634687Y-14194013D01*
X11634687Y-14194013D02*
X11615640Y-14203537D01*
X11615640Y-14203537D02*
X11596592Y-14203537D01*
X11596592Y-14203537D02*
X11577544Y-14194013D01*
X11577544Y-14194013D02*
X11568021Y-14184489D01*
X11568021Y-14184489D02*
X11558497Y-14165442D01*
X11558497Y-14165442D02*
X11548973Y-14127347D01*
X11548973Y-14127347D02*
X11548973Y-14079728D01*
X11548973Y-14079728D02*
X11558497Y-14041632D01*
X11558497Y-14041632D02*
X11568021Y-14022585D01*
X11568021Y-14022585D02*
X11577544Y-14013061D01*
X11577544Y-14013061D02*
X11596592Y-14003537D01*
X11748973Y-14203537D02*
X11748973Y-14070204D01*
X11748973Y-14089251D02*
X11758497Y-14079728D01*
X11758497Y-14079728D02*
X11777544Y-14070204D01*
X11777544Y-14070204D02*
X11806116Y-14070204D01*
X11806116Y-14070204D02*
X11825164Y-14079728D01*
X11825164Y-14079728D02*
X11834687Y-14098775D01*
X11834687Y-14098775D02*
X11834687Y-14203537D01*
X11834687Y-14098775D02*
X11844211Y-14079728D01*
X11844211Y-14079728D02*
X11863259Y-14070204D01*
X11863259Y-14070204D02*
X11891830Y-14070204D01*
X11891830Y-14070204D02*
X11910878Y-14079728D01*
X11910878Y-14079728D02*
X11920402Y-14098775D01*
X11920402Y-14098775D02*
X11920402Y-14203537D01*
X12015640Y-14203537D02*
X12015640Y-14070204D01*
X12015640Y-14089251D02*
X12025164Y-14079728D01*
X12025164Y-14079728D02*
X12044211Y-14070204D01*
X12044211Y-14070204D02*
X12072783Y-14070204D01*
X12072783Y-14070204D02*
X12091830Y-14079728D01*
X12091830Y-14079728D02*
X12101354Y-14098775D01*
X12101354Y-14098775D02*
X12101354Y-14203537D01*
X12101354Y-14098775D02*
X12110878Y-14079728D01*
X12110878Y-14079728D02*
X12129925Y-14070204D01*
X12129925Y-14070204D02*
X12158497Y-14070204D01*
X12158497Y-14070204D02*
X12177545Y-14079728D01*
X12177545Y-14079728D02*
X12187068Y-14098775D01*
X12187068Y-14098775D02*
X12187068Y-14203537D01*
X12577545Y-13994013D02*
X12406116Y-14251156D01*
X12834687Y-14003537D02*
X12853735Y-14003537D01*
X12853735Y-14003537D02*
X12872783Y-14013061D01*
X12872783Y-14013061D02*
X12882307Y-14022585D01*
X12882307Y-14022585D02*
X12891830Y-14041632D01*
X12891830Y-14041632D02*
X12901354Y-14079728D01*
X12901354Y-14079728D02*
X12901354Y-14127347D01*
X12901354Y-14127347D02*
X12891830Y-14165442D01*
X12891830Y-14165442D02*
X12882307Y-14184489D01*
X12882307Y-14184489D02*
X12872783Y-14194013D01*
X12872783Y-14194013D02*
X12853735Y-14203537D01*
X12853735Y-14203537D02*
X12834687Y-14203537D01*
X12834687Y-14203537D02*
X12815640Y-14194013D01*
X12815640Y-14194013D02*
X12806116Y-14184489D01*
X12806116Y-14184489D02*
X12796592Y-14165442D01*
X12796592Y-14165442D02*
X12787068Y-14127347D01*
X12787068Y-14127347D02*
X12787068Y-14079728D01*
X12787068Y-14079728D02*
X12796592Y-14041632D01*
X12796592Y-14041632D02*
X12806116Y-14022585D01*
X12806116Y-14022585D02*
X12815640Y-14013061D01*
X12815640Y-14013061D02*
X12834687Y-14003537D01*
X12987068Y-14184489D02*
X12996592Y-14194013D01*
X12996592Y-14194013D02*
X12987068Y-14203537D01*
X12987068Y-14203537D02*
X12977545Y-14194013D01*
X12977545Y-14194013D02*
X12987068Y-14184489D01*
X12987068Y-14184489D02*
X12987068Y-14203537D01*
X13120402Y-14003537D02*
X13139449Y-14003537D01*
X13139449Y-14003537D02*
X13158497Y-14013061D01*
X13158497Y-14013061D02*
X13168021Y-14022585D01*
X13168021Y-14022585D02*
X13177545Y-14041632D01*
X13177545Y-14041632D02*
X13187068Y-14079728D01*
X13187068Y-14079728D02*
X13187068Y-14127347D01*
X13187068Y-14127347D02*
X13177545Y-14165442D01*
X13177545Y-14165442D02*
X13168021Y-14184489D01*
X13168021Y-14184489D02*
X13158497Y-14194013D01*
X13158497Y-14194013D02*
X13139449Y-14203537D01*
X13139449Y-14203537D02*
X13120402Y-14203537D01*
X13120402Y-14203537D02*
X13101354Y-14194013D01*
X13101354Y-14194013D02*
X13091830Y-14184489D01*
X13091830Y-14184489D02*
X13082307Y-14165442D01*
X13082307Y-14165442D02*
X13072783Y-14127347D01*
X13072783Y-14127347D02*
X13072783Y-14079728D01*
X13072783Y-14079728D02*
X13082307Y-14041632D01*
X13082307Y-14041632D02*
X13091830Y-14022585D01*
X13091830Y-14022585D02*
X13101354Y-14013061D01*
X13101354Y-14013061D02*
X13120402Y-14003537D01*
X13253735Y-14003537D02*
X13377545Y-14003537D01*
X13377545Y-14003537D02*
X13310878Y-14079728D01*
X13310878Y-14079728D02*
X13339449Y-14079728D01*
X13339449Y-14079728D02*
X13358497Y-14089251D01*
X13358497Y-14089251D02*
X13368021Y-14098775D01*
X13368021Y-14098775D02*
X13377545Y-14117823D01*
X13377545Y-14117823D02*
X13377545Y-14165442D01*
X13377545Y-14165442D02*
X13368021Y-14184489D01*
X13368021Y-14184489D02*
X13358497Y-14194013D01*
X13358497Y-14194013D02*
X13339449Y-14203537D01*
X13339449Y-14203537D02*
X13282307Y-14203537D01*
X13282307Y-14203537D02*
X13263259Y-14194013D01*
X13263259Y-14194013D02*
X13253735Y-14184489D01*
X13472783Y-14203537D02*
X13510878Y-14203537D01*
X13510878Y-14203537D02*
X13529926Y-14194013D01*
X13529926Y-14194013D02*
X13539449Y-14184489D01*
X13539449Y-14184489D02*
X13558497Y-14155918D01*
X13558497Y-14155918D02*
X13568021Y-14117823D01*
X13568021Y-14117823D02*
X13568021Y-14041632D01*
X13568021Y-14041632D02*
X13558497Y-14022585D01*
X13558497Y-14022585D02*
X13548973Y-14013061D01*
X13548973Y-14013061D02*
X13529926Y-14003537D01*
X13529926Y-14003537D02*
X13491830Y-14003537D01*
X13491830Y-14003537D02*
X13472783Y-14013061D01*
X13472783Y-14013061D02*
X13463259Y-14022585D01*
X13463259Y-14022585D02*
X13453735Y-14041632D01*
X13453735Y-14041632D02*
X13453735Y-14089251D01*
X13453735Y-14089251D02*
X13463259Y-14108299D01*
X13463259Y-14108299D02*
X13472783Y-14117823D01*
X13472783Y-14117823D02*
X13491830Y-14127347D01*
X13491830Y-14127347D02*
X13529926Y-14127347D01*
X13529926Y-14127347D02*
X13548973Y-14117823D01*
X13548973Y-14117823D02*
X13558497Y-14108299D01*
X13558497Y-14108299D02*
X13568021Y-14089251D01*
X13739449Y-14070204D02*
X13739449Y-14203537D01*
X13691830Y-13994013D02*
X13644211Y-14136870D01*
X13644211Y-14136870D02*
X13768021Y-14136870D01*
X13834688Y-14003537D02*
X13834688Y-14041632D01*
X13910878Y-14003537D02*
X13910878Y-14041632D01*
X14206116Y-14279728D02*
X14196592Y-14270204D01*
X14196592Y-14270204D02*
X14177545Y-14241632D01*
X14177545Y-14241632D02*
X14168021Y-14222585D01*
X14168021Y-14222585D02*
X14158497Y-14194013D01*
X14158497Y-14194013D02*
X14148973Y-14146394D01*
X14148973Y-14146394D02*
X14148973Y-14108299D01*
X14148973Y-14108299D02*
X14158497Y-14060680D01*
X14158497Y-14060680D02*
X14168021Y-14032109D01*
X14168021Y-14032109D02*
X14177545Y-14013061D01*
X14177545Y-14013061D02*
X14196592Y-13984489D01*
X14196592Y-13984489D02*
X14206116Y-13974966D01*
X14272783Y-14022585D02*
X14282307Y-14013061D01*
X14282307Y-14013061D02*
X14301354Y-14003537D01*
X14301354Y-14003537D02*
X14348973Y-14003537D01*
X14348973Y-14003537D02*
X14368021Y-14013061D01*
X14368021Y-14013061D02*
X14377545Y-14022585D01*
X14377545Y-14022585D02*
X14387069Y-14041632D01*
X14387069Y-14041632D02*
X14387069Y-14060680D01*
X14387069Y-14060680D02*
X14377545Y-14089251D01*
X14377545Y-14089251D02*
X14263259Y-14203537D01*
X14263259Y-14203537D02*
X14387069Y-14203537D01*
X14568021Y-14003537D02*
X14472783Y-14003537D01*
X14472783Y-14003537D02*
X14463259Y-14098775D01*
X14463259Y-14098775D02*
X14472783Y-14089251D01*
X14472783Y-14089251D02*
X14491830Y-14079728D01*
X14491830Y-14079728D02*
X14539450Y-14079728D01*
X14539450Y-14079728D02*
X14558497Y-14089251D01*
X14558497Y-14089251D02*
X14568021Y-14098775D01*
X14568021Y-14098775D02*
X14577545Y-14117823D01*
X14577545Y-14117823D02*
X14577545Y-14165442D01*
X14577545Y-14165442D02*
X14568021Y-14184489D01*
X14568021Y-14184489D02*
X14558497Y-14194013D01*
X14558497Y-14194013D02*
X14539450Y-14203537D01*
X14539450Y-14203537D02*
X14491830Y-14203537D01*
X14491830Y-14203537D02*
X14472783Y-14194013D01*
X14472783Y-14194013D02*
X14463259Y-14184489D01*
X14815640Y-14203537D02*
X14815640Y-14003537D01*
X14901354Y-14203537D02*
X14901354Y-14098775D01*
X14901354Y-14098775D02*
X14891831Y-14079728D01*
X14891831Y-14079728D02*
X14872783Y-14070204D01*
X14872783Y-14070204D02*
X14844211Y-14070204D01*
X14844211Y-14070204D02*
X14825164Y-14079728D01*
X14825164Y-14079728D02*
X14815640Y-14089251D01*
X15025164Y-14203537D02*
X15006116Y-14194013D01*
X15006116Y-14194013D02*
X14996592Y-14184489D01*
X14996592Y-14184489D02*
X14987069Y-14165442D01*
X14987069Y-14165442D02*
X14987069Y-14108299D01*
X14987069Y-14108299D02*
X14996592Y-14089251D01*
X14996592Y-14089251D02*
X15006116Y-14079728D01*
X15006116Y-14079728D02*
X15025164Y-14070204D01*
X15025164Y-14070204D02*
X15053735Y-14070204D01*
X15053735Y-14070204D02*
X15072783Y-14079728D01*
X15072783Y-14079728D02*
X15082307Y-14089251D01*
X15082307Y-14089251D02*
X15091831Y-14108299D01*
X15091831Y-14108299D02*
X15091831Y-14165442D01*
X15091831Y-14165442D02*
X15082307Y-14184489D01*
X15082307Y-14184489D02*
X15072783Y-14194013D01*
X15072783Y-14194013D02*
X15053735Y-14203537D01*
X15053735Y-14203537D02*
X15025164Y-14203537D01*
X15206116Y-14203537D02*
X15187069Y-14194013D01*
X15187069Y-14194013D02*
X15177545Y-14174966D01*
X15177545Y-14174966D02*
X15177545Y-14003537D01*
X15358497Y-14194013D02*
X15339450Y-14203537D01*
X15339450Y-14203537D02*
X15301354Y-14203537D01*
X15301354Y-14203537D02*
X15282307Y-14194013D01*
X15282307Y-14194013D02*
X15272783Y-14174966D01*
X15272783Y-14174966D02*
X15272783Y-14098775D01*
X15272783Y-14098775D02*
X15282307Y-14079728D01*
X15282307Y-14079728D02*
X15301354Y-14070204D01*
X15301354Y-14070204D02*
X15339450Y-14070204D01*
X15339450Y-14070204D02*
X15358497Y-14079728D01*
X15358497Y-14079728D02*
X15368021Y-14098775D01*
X15368021Y-14098775D02*
X15368021Y-14117823D01*
X15368021Y-14117823D02*
X15272783Y-14136870D01*
X15444212Y-14194013D02*
X15463259Y-14203537D01*
X15463259Y-14203537D02*
X15501354Y-14203537D01*
X15501354Y-14203537D02*
X15520402Y-14194013D01*
X15520402Y-14194013D02*
X15529926Y-14174966D01*
X15529926Y-14174966D02*
X15529926Y-14165442D01*
X15529926Y-14165442D02*
X15520402Y-14146394D01*
X15520402Y-14146394D02*
X15501354Y-14136870D01*
X15501354Y-14136870D02*
X15472783Y-14136870D01*
X15472783Y-14136870D02*
X15453735Y-14127347D01*
X15453735Y-14127347D02*
X15444212Y-14108299D01*
X15444212Y-14108299D02*
X15444212Y-14098775D01*
X15444212Y-14098775D02*
X15453735Y-14079728D01*
X15453735Y-14079728D02*
X15472783Y-14070204D01*
X15472783Y-14070204D02*
X15501354Y-14070204D01*
X15501354Y-14070204D02*
X15520402Y-14079728D01*
X15596593Y-14279728D02*
X15606116Y-14270204D01*
X15606116Y-14270204D02*
X15625164Y-14241632D01*
X15625164Y-14241632D02*
X15634688Y-14222585D01*
X15634688Y-14222585D02*
X15644212Y-14194013D01*
X15644212Y-14194013D02*
X15653735Y-14146394D01*
X15653735Y-14146394D02*
X15653735Y-14108299D01*
X15653735Y-14108299D02*
X15644212Y-14060680D01*
X15644212Y-14060680D02*
X15634688Y-14032109D01*
X15634688Y-14032109D02*
X15625164Y-14013061D01*
X15625164Y-14013061D02*
X15606116Y-13984489D01*
X15606116Y-13984489D02*
X15596593Y-13974966D01*
D13*
X10521053Y-14321053D02*
X10631053Y-14431053D01*
X10631053Y-14321053D02*
X10521053Y-14431053D01*
X10631053Y-14376053D02*
G75*
G02*
X10521053Y-14376053I-55000J0D01*
G01*
X10521053Y-14376053D02*
G75*
G02*
X10631053Y-14376053I55000J0D01*
G01*
D11*
X10996592Y-14467537D02*
X10882306Y-14467537D01*
X10939449Y-14467537D02*
X10939449Y-14267537D01*
X10939449Y-14267537D02*
X10920402Y-14296109D01*
X10920402Y-14296109D02*
X10901354Y-14315156D01*
X10901354Y-14315156D02*
X10882306Y-14324680D01*
X11082306Y-14448489D02*
X11091830Y-14458013D01*
X11091830Y-14458013D02*
X11082306Y-14467537D01*
X11082306Y-14467537D02*
X11072783Y-14458013D01*
X11072783Y-14458013D02*
X11082306Y-14448489D01*
X11082306Y-14448489D02*
X11082306Y-14467537D01*
X11282306Y-14467537D02*
X11168021Y-14467537D01*
X11225163Y-14467537D02*
X11225163Y-14267537D01*
X11225163Y-14267537D02*
X11206116Y-14296109D01*
X11206116Y-14296109D02*
X11187068Y-14315156D01*
X11187068Y-14315156D02*
X11168021Y-14324680D01*
X11406116Y-14267537D02*
X11425164Y-14267537D01*
X11425164Y-14267537D02*
X11444211Y-14277061D01*
X11444211Y-14277061D02*
X11453735Y-14286585D01*
X11453735Y-14286585D02*
X11463259Y-14305632D01*
X11463259Y-14305632D02*
X11472783Y-14343728D01*
X11472783Y-14343728D02*
X11472783Y-14391347D01*
X11472783Y-14391347D02*
X11463259Y-14429442D01*
X11463259Y-14429442D02*
X11453735Y-14448489D01*
X11453735Y-14448489D02*
X11444211Y-14458013D01*
X11444211Y-14458013D02*
X11425164Y-14467537D01*
X11425164Y-14467537D02*
X11406116Y-14467537D01*
X11406116Y-14467537D02*
X11387068Y-14458013D01*
X11387068Y-14458013D02*
X11377544Y-14448489D01*
X11377544Y-14448489D02*
X11368021Y-14429442D01*
X11368021Y-14429442D02*
X11358497Y-14391347D01*
X11358497Y-14391347D02*
X11358497Y-14343728D01*
X11358497Y-14343728D02*
X11368021Y-14305632D01*
X11368021Y-14305632D02*
X11377544Y-14286585D01*
X11377544Y-14286585D02*
X11387068Y-14277061D01*
X11387068Y-14277061D02*
X11406116Y-14267537D01*
X11596592Y-14267537D02*
X11615640Y-14267537D01*
X11615640Y-14267537D02*
X11634687Y-14277061D01*
X11634687Y-14277061D02*
X11644211Y-14286585D01*
X11644211Y-14286585D02*
X11653735Y-14305632D01*
X11653735Y-14305632D02*
X11663259Y-14343728D01*
X11663259Y-14343728D02*
X11663259Y-14391347D01*
X11663259Y-14391347D02*
X11653735Y-14429442D01*
X11653735Y-14429442D02*
X11644211Y-14448489D01*
X11644211Y-14448489D02*
X11634687Y-14458013D01*
X11634687Y-14458013D02*
X11615640Y-14467537D01*
X11615640Y-14467537D02*
X11596592Y-14467537D01*
X11596592Y-14467537D02*
X11577544Y-14458013D01*
X11577544Y-14458013D02*
X11568021Y-14448489D01*
X11568021Y-14448489D02*
X11558497Y-14429442D01*
X11558497Y-14429442D02*
X11548973Y-14391347D01*
X11548973Y-14391347D02*
X11548973Y-14343728D01*
X11548973Y-14343728D02*
X11558497Y-14305632D01*
X11558497Y-14305632D02*
X11568021Y-14286585D01*
X11568021Y-14286585D02*
X11577544Y-14277061D01*
X11577544Y-14277061D02*
X11596592Y-14267537D01*
X11748973Y-14467537D02*
X11748973Y-14334204D01*
X11748973Y-14353251D02*
X11758497Y-14343728D01*
X11758497Y-14343728D02*
X11777544Y-14334204D01*
X11777544Y-14334204D02*
X11806116Y-14334204D01*
X11806116Y-14334204D02*
X11825164Y-14343728D01*
X11825164Y-14343728D02*
X11834687Y-14362775D01*
X11834687Y-14362775D02*
X11834687Y-14467537D01*
X11834687Y-14362775D02*
X11844211Y-14343728D01*
X11844211Y-14343728D02*
X11863259Y-14334204D01*
X11863259Y-14334204D02*
X11891830Y-14334204D01*
X11891830Y-14334204D02*
X11910878Y-14343728D01*
X11910878Y-14343728D02*
X11920402Y-14362775D01*
X11920402Y-14362775D02*
X11920402Y-14467537D01*
X12015640Y-14467537D02*
X12015640Y-14334204D01*
X12015640Y-14353251D02*
X12025164Y-14343728D01*
X12025164Y-14343728D02*
X12044211Y-14334204D01*
X12044211Y-14334204D02*
X12072783Y-14334204D01*
X12072783Y-14334204D02*
X12091830Y-14343728D01*
X12091830Y-14343728D02*
X12101354Y-14362775D01*
X12101354Y-14362775D02*
X12101354Y-14467537D01*
X12101354Y-14362775D02*
X12110878Y-14343728D01*
X12110878Y-14343728D02*
X12129925Y-14334204D01*
X12129925Y-14334204D02*
X12158497Y-14334204D01*
X12158497Y-14334204D02*
X12177545Y-14343728D01*
X12177545Y-14343728D02*
X12187068Y-14362775D01*
X12187068Y-14362775D02*
X12187068Y-14467537D01*
X12577545Y-14258013D02*
X12406116Y-14515156D01*
X12834687Y-14267537D02*
X12853735Y-14267537D01*
X12853735Y-14267537D02*
X12872783Y-14277061D01*
X12872783Y-14277061D02*
X12882307Y-14286585D01*
X12882307Y-14286585D02*
X12891830Y-14305632D01*
X12891830Y-14305632D02*
X12901354Y-14343728D01*
X12901354Y-14343728D02*
X12901354Y-14391347D01*
X12901354Y-14391347D02*
X12891830Y-14429442D01*
X12891830Y-14429442D02*
X12882307Y-14448489D01*
X12882307Y-14448489D02*
X12872783Y-14458013D01*
X12872783Y-14458013D02*
X12853735Y-14467537D01*
X12853735Y-14467537D02*
X12834687Y-14467537D01*
X12834687Y-14467537D02*
X12815640Y-14458013D01*
X12815640Y-14458013D02*
X12806116Y-14448489D01*
X12806116Y-14448489D02*
X12796592Y-14429442D01*
X12796592Y-14429442D02*
X12787068Y-14391347D01*
X12787068Y-14391347D02*
X12787068Y-14343728D01*
X12787068Y-14343728D02*
X12796592Y-14305632D01*
X12796592Y-14305632D02*
X12806116Y-14286585D01*
X12806116Y-14286585D02*
X12815640Y-14277061D01*
X12815640Y-14277061D02*
X12834687Y-14267537D01*
X12987068Y-14448489D02*
X12996592Y-14458013D01*
X12996592Y-14458013D02*
X12987068Y-14467537D01*
X12987068Y-14467537D02*
X12977545Y-14458013D01*
X12977545Y-14458013D02*
X12987068Y-14448489D01*
X12987068Y-14448489D02*
X12987068Y-14467537D01*
X13120402Y-14267537D02*
X13139449Y-14267537D01*
X13139449Y-14267537D02*
X13158497Y-14277061D01*
X13158497Y-14277061D02*
X13168021Y-14286585D01*
X13168021Y-14286585D02*
X13177545Y-14305632D01*
X13177545Y-14305632D02*
X13187068Y-14343728D01*
X13187068Y-14343728D02*
X13187068Y-14391347D01*
X13187068Y-14391347D02*
X13177545Y-14429442D01*
X13177545Y-14429442D02*
X13168021Y-14448489D01*
X13168021Y-14448489D02*
X13158497Y-14458013D01*
X13158497Y-14458013D02*
X13139449Y-14467537D01*
X13139449Y-14467537D02*
X13120402Y-14467537D01*
X13120402Y-14467537D02*
X13101354Y-14458013D01*
X13101354Y-14458013D02*
X13091830Y-14448489D01*
X13091830Y-14448489D02*
X13082307Y-14429442D01*
X13082307Y-14429442D02*
X13072783Y-14391347D01*
X13072783Y-14391347D02*
X13072783Y-14343728D01*
X13072783Y-14343728D02*
X13082307Y-14305632D01*
X13082307Y-14305632D02*
X13091830Y-14286585D01*
X13091830Y-14286585D02*
X13101354Y-14277061D01*
X13101354Y-14277061D02*
X13120402Y-14267537D01*
X13358497Y-14334204D02*
X13358497Y-14467537D01*
X13310878Y-14258013D02*
X13263259Y-14400870D01*
X13263259Y-14400870D02*
X13387068Y-14400870D01*
X13444211Y-14267537D02*
X13568021Y-14267537D01*
X13568021Y-14267537D02*
X13501354Y-14343728D01*
X13501354Y-14343728D02*
X13529926Y-14343728D01*
X13529926Y-14343728D02*
X13548973Y-14353251D01*
X13548973Y-14353251D02*
X13558497Y-14362775D01*
X13558497Y-14362775D02*
X13568021Y-14381823D01*
X13568021Y-14381823D02*
X13568021Y-14429442D01*
X13568021Y-14429442D02*
X13558497Y-14448489D01*
X13558497Y-14448489D02*
X13548973Y-14458013D01*
X13548973Y-14458013D02*
X13529926Y-14467537D01*
X13529926Y-14467537D02*
X13472783Y-14467537D01*
X13472783Y-14467537D02*
X13453735Y-14458013D01*
X13453735Y-14458013D02*
X13444211Y-14448489D01*
X13634688Y-14267537D02*
X13758497Y-14267537D01*
X13758497Y-14267537D02*
X13691830Y-14343728D01*
X13691830Y-14343728D02*
X13720402Y-14343728D01*
X13720402Y-14343728D02*
X13739449Y-14353251D01*
X13739449Y-14353251D02*
X13748973Y-14362775D01*
X13748973Y-14362775D02*
X13758497Y-14381823D01*
X13758497Y-14381823D02*
X13758497Y-14429442D01*
X13758497Y-14429442D02*
X13748973Y-14448489D01*
X13748973Y-14448489D02*
X13739449Y-14458013D01*
X13739449Y-14458013D02*
X13720402Y-14467537D01*
X13720402Y-14467537D02*
X13663259Y-14467537D01*
X13663259Y-14467537D02*
X13644211Y-14458013D01*
X13644211Y-14458013D02*
X13634688Y-14448489D01*
X13834688Y-14267537D02*
X13834688Y-14305632D01*
X13910878Y-14267537D02*
X13910878Y-14305632D01*
X14206116Y-14543728D02*
X14196592Y-14534204D01*
X14196592Y-14534204D02*
X14177545Y-14505632D01*
X14177545Y-14505632D02*
X14168021Y-14486585D01*
X14168021Y-14486585D02*
X14158497Y-14458013D01*
X14158497Y-14458013D02*
X14148973Y-14410394D01*
X14148973Y-14410394D02*
X14148973Y-14372299D01*
X14148973Y-14372299D02*
X14158497Y-14324680D01*
X14158497Y-14324680D02*
X14168021Y-14296109D01*
X14168021Y-14296109D02*
X14177545Y-14277061D01*
X14177545Y-14277061D02*
X14196592Y-14248489D01*
X14196592Y-14248489D02*
X14206116Y-14238966D01*
X14368021Y-14334204D02*
X14368021Y-14467537D01*
X14320402Y-14258013D02*
X14272783Y-14400870D01*
X14272783Y-14400870D02*
X14396592Y-14400870D01*
X14625164Y-14467537D02*
X14625164Y-14267537D01*
X14710878Y-14467537D02*
X14710878Y-14362775D01*
X14710878Y-14362775D02*
X14701354Y-14343728D01*
X14701354Y-14343728D02*
X14682307Y-14334204D01*
X14682307Y-14334204D02*
X14653735Y-14334204D01*
X14653735Y-14334204D02*
X14634688Y-14343728D01*
X14634688Y-14343728D02*
X14625164Y-14353251D01*
X14834688Y-14467537D02*
X14815640Y-14458013D01*
X14815640Y-14458013D02*
X14806116Y-14448489D01*
X14806116Y-14448489D02*
X14796592Y-14429442D01*
X14796592Y-14429442D02*
X14796592Y-14372299D01*
X14796592Y-14372299D02*
X14806116Y-14353251D01*
X14806116Y-14353251D02*
X14815640Y-14343728D01*
X14815640Y-14343728D02*
X14834688Y-14334204D01*
X14834688Y-14334204D02*
X14863259Y-14334204D01*
X14863259Y-14334204D02*
X14882307Y-14343728D01*
X14882307Y-14343728D02*
X14891831Y-14353251D01*
X14891831Y-14353251D02*
X14901354Y-14372299D01*
X14901354Y-14372299D02*
X14901354Y-14429442D01*
X14901354Y-14429442D02*
X14891831Y-14448489D01*
X14891831Y-14448489D02*
X14882307Y-14458013D01*
X14882307Y-14458013D02*
X14863259Y-14467537D01*
X14863259Y-14467537D02*
X14834688Y-14467537D01*
X15015640Y-14467537D02*
X14996592Y-14458013D01*
X14996592Y-14458013D02*
X14987069Y-14438966D01*
X14987069Y-14438966D02*
X14987069Y-14267537D01*
X15168021Y-14458013D02*
X15148973Y-14467537D01*
X15148973Y-14467537D02*
X15110878Y-14467537D01*
X15110878Y-14467537D02*
X15091831Y-14458013D01*
X15091831Y-14458013D02*
X15082307Y-14438966D01*
X15082307Y-14438966D02*
X15082307Y-14362775D01*
X15082307Y-14362775D02*
X15091831Y-14343728D01*
X15091831Y-14343728D02*
X15110878Y-14334204D01*
X15110878Y-14334204D02*
X15148973Y-14334204D01*
X15148973Y-14334204D02*
X15168021Y-14343728D01*
X15168021Y-14343728D02*
X15177545Y-14362775D01*
X15177545Y-14362775D02*
X15177545Y-14381823D01*
X15177545Y-14381823D02*
X15082307Y-14400870D01*
X15253735Y-14458013D02*
X15272783Y-14467537D01*
X15272783Y-14467537D02*
X15310878Y-14467537D01*
X15310878Y-14467537D02*
X15329926Y-14458013D01*
X15329926Y-14458013D02*
X15339450Y-14438966D01*
X15339450Y-14438966D02*
X15339450Y-14429442D01*
X15339450Y-14429442D02*
X15329926Y-14410394D01*
X15329926Y-14410394D02*
X15310878Y-14400870D01*
X15310878Y-14400870D02*
X15282307Y-14400870D01*
X15282307Y-14400870D02*
X15263259Y-14391347D01*
X15263259Y-14391347D02*
X15253735Y-14372299D01*
X15253735Y-14372299D02*
X15253735Y-14362775D01*
X15253735Y-14362775D02*
X15263259Y-14343728D01*
X15263259Y-14343728D02*
X15282307Y-14334204D01*
X15282307Y-14334204D02*
X15310878Y-14334204D01*
X15310878Y-14334204D02*
X15329926Y-14343728D01*
X15406116Y-14543728D02*
X15415640Y-14534204D01*
X15415640Y-14534204D02*
X15434688Y-14505632D01*
X15434688Y-14505632D02*
X15444212Y-14486585D01*
X15444212Y-14486585D02*
X15453735Y-14458013D01*
X15453735Y-14458013D02*
X15463259Y-14410394D01*
X15463259Y-14410394D02*
X15463259Y-14372299D01*
X15463259Y-14372299D02*
X15453735Y-14324680D01*
X15453735Y-14324680D02*
X15444212Y-14296109D01*
X15444212Y-14296109D02*
X15434688Y-14277061D01*
X15434688Y-14277061D02*
X15415640Y-14248489D01*
X15415640Y-14248489D02*
X15406116Y-14238966D01*
D14*
X10511053Y-14580053D02*
X10631053Y-14700053D01*
X10631053Y-14580053D02*
X10511053Y-14700053D01*
X10571053Y-14580053D02*
X10571053Y-14700053D01*
X10511053Y-14640053D02*
X10631053Y-14640053D01*
D11*
X10996592Y-14731537D02*
X10882306Y-14731537D01*
X10939449Y-14731537D02*
X10939449Y-14531537D01*
X10939449Y-14531537D02*
X10920402Y-14560109D01*
X10920402Y-14560109D02*
X10901354Y-14579156D01*
X10901354Y-14579156D02*
X10882306Y-14588680D01*
X11082306Y-14712489D02*
X11091830Y-14722013D01*
X11091830Y-14722013D02*
X11082306Y-14731537D01*
X11082306Y-14731537D02*
X11072783Y-14722013D01*
X11072783Y-14722013D02*
X11082306Y-14712489D01*
X11082306Y-14712489D02*
X11082306Y-14731537D01*
X11168021Y-14550585D02*
X11177545Y-14541061D01*
X11177545Y-14541061D02*
X11196592Y-14531537D01*
X11196592Y-14531537D02*
X11244211Y-14531537D01*
X11244211Y-14531537D02*
X11263259Y-14541061D01*
X11263259Y-14541061D02*
X11272783Y-14550585D01*
X11272783Y-14550585D02*
X11282306Y-14569632D01*
X11282306Y-14569632D02*
X11282306Y-14588680D01*
X11282306Y-14588680D02*
X11272783Y-14617251D01*
X11272783Y-14617251D02*
X11158497Y-14731537D01*
X11158497Y-14731537D02*
X11282306Y-14731537D01*
X11406116Y-14531537D02*
X11425164Y-14531537D01*
X11425164Y-14531537D02*
X11444211Y-14541061D01*
X11444211Y-14541061D02*
X11453735Y-14550585D01*
X11453735Y-14550585D02*
X11463259Y-14569632D01*
X11463259Y-14569632D02*
X11472783Y-14607728D01*
X11472783Y-14607728D02*
X11472783Y-14655347D01*
X11472783Y-14655347D02*
X11463259Y-14693442D01*
X11463259Y-14693442D02*
X11453735Y-14712489D01*
X11453735Y-14712489D02*
X11444211Y-14722013D01*
X11444211Y-14722013D02*
X11425164Y-14731537D01*
X11425164Y-14731537D02*
X11406116Y-14731537D01*
X11406116Y-14731537D02*
X11387068Y-14722013D01*
X11387068Y-14722013D02*
X11377544Y-14712489D01*
X11377544Y-14712489D02*
X11368021Y-14693442D01*
X11368021Y-14693442D02*
X11358497Y-14655347D01*
X11358497Y-14655347D02*
X11358497Y-14607728D01*
X11358497Y-14607728D02*
X11368021Y-14569632D01*
X11368021Y-14569632D02*
X11377544Y-14550585D01*
X11377544Y-14550585D02*
X11387068Y-14541061D01*
X11387068Y-14541061D02*
X11406116Y-14531537D01*
X11596592Y-14531537D02*
X11615640Y-14531537D01*
X11615640Y-14531537D02*
X11634687Y-14541061D01*
X11634687Y-14541061D02*
X11644211Y-14550585D01*
X11644211Y-14550585D02*
X11653735Y-14569632D01*
X11653735Y-14569632D02*
X11663259Y-14607728D01*
X11663259Y-14607728D02*
X11663259Y-14655347D01*
X11663259Y-14655347D02*
X11653735Y-14693442D01*
X11653735Y-14693442D02*
X11644211Y-14712489D01*
X11644211Y-14712489D02*
X11634687Y-14722013D01*
X11634687Y-14722013D02*
X11615640Y-14731537D01*
X11615640Y-14731537D02*
X11596592Y-14731537D01*
X11596592Y-14731537D02*
X11577544Y-14722013D01*
X11577544Y-14722013D02*
X11568021Y-14712489D01*
X11568021Y-14712489D02*
X11558497Y-14693442D01*
X11558497Y-14693442D02*
X11548973Y-14655347D01*
X11548973Y-14655347D02*
X11548973Y-14607728D01*
X11548973Y-14607728D02*
X11558497Y-14569632D01*
X11558497Y-14569632D02*
X11568021Y-14550585D01*
X11568021Y-14550585D02*
X11577544Y-14541061D01*
X11577544Y-14541061D02*
X11596592Y-14531537D01*
X11748973Y-14731537D02*
X11748973Y-14598204D01*
X11748973Y-14617251D02*
X11758497Y-14607728D01*
X11758497Y-14607728D02*
X11777544Y-14598204D01*
X11777544Y-14598204D02*
X11806116Y-14598204D01*
X11806116Y-14598204D02*
X11825164Y-14607728D01*
X11825164Y-14607728D02*
X11834687Y-14626775D01*
X11834687Y-14626775D02*
X11834687Y-14731537D01*
X11834687Y-14626775D02*
X11844211Y-14607728D01*
X11844211Y-14607728D02*
X11863259Y-14598204D01*
X11863259Y-14598204D02*
X11891830Y-14598204D01*
X11891830Y-14598204D02*
X11910878Y-14607728D01*
X11910878Y-14607728D02*
X11920402Y-14626775D01*
X11920402Y-14626775D02*
X11920402Y-14731537D01*
X12015640Y-14731537D02*
X12015640Y-14598204D01*
X12015640Y-14617251D02*
X12025164Y-14607728D01*
X12025164Y-14607728D02*
X12044211Y-14598204D01*
X12044211Y-14598204D02*
X12072783Y-14598204D01*
X12072783Y-14598204D02*
X12091830Y-14607728D01*
X12091830Y-14607728D02*
X12101354Y-14626775D01*
X12101354Y-14626775D02*
X12101354Y-14731537D01*
X12101354Y-14626775D02*
X12110878Y-14607728D01*
X12110878Y-14607728D02*
X12129925Y-14598204D01*
X12129925Y-14598204D02*
X12158497Y-14598204D01*
X12158497Y-14598204D02*
X12177545Y-14607728D01*
X12177545Y-14607728D02*
X12187068Y-14626775D01*
X12187068Y-14626775D02*
X12187068Y-14731537D01*
X12577545Y-14522013D02*
X12406116Y-14779156D01*
X12834687Y-14531537D02*
X12853735Y-14531537D01*
X12853735Y-14531537D02*
X12872783Y-14541061D01*
X12872783Y-14541061D02*
X12882307Y-14550585D01*
X12882307Y-14550585D02*
X12891830Y-14569632D01*
X12891830Y-14569632D02*
X12901354Y-14607728D01*
X12901354Y-14607728D02*
X12901354Y-14655347D01*
X12901354Y-14655347D02*
X12891830Y-14693442D01*
X12891830Y-14693442D02*
X12882307Y-14712489D01*
X12882307Y-14712489D02*
X12872783Y-14722013D01*
X12872783Y-14722013D02*
X12853735Y-14731537D01*
X12853735Y-14731537D02*
X12834687Y-14731537D01*
X12834687Y-14731537D02*
X12815640Y-14722013D01*
X12815640Y-14722013D02*
X12806116Y-14712489D01*
X12806116Y-14712489D02*
X12796592Y-14693442D01*
X12796592Y-14693442D02*
X12787068Y-14655347D01*
X12787068Y-14655347D02*
X12787068Y-14607728D01*
X12787068Y-14607728D02*
X12796592Y-14569632D01*
X12796592Y-14569632D02*
X12806116Y-14550585D01*
X12806116Y-14550585D02*
X12815640Y-14541061D01*
X12815640Y-14541061D02*
X12834687Y-14531537D01*
X12987068Y-14712489D02*
X12996592Y-14722013D01*
X12996592Y-14722013D02*
X12987068Y-14731537D01*
X12987068Y-14731537D02*
X12977545Y-14722013D01*
X12977545Y-14722013D02*
X12987068Y-14712489D01*
X12987068Y-14712489D02*
X12987068Y-14731537D01*
X13120402Y-14531537D02*
X13139449Y-14531537D01*
X13139449Y-14531537D02*
X13158497Y-14541061D01*
X13158497Y-14541061D02*
X13168021Y-14550585D01*
X13168021Y-14550585D02*
X13177545Y-14569632D01*
X13177545Y-14569632D02*
X13187068Y-14607728D01*
X13187068Y-14607728D02*
X13187068Y-14655347D01*
X13187068Y-14655347D02*
X13177545Y-14693442D01*
X13177545Y-14693442D02*
X13168021Y-14712489D01*
X13168021Y-14712489D02*
X13158497Y-14722013D01*
X13158497Y-14722013D02*
X13139449Y-14731537D01*
X13139449Y-14731537D02*
X13120402Y-14731537D01*
X13120402Y-14731537D02*
X13101354Y-14722013D01*
X13101354Y-14722013D02*
X13091830Y-14712489D01*
X13091830Y-14712489D02*
X13082307Y-14693442D01*
X13082307Y-14693442D02*
X13072783Y-14655347D01*
X13072783Y-14655347D02*
X13072783Y-14607728D01*
X13072783Y-14607728D02*
X13082307Y-14569632D01*
X13082307Y-14569632D02*
X13091830Y-14550585D01*
X13091830Y-14550585D02*
X13101354Y-14541061D01*
X13101354Y-14541061D02*
X13120402Y-14531537D01*
X13358497Y-14598204D02*
X13358497Y-14731537D01*
X13310878Y-14522013D02*
X13263259Y-14664870D01*
X13263259Y-14664870D02*
X13387068Y-14664870D01*
X13444211Y-14531537D02*
X13577545Y-14531537D01*
X13577545Y-14531537D02*
X13491830Y-14731537D01*
X13644211Y-14550585D02*
X13653735Y-14541061D01*
X13653735Y-14541061D02*
X13672783Y-14531537D01*
X13672783Y-14531537D02*
X13720402Y-14531537D01*
X13720402Y-14531537D02*
X13739449Y-14541061D01*
X13739449Y-14541061D02*
X13748973Y-14550585D01*
X13748973Y-14550585D02*
X13758497Y-14569632D01*
X13758497Y-14569632D02*
X13758497Y-14588680D01*
X13758497Y-14588680D02*
X13748973Y-14617251D01*
X13748973Y-14617251D02*
X13634688Y-14731537D01*
X13634688Y-14731537D02*
X13758497Y-14731537D01*
X13834688Y-14531537D02*
X13834688Y-14569632D01*
X13910878Y-14531537D02*
X13910878Y-14569632D01*
X14206116Y-14807728D02*
X14196592Y-14798204D01*
X14196592Y-14798204D02*
X14177545Y-14769632D01*
X14177545Y-14769632D02*
X14168021Y-14750585D01*
X14168021Y-14750585D02*
X14158497Y-14722013D01*
X14158497Y-14722013D02*
X14148973Y-14674394D01*
X14148973Y-14674394D02*
X14148973Y-14636299D01*
X14148973Y-14636299D02*
X14158497Y-14588680D01*
X14158497Y-14588680D02*
X14168021Y-14560109D01*
X14168021Y-14560109D02*
X14177545Y-14541061D01*
X14177545Y-14541061D02*
X14196592Y-14512489D01*
X14196592Y-14512489D02*
X14206116Y-14502966D01*
X14272783Y-14550585D02*
X14282307Y-14541061D01*
X14282307Y-14541061D02*
X14301354Y-14531537D01*
X14301354Y-14531537D02*
X14348973Y-14531537D01*
X14348973Y-14531537D02*
X14368021Y-14541061D01*
X14368021Y-14541061D02*
X14377545Y-14550585D01*
X14377545Y-14550585D02*
X14387069Y-14569632D01*
X14387069Y-14569632D02*
X14387069Y-14588680D01*
X14387069Y-14588680D02*
X14377545Y-14617251D01*
X14377545Y-14617251D02*
X14263259Y-14731537D01*
X14263259Y-14731537D02*
X14387069Y-14731537D01*
X14463259Y-14550585D02*
X14472783Y-14541061D01*
X14472783Y-14541061D02*
X14491830Y-14531537D01*
X14491830Y-14531537D02*
X14539450Y-14531537D01*
X14539450Y-14531537D02*
X14558497Y-14541061D01*
X14558497Y-14541061D02*
X14568021Y-14550585D01*
X14568021Y-14550585D02*
X14577545Y-14569632D01*
X14577545Y-14569632D02*
X14577545Y-14588680D01*
X14577545Y-14588680D02*
X14568021Y-14617251D01*
X14568021Y-14617251D02*
X14453735Y-14731537D01*
X14453735Y-14731537D02*
X14577545Y-14731537D01*
X14815640Y-14731537D02*
X14815640Y-14531537D01*
X14901354Y-14731537D02*
X14901354Y-14626775D01*
X14901354Y-14626775D02*
X14891831Y-14607728D01*
X14891831Y-14607728D02*
X14872783Y-14598204D01*
X14872783Y-14598204D02*
X14844211Y-14598204D01*
X14844211Y-14598204D02*
X14825164Y-14607728D01*
X14825164Y-14607728D02*
X14815640Y-14617251D01*
X15025164Y-14731537D02*
X15006116Y-14722013D01*
X15006116Y-14722013D02*
X14996592Y-14712489D01*
X14996592Y-14712489D02*
X14987069Y-14693442D01*
X14987069Y-14693442D02*
X14987069Y-14636299D01*
X14987069Y-14636299D02*
X14996592Y-14617251D01*
X14996592Y-14617251D02*
X15006116Y-14607728D01*
X15006116Y-14607728D02*
X15025164Y-14598204D01*
X15025164Y-14598204D02*
X15053735Y-14598204D01*
X15053735Y-14598204D02*
X15072783Y-14607728D01*
X15072783Y-14607728D02*
X15082307Y-14617251D01*
X15082307Y-14617251D02*
X15091831Y-14636299D01*
X15091831Y-14636299D02*
X15091831Y-14693442D01*
X15091831Y-14693442D02*
X15082307Y-14712489D01*
X15082307Y-14712489D02*
X15072783Y-14722013D01*
X15072783Y-14722013D02*
X15053735Y-14731537D01*
X15053735Y-14731537D02*
X15025164Y-14731537D01*
X15206116Y-14731537D02*
X15187069Y-14722013D01*
X15187069Y-14722013D02*
X15177545Y-14702966D01*
X15177545Y-14702966D02*
X15177545Y-14531537D01*
X15358497Y-14722013D02*
X15339450Y-14731537D01*
X15339450Y-14731537D02*
X15301354Y-14731537D01*
X15301354Y-14731537D02*
X15282307Y-14722013D01*
X15282307Y-14722013D02*
X15272783Y-14702966D01*
X15272783Y-14702966D02*
X15272783Y-14626775D01*
X15272783Y-14626775D02*
X15282307Y-14607728D01*
X15282307Y-14607728D02*
X15301354Y-14598204D01*
X15301354Y-14598204D02*
X15339450Y-14598204D01*
X15339450Y-14598204D02*
X15358497Y-14607728D01*
X15358497Y-14607728D02*
X15368021Y-14626775D01*
X15368021Y-14626775D02*
X15368021Y-14645823D01*
X15368021Y-14645823D02*
X15272783Y-14664870D01*
X15444212Y-14722013D02*
X15463259Y-14731537D01*
X15463259Y-14731537D02*
X15501354Y-14731537D01*
X15501354Y-14731537D02*
X15520402Y-14722013D01*
X15520402Y-14722013D02*
X15529926Y-14702966D01*
X15529926Y-14702966D02*
X15529926Y-14693442D01*
X15529926Y-14693442D02*
X15520402Y-14674394D01*
X15520402Y-14674394D02*
X15501354Y-14664870D01*
X15501354Y-14664870D02*
X15472783Y-14664870D01*
X15472783Y-14664870D02*
X15453735Y-14655347D01*
X15453735Y-14655347D02*
X15444212Y-14636299D01*
X15444212Y-14636299D02*
X15444212Y-14626775D01*
X15444212Y-14626775D02*
X15453735Y-14607728D01*
X15453735Y-14607728D02*
X15472783Y-14598204D01*
X15472783Y-14598204D02*
X15501354Y-14598204D01*
X15501354Y-14598204D02*
X15520402Y-14607728D01*
X15596593Y-14807728D02*
X15606116Y-14798204D01*
X15606116Y-14798204D02*
X15625164Y-14769632D01*
X15625164Y-14769632D02*
X15634688Y-14750585D01*
X15634688Y-14750585D02*
X15644212Y-14722013D01*
X15644212Y-14722013D02*
X15653735Y-14674394D01*
X15653735Y-14674394D02*
X15653735Y-14636299D01*
X15653735Y-14636299D02*
X15644212Y-14588680D01*
X15644212Y-14588680D02*
X15634688Y-14560109D01*
X15634688Y-14560109D02*
X15625164Y-14541061D01*
X15625164Y-14541061D02*
X15606116Y-14512489D01*
X15606116Y-14512489D02*
X15596593Y-14502966D01*
X10431053Y-14804053D02*
X10631053Y-15004053D01*
X10631053Y-14804053D02*
X10431053Y-15004053D01*
X10601765Y-14974765D02*
X10601765Y-14833342D01*
X10460342Y-14833342D01*
X10460342Y-14974765D01*
X10601765Y-14974765D01*
X10872783Y-14795537D02*
X10996592Y-14795537D01*
X10996592Y-14795537D02*
X10929925Y-14871728D01*
X10929925Y-14871728D02*
X10958497Y-14871728D01*
X10958497Y-14871728D02*
X10977545Y-14881251D01*
X10977545Y-14881251D02*
X10987068Y-14890775D01*
X10987068Y-14890775D02*
X10996592Y-14909823D01*
X10996592Y-14909823D02*
X10996592Y-14957442D01*
X10996592Y-14957442D02*
X10987068Y-14976489D01*
X10987068Y-14976489D02*
X10977545Y-14986013D01*
X10977545Y-14986013D02*
X10958497Y-14995537D01*
X10958497Y-14995537D02*
X10901354Y-14995537D01*
X10901354Y-14995537D02*
X10882306Y-14986013D01*
X10882306Y-14986013D02*
X10872783Y-14976489D01*
X11082306Y-14976489D02*
X11091830Y-14986013D01*
X11091830Y-14986013D02*
X11082306Y-14995537D01*
X11082306Y-14995537D02*
X11072783Y-14986013D01*
X11072783Y-14986013D02*
X11082306Y-14976489D01*
X11082306Y-14976489D02*
X11082306Y-14995537D01*
X11168021Y-14814585D02*
X11177545Y-14805061D01*
X11177545Y-14805061D02*
X11196592Y-14795537D01*
X11196592Y-14795537D02*
X11244211Y-14795537D01*
X11244211Y-14795537D02*
X11263259Y-14805061D01*
X11263259Y-14805061D02*
X11272783Y-14814585D01*
X11272783Y-14814585D02*
X11282306Y-14833632D01*
X11282306Y-14833632D02*
X11282306Y-14852680D01*
X11282306Y-14852680D02*
X11272783Y-14881251D01*
X11272783Y-14881251D02*
X11158497Y-14995537D01*
X11158497Y-14995537D02*
X11282306Y-14995537D01*
X11406116Y-14795537D02*
X11425164Y-14795537D01*
X11425164Y-14795537D02*
X11444211Y-14805061D01*
X11444211Y-14805061D02*
X11453735Y-14814585D01*
X11453735Y-14814585D02*
X11463259Y-14833632D01*
X11463259Y-14833632D02*
X11472783Y-14871728D01*
X11472783Y-14871728D02*
X11472783Y-14919347D01*
X11472783Y-14919347D02*
X11463259Y-14957442D01*
X11463259Y-14957442D02*
X11453735Y-14976489D01*
X11453735Y-14976489D02*
X11444211Y-14986013D01*
X11444211Y-14986013D02*
X11425164Y-14995537D01*
X11425164Y-14995537D02*
X11406116Y-14995537D01*
X11406116Y-14995537D02*
X11387068Y-14986013D01*
X11387068Y-14986013D02*
X11377544Y-14976489D01*
X11377544Y-14976489D02*
X11368021Y-14957442D01*
X11368021Y-14957442D02*
X11358497Y-14919347D01*
X11358497Y-14919347D02*
X11358497Y-14871728D01*
X11358497Y-14871728D02*
X11368021Y-14833632D01*
X11368021Y-14833632D02*
X11377544Y-14814585D01*
X11377544Y-14814585D02*
X11387068Y-14805061D01*
X11387068Y-14805061D02*
X11406116Y-14795537D01*
X11596592Y-14795537D02*
X11615640Y-14795537D01*
X11615640Y-14795537D02*
X11634687Y-14805061D01*
X11634687Y-14805061D02*
X11644211Y-14814585D01*
X11644211Y-14814585D02*
X11653735Y-14833632D01*
X11653735Y-14833632D02*
X11663259Y-14871728D01*
X11663259Y-14871728D02*
X11663259Y-14919347D01*
X11663259Y-14919347D02*
X11653735Y-14957442D01*
X11653735Y-14957442D02*
X11644211Y-14976489D01*
X11644211Y-14976489D02*
X11634687Y-14986013D01*
X11634687Y-14986013D02*
X11615640Y-14995537D01*
X11615640Y-14995537D02*
X11596592Y-14995537D01*
X11596592Y-14995537D02*
X11577544Y-14986013D01*
X11577544Y-14986013D02*
X11568021Y-14976489D01*
X11568021Y-14976489D02*
X11558497Y-14957442D01*
X11558497Y-14957442D02*
X11548973Y-14919347D01*
X11548973Y-14919347D02*
X11548973Y-14871728D01*
X11548973Y-14871728D02*
X11558497Y-14833632D01*
X11558497Y-14833632D02*
X11568021Y-14814585D01*
X11568021Y-14814585D02*
X11577544Y-14805061D01*
X11577544Y-14805061D02*
X11596592Y-14795537D01*
X11748973Y-14995537D02*
X11748973Y-14862204D01*
X11748973Y-14881251D02*
X11758497Y-14871728D01*
X11758497Y-14871728D02*
X11777544Y-14862204D01*
X11777544Y-14862204D02*
X11806116Y-14862204D01*
X11806116Y-14862204D02*
X11825164Y-14871728D01*
X11825164Y-14871728D02*
X11834687Y-14890775D01*
X11834687Y-14890775D02*
X11834687Y-14995537D01*
X11834687Y-14890775D02*
X11844211Y-14871728D01*
X11844211Y-14871728D02*
X11863259Y-14862204D01*
X11863259Y-14862204D02*
X11891830Y-14862204D01*
X11891830Y-14862204D02*
X11910878Y-14871728D01*
X11910878Y-14871728D02*
X11920402Y-14890775D01*
X11920402Y-14890775D02*
X11920402Y-14995537D01*
X12015640Y-14995537D02*
X12015640Y-14862204D01*
X12015640Y-14881251D02*
X12025164Y-14871728D01*
X12025164Y-14871728D02*
X12044211Y-14862204D01*
X12044211Y-14862204D02*
X12072783Y-14862204D01*
X12072783Y-14862204D02*
X12091830Y-14871728D01*
X12091830Y-14871728D02*
X12101354Y-14890775D01*
X12101354Y-14890775D02*
X12101354Y-14995537D01*
X12101354Y-14890775D02*
X12110878Y-14871728D01*
X12110878Y-14871728D02*
X12129925Y-14862204D01*
X12129925Y-14862204D02*
X12158497Y-14862204D01*
X12158497Y-14862204D02*
X12177545Y-14871728D01*
X12177545Y-14871728D02*
X12187068Y-14890775D01*
X12187068Y-14890775D02*
X12187068Y-14995537D01*
X12577545Y-14786013D02*
X12406116Y-15043156D01*
X12834687Y-14795537D02*
X12853735Y-14795537D01*
X12853735Y-14795537D02*
X12872783Y-14805061D01*
X12872783Y-14805061D02*
X12882307Y-14814585D01*
X12882307Y-14814585D02*
X12891830Y-14833632D01*
X12891830Y-14833632D02*
X12901354Y-14871728D01*
X12901354Y-14871728D02*
X12901354Y-14919347D01*
X12901354Y-14919347D02*
X12891830Y-14957442D01*
X12891830Y-14957442D02*
X12882307Y-14976489D01*
X12882307Y-14976489D02*
X12872783Y-14986013D01*
X12872783Y-14986013D02*
X12853735Y-14995537D01*
X12853735Y-14995537D02*
X12834687Y-14995537D01*
X12834687Y-14995537D02*
X12815640Y-14986013D01*
X12815640Y-14986013D02*
X12806116Y-14976489D01*
X12806116Y-14976489D02*
X12796592Y-14957442D01*
X12796592Y-14957442D02*
X12787068Y-14919347D01*
X12787068Y-14919347D02*
X12787068Y-14871728D01*
X12787068Y-14871728D02*
X12796592Y-14833632D01*
X12796592Y-14833632D02*
X12806116Y-14814585D01*
X12806116Y-14814585D02*
X12815640Y-14805061D01*
X12815640Y-14805061D02*
X12834687Y-14795537D01*
X12987068Y-14976489D02*
X12996592Y-14986013D01*
X12996592Y-14986013D02*
X12987068Y-14995537D01*
X12987068Y-14995537D02*
X12977545Y-14986013D01*
X12977545Y-14986013D02*
X12987068Y-14976489D01*
X12987068Y-14976489D02*
X12987068Y-14995537D01*
X13187068Y-14995537D02*
X13072783Y-14995537D01*
X13129926Y-14995537D02*
X13129926Y-14795537D01*
X13129926Y-14795537D02*
X13110878Y-14824109D01*
X13110878Y-14824109D02*
X13091830Y-14843156D01*
X13091830Y-14843156D02*
X13072783Y-14852680D01*
X13263259Y-14814585D02*
X13272783Y-14805061D01*
X13272783Y-14805061D02*
X13291830Y-14795537D01*
X13291830Y-14795537D02*
X13339449Y-14795537D01*
X13339449Y-14795537D02*
X13358497Y-14805061D01*
X13358497Y-14805061D02*
X13368021Y-14814585D01*
X13368021Y-14814585D02*
X13377545Y-14833632D01*
X13377545Y-14833632D02*
X13377545Y-14852680D01*
X13377545Y-14852680D02*
X13368021Y-14881251D01*
X13368021Y-14881251D02*
X13253735Y-14995537D01*
X13253735Y-14995537D02*
X13377545Y-14995537D01*
X13548973Y-14795537D02*
X13510878Y-14795537D01*
X13510878Y-14795537D02*
X13491830Y-14805061D01*
X13491830Y-14805061D02*
X13482307Y-14814585D01*
X13482307Y-14814585D02*
X13463259Y-14843156D01*
X13463259Y-14843156D02*
X13453735Y-14881251D01*
X13453735Y-14881251D02*
X13453735Y-14957442D01*
X13453735Y-14957442D02*
X13463259Y-14976489D01*
X13463259Y-14976489D02*
X13472783Y-14986013D01*
X13472783Y-14986013D02*
X13491830Y-14995537D01*
X13491830Y-14995537D02*
X13529926Y-14995537D01*
X13529926Y-14995537D02*
X13548973Y-14986013D01*
X13548973Y-14986013D02*
X13558497Y-14976489D01*
X13558497Y-14976489D02*
X13568021Y-14957442D01*
X13568021Y-14957442D02*
X13568021Y-14909823D01*
X13568021Y-14909823D02*
X13558497Y-14890775D01*
X13558497Y-14890775D02*
X13548973Y-14881251D01*
X13548973Y-14881251D02*
X13529926Y-14871728D01*
X13529926Y-14871728D02*
X13491830Y-14871728D01*
X13491830Y-14871728D02*
X13472783Y-14881251D01*
X13472783Y-14881251D02*
X13463259Y-14890775D01*
X13463259Y-14890775D02*
X13453735Y-14909823D01*
X13691830Y-14795537D02*
X13710878Y-14795537D01*
X13710878Y-14795537D02*
X13729926Y-14805061D01*
X13729926Y-14805061D02*
X13739449Y-14814585D01*
X13739449Y-14814585D02*
X13748973Y-14833632D01*
X13748973Y-14833632D02*
X13758497Y-14871728D01*
X13758497Y-14871728D02*
X13758497Y-14919347D01*
X13758497Y-14919347D02*
X13748973Y-14957442D01*
X13748973Y-14957442D02*
X13739449Y-14976489D01*
X13739449Y-14976489D02*
X13729926Y-14986013D01*
X13729926Y-14986013D02*
X13710878Y-14995537D01*
X13710878Y-14995537D02*
X13691830Y-14995537D01*
X13691830Y-14995537D02*
X13672783Y-14986013D01*
X13672783Y-14986013D02*
X13663259Y-14976489D01*
X13663259Y-14976489D02*
X13653735Y-14957442D01*
X13653735Y-14957442D02*
X13644211Y-14919347D01*
X13644211Y-14919347D02*
X13644211Y-14871728D01*
X13644211Y-14871728D02*
X13653735Y-14833632D01*
X13653735Y-14833632D02*
X13663259Y-14814585D01*
X13663259Y-14814585D02*
X13672783Y-14805061D01*
X13672783Y-14805061D02*
X13691830Y-14795537D01*
X13834688Y-14795537D02*
X13834688Y-14833632D01*
X13910878Y-14795537D02*
X13910878Y-14833632D01*
X14206116Y-15071728D02*
X14196592Y-15062204D01*
X14196592Y-15062204D02*
X14177545Y-15033632D01*
X14177545Y-15033632D02*
X14168021Y-15014585D01*
X14168021Y-15014585D02*
X14158497Y-14986013D01*
X14158497Y-14986013D02*
X14148973Y-14938394D01*
X14148973Y-14938394D02*
X14148973Y-14900299D01*
X14148973Y-14900299D02*
X14158497Y-14852680D01*
X14158497Y-14852680D02*
X14168021Y-14824109D01*
X14168021Y-14824109D02*
X14177545Y-14805061D01*
X14177545Y-14805061D02*
X14196592Y-14776489D01*
X14196592Y-14776489D02*
X14206116Y-14766966D01*
X14368021Y-14862204D02*
X14368021Y-14995537D01*
X14320402Y-14786013D02*
X14272783Y-14928870D01*
X14272783Y-14928870D02*
X14396592Y-14928870D01*
X14625164Y-14995537D02*
X14625164Y-14795537D01*
X14710878Y-14995537D02*
X14710878Y-14890775D01*
X14710878Y-14890775D02*
X14701354Y-14871728D01*
X14701354Y-14871728D02*
X14682307Y-14862204D01*
X14682307Y-14862204D02*
X14653735Y-14862204D01*
X14653735Y-14862204D02*
X14634688Y-14871728D01*
X14634688Y-14871728D02*
X14625164Y-14881251D01*
X14834688Y-14995537D02*
X14815640Y-14986013D01*
X14815640Y-14986013D02*
X14806116Y-14976489D01*
X14806116Y-14976489D02*
X14796592Y-14957442D01*
X14796592Y-14957442D02*
X14796592Y-14900299D01*
X14796592Y-14900299D02*
X14806116Y-14881251D01*
X14806116Y-14881251D02*
X14815640Y-14871728D01*
X14815640Y-14871728D02*
X14834688Y-14862204D01*
X14834688Y-14862204D02*
X14863259Y-14862204D01*
X14863259Y-14862204D02*
X14882307Y-14871728D01*
X14882307Y-14871728D02*
X14891831Y-14881251D01*
X14891831Y-14881251D02*
X14901354Y-14900299D01*
X14901354Y-14900299D02*
X14901354Y-14957442D01*
X14901354Y-14957442D02*
X14891831Y-14976489D01*
X14891831Y-14976489D02*
X14882307Y-14986013D01*
X14882307Y-14986013D02*
X14863259Y-14995537D01*
X14863259Y-14995537D02*
X14834688Y-14995537D01*
X15015640Y-14995537D02*
X14996592Y-14986013D01*
X14996592Y-14986013D02*
X14987069Y-14966966D01*
X14987069Y-14966966D02*
X14987069Y-14795537D01*
X15168021Y-14986013D02*
X15148973Y-14995537D01*
X15148973Y-14995537D02*
X15110878Y-14995537D01*
X15110878Y-14995537D02*
X15091831Y-14986013D01*
X15091831Y-14986013D02*
X15082307Y-14966966D01*
X15082307Y-14966966D02*
X15082307Y-14890775D01*
X15082307Y-14890775D02*
X15091831Y-14871728D01*
X15091831Y-14871728D02*
X15110878Y-14862204D01*
X15110878Y-14862204D02*
X15148973Y-14862204D01*
X15148973Y-14862204D02*
X15168021Y-14871728D01*
X15168021Y-14871728D02*
X15177545Y-14890775D01*
X15177545Y-14890775D02*
X15177545Y-14909823D01*
X15177545Y-14909823D02*
X15082307Y-14928870D01*
X15253735Y-14986013D02*
X15272783Y-14995537D01*
X15272783Y-14995537D02*
X15310878Y-14995537D01*
X15310878Y-14995537D02*
X15329926Y-14986013D01*
X15329926Y-14986013D02*
X15339450Y-14966966D01*
X15339450Y-14966966D02*
X15339450Y-14957442D01*
X15339450Y-14957442D02*
X15329926Y-14938394D01*
X15329926Y-14938394D02*
X15310878Y-14928870D01*
X15310878Y-14928870D02*
X15282307Y-14928870D01*
X15282307Y-14928870D02*
X15263259Y-14919347D01*
X15263259Y-14919347D02*
X15253735Y-14900299D01*
X15253735Y-14900299D02*
X15253735Y-14890775D01*
X15253735Y-14890775D02*
X15263259Y-14871728D01*
X15263259Y-14871728D02*
X15282307Y-14862204D01*
X15282307Y-14862204D02*
X15310878Y-14862204D01*
X15310878Y-14862204D02*
X15329926Y-14871728D01*
X15406116Y-15071728D02*
X15415640Y-15062204D01*
X15415640Y-15062204D02*
X15434688Y-15033632D01*
X15434688Y-15033632D02*
X15444212Y-15014585D01*
X15444212Y-15014585D02*
X15453735Y-14986013D01*
X15453735Y-14986013D02*
X15463259Y-14938394D01*
X15463259Y-14938394D02*
X15463259Y-14900299D01*
X15463259Y-14900299D02*
X15453735Y-14852680D01*
X15453735Y-14852680D02*
X15444212Y-14824109D01*
X15444212Y-14824109D02*
X15434688Y-14805061D01*
X15434688Y-14805061D02*
X15415640Y-14776489D01*
X15415640Y-14776489D02*
X15406116Y-14766966D01*
M02*
