%TF.GenerationSoftware,KiCad,Pcbnew,9.0.4*%
%TF.CreationDate,2025-10-10T12:55:55+05:30*%
%TF.ProjectId,VECTRON_V1,56454354-524f-44e5-9f56-312e6b696361,rev?*%
%TF.SameCoordinates,Original*%
%TF.FileFunction,Drillmap*%
%TF.FilePolarity,Positive*%
%FSLAX45Y45*%
G04 Gerber Fmt 4.5, Leading zero omitted, Abs format (unit mm)*
G04 Created by KiCad (PCBNEW 9.0.4) date 2025-10-10 12:55:55*
%MOMM*%
%LPD*%
G01*
G04 APERTURE LIST*
%ADD10C,0.050000*%
%ADD11C,0.200000*%
%ADD12C,0.100000*%
G04 APERTURE END LIST*
D10*
X18633553Y-11913553D02*
G75*
G02*
X18133553Y-12413553I-500003J3D01*
G01*
X18133553Y-4413553D02*
G75*
G02*
X18633547Y-4913553I-3J-499997D01*
G01*
X11133553Y-12413553D02*
X18133553Y-12413553D01*
X10633553Y-4913553D02*
G75*
G02*
X11133553Y-4413553I500000J0D01*
G01*
X10633553Y-4913553D02*
X10633553Y-11913553D01*
X18633553Y-11913553D02*
X18633553Y-4913553D01*
X18133553Y-4413553D02*
X11133553Y-4413553D01*
X11133553Y-12413553D02*
G75*
G02*
X10633547Y-11913553I-3J500003D01*
G01*
D11*
D12*
X17975000Y-5638500D02*
X18040000Y-5703500D01*
X18040000Y-5638500D02*
X17975000Y-5703500D01*
X17975000Y-6216500D02*
X18040000Y-6281500D01*
X18040000Y-6216500D02*
X17975000Y-6281500D01*
D11*
X10891830Y-12727537D02*
X10891830Y-12527537D01*
X10891830Y-12527537D02*
X10939449Y-12527537D01*
X10939449Y-12527537D02*
X10968021Y-12537061D01*
X10968021Y-12537061D02*
X10987068Y-12556109D01*
X10987068Y-12556109D02*
X10996592Y-12575156D01*
X10996592Y-12575156D02*
X11006116Y-12613251D01*
X11006116Y-12613251D02*
X11006116Y-12641823D01*
X11006116Y-12641823D02*
X10996592Y-12679918D01*
X10996592Y-12679918D02*
X10987068Y-12698966D01*
X10987068Y-12698966D02*
X10968021Y-12718013D01*
X10968021Y-12718013D02*
X10939449Y-12727537D01*
X10939449Y-12727537D02*
X10891830Y-12727537D01*
X11091830Y-12727537D02*
X11091830Y-12594204D01*
X11091830Y-12632299D02*
X11101354Y-12613251D01*
X11101354Y-12613251D02*
X11110878Y-12603728D01*
X11110878Y-12603728D02*
X11129925Y-12594204D01*
X11129925Y-12594204D02*
X11148973Y-12594204D01*
X11215640Y-12727537D02*
X11215640Y-12594204D01*
X11215640Y-12527537D02*
X11206116Y-12537061D01*
X11206116Y-12537061D02*
X11215640Y-12546585D01*
X11215640Y-12546585D02*
X11225163Y-12537061D01*
X11225163Y-12537061D02*
X11215640Y-12527537D01*
X11215640Y-12527537D02*
X11215640Y-12546585D01*
X11339449Y-12727537D02*
X11320402Y-12718013D01*
X11320402Y-12718013D02*
X11310878Y-12698966D01*
X11310878Y-12698966D02*
X11310878Y-12527537D01*
X11444211Y-12727537D02*
X11425163Y-12718013D01*
X11425163Y-12718013D02*
X11415640Y-12698966D01*
X11415640Y-12698966D02*
X11415640Y-12527537D01*
X11672783Y-12727537D02*
X11672783Y-12527537D01*
X11672783Y-12527537D02*
X11739449Y-12670394D01*
X11739449Y-12670394D02*
X11806116Y-12527537D01*
X11806116Y-12527537D02*
X11806116Y-12727537D01*
X11987068Y-12727537D02*
X11987068Y-12622775D01*
X11987068Y-12622775D02*
X11977544Y-12603728D01*
X11977544Y-12603728D02*
X11958497Y-12594204D01*
X11958497Y-12594204D02*
X11920402Y-12594204D01*
X11920402Y-12594204D02*
X11901354Y-12603728D01*
X11987068Y-12718013D02*
X11968021Y-12727537D01*
X11968021Y-12727537D02*
X11920402Y-12727537D01*
X11920402Y-12727537D02*
X11901354Y-12718013D01*
X11901354Y-12718013D02*
X11891830Y-12698966D01*
X11891830Y-12698966D02*
X11891830Y-12679918D01*
X11891830Y-12679918D02*
X11901354Y-12660870D01*
X11901354Y-12660870D02*
X11920402Y-12651347D01*
X11920402Y-12651347D02*
X11968021Y-12651347D01*
X11968021Y-12651347D02*
X11987068Y-12641823D01*
X12082306Y-12594204D02*
X12082306Y-12794204D01*
X12082306Y-12603728D02*
X12101354Y-12594204D01*
X12101354Y-12594204D02*
X12139449Y-12594204D01*
X12139449Y-12594204D02*
X12158497Y-12603728D01*
X12158497Y-12603728D02*
X12168021Y-12613251D01*
X12168021Y-12613251D02*
X12177544Y-12632299D01*
X12177544Y-12632299D02*
X12177544Y-12689442D01*
X12177544Y-12689442D02*
X12168021Y-12708489D01*
X12168021Y-12708489D02*
X12158497Y-12718013D01*
X12158497Y-12718013D02*
X12139449Y-12727537D01*
X12139449Y-12727537D02*
X12101354Y-12727537D01*
X12101354Y-12727537D02*
X12082306Y-12718013D01*
X12263259Y-12708489D02*
X12272783Y-12718013D01*
X12272783Y-12718013D02*
X12263259Y-12727537D01*
X12263259Y-12727537D02*
X12253735Y-12718013D01*
X12253735Y-12718013D02*
X12263259Y-12708489D01*
X12263259Y-12708489D02*
X12263259Y-12727537D01*
X12263259Y-12603728D02*
X12272783Y-12613251D01*
X12272783Y-12613251D02*
X12263259Y-12622775D01*
X12263259Y-12622775D02*
X12253735Y-12613251D01*
X12253735Y-12613251D02*
X12263259Y-12603728D01*
X12263259Y-12603728D02*
X12263259Y-12622775D01*
D12*
X10566053Y-13023553D02*
X10631053Y-13088553D01*
X10631053Y-13023553D02*
X10566053Y-13088553D01*
D11*
X10929925Y-12947537D02*
X10948973Y-12947537D01*
X10948973Y-12947537D02*
X10968021Y-12957061D01*
X10968021Y-12957061D02*
X10977545Y-12966585D01*
X10977545Y-12966585D02*
X10987068Y-12985632D01*
X10987068Y-12985632D02*
X10996592Y-13023728D01*
X10996592Y-13023728D02*
X10996592Y-13071347D01*
X10996592Y-13071347D02*
X10987068Y-13109442D01*
X10987068Y-13109442D02*
X10977545Y-13128489D01*
X10977545Y-13128489D02*
X10968021Y-13138013D01*
X10968021Y-13138013D02*
X10948973Y-13147537D01*
X10948973Y-13147537D02*
X10929925Y-13147537D01*
X10929925Y-13147537D02*
X10910878Y-13138013D01*
X10910878Y-13138013D02*
X10901354Y-13128489D01*
X10901354Y-13128489D02*
X10891830Y-13109442D01*
X10891830Y-13109442D02*
X10882306Y-13071347D01*
X10882306Y-13071347D02*
X10882306Y-13023728D01*
X10882306Y-13023728D02*
X10891830Y-12985632D01*
X10891830Y-12985632D02*
X10901354Y-12966585D01*
X10901354Y-12966585D02*
X10910878Y-12957061D01*
X10910878Y-12957061D02*
X10929925Y-12947537D01*
X11082306Y-13128489D02*
X11091830Y-13138013D01*
X11091830Y-13138013D02*
X11082306Y-13147537D01*
X11082306Y-13147537D02*
X11072783Y-13138013D01*
X11072783Y-13138013D02*
X11082306Y-13128489D01*
X11082306Y-13128489D02*
X11082306Y-13147537D01*
X11263259Y-12947537D02*
X11225163Y-12947537D01*
X11225163Y-12947537D02*
X11206116Y-12957061D01*
X11206116Y-12957061D02*
X11196592Y-12966585D01*
X11196592Y-12966585D02*
X11177545Y-12995156D01*
X11177545Y-12995156D02*
X11168021Y-13033251D01*
X11168021Y-13033251D02*
X11168021Y-13109442D01*
X11168021Y-13109442D02*
X11177545Y-13128489D01*
X11177545Y-13128489D02*
X11187068Y-13138013D01*
X11187068Y-13138013D02*
X11206116Y-13147537D01*
X11206116Y-13147537D02*
X11244211Y-13147537D01*
X11244211Y-13147537D02*
X11263259Y-13138013D01*
X11263259Y-13138013D02*
X11272783Y-13128489D01*
X11272783Y-13128489D02*
X11282306Y-13109442D01*
X11282306Y-13109442D02*
X11282306Y-13061823D01*
X11282306Y-13061823D02*
X11272783Y-13042775D01*
X11272783Y-13042775D02*
X11263259Y-13033251D01*
X11263259Y-13033251D02*
X11244211Y-13023728D01*
X11244211Y-13023728D02*
X11206116Y-13023728D01*
X11206116Y-13023728D02*
X11187068Y-13033251D01*
X11187068Y-13033251D02*
X11177545Y-13042775D01*
X11177545Y-13042775D02*
X11168021Y-13061823D01*
X11463259Y-12947537D02*
X11368021Y-12947537D01*
X11368021Y-12947537D02*
X11358497Y-13042775D01*
X11358497Y-13042775D02*
X11368021Y-13033251D01*
X11368021Y-13033251D02*
X11387068Y-13023728D01*
X11387068Y-13023728D02*
X11434687Y-13023728D01*
X11434687Y-13023728D02*
X11453735Y-13033251D01*
X11453735Y-13033251D02*
X11463259Y-13042775D01*
X11463259Y-13042775D02*
X11472783Y-13061823D01*
X11472783Y-13061823D02*
X11472783Y-13109442D01*
X11472783Y-13109442D02*
X11463259Y-13128489D01*
X11463259Y-13128489D02*
X11453735Y-13138013D01*
X11453735Y-13138013D02*
X11434687Y-13147537D01*
X11434687Y-13147537D02*
X11387068Y-13147537D01*
X11387068Y-13147537D02*
X11368021Y-13138013D01*
X11368021Y-13138013D02*
X11358497Y-13128489D01*
X11596592Y-12947537D02*
X11615640Y-12947537D01*
X11615640Y-12947537D02*
X11634687Y-12957061D01*
X11634687Y-12957061D02*
X11644211Y-12966585D01*
X11644211Y-12966585D02*
X11653735Y-12985632D01*
X11653735Y-12985632D02*
X11663259Y-13023728D01*
X11663259Y-13023728D02*
X11663259Y-13071347D01*
X11663259Y-13071347D02*
X11653735Y-13109442D01*
X11653735Y-13109442D02*
X11644211Y-13128489D01*
X11644211Y-13128489D02*
X11634687Y-13138013D01*
X11634687Y-13138013D02*
X11615640Y-13147537D01*
X11615640Y-13147537D02*
X11596592Y-13147537D01*
X11596592Y-13147537D02*
X11577544Y-13138013D01*
X11577544Y-13138013D02*
X11568021Y-13128489D01*
X11568021Y-13128489D02*
X11558497Y-13109442D01*
X11558497Y-13109442D02*
X11548973Y-13071347D01*
X11548973Y-13071347D02*
X11548973Y-13023728D01*
X11548973Y-13023728D02*
X11558497Y-12985632D01*
X11558497Y-12985632D02*
X11568021Y-12966585D01*
X11568021Y-12966585D02*
X11577544Y-12957061D01*
X11577544Y-12957061D02*
X11596592Y-12947537D01*
X11748973Y-13147537D02*
X11748973Y-13014204D01*
X11748973Y-13033251D02*
X11758497Y-13023728D01*
X11758497Y-13023728D02*
X11777544Y-13014204D01*
X11777544Y-13014204D02*
X11806116Y-13014204D01*
X11806116Y-13014204D02*
X11825164Y-13023728D01*
X11825164Y-13023728D02*
X11834687Y-13042775D01*
X11834687Y-13042775D02*
X11834687Y-13147537D01*
X11834687Y-13042775D02*
X11844211Y-13023728D01*
X11844211Y-13023728D02*
X11863259Y-13014204D01*
X11863259Y-13014204D02*
X11891830Y-13014204D01*
X11891830Y-13014204D02*
X11910878Y-13023728D01*
X11910878Y-13023728D02*
X11920402Y-13042775D01*
X11920402Y-13042775D02*
X11920402Y-13147537D01*
X12015640Y-13147537D02*
X12015640Y-13014204D01*
X12015640Y-13033251D02*
X12025164Y-13023728D01*
X12025164Y-13023728D02*
X12044211Y-13014204D01*
X12044211Y-13014204D02*
X12072783Y-13014204D01*
X12072783Y-13014204D02*
X12091830Y-13023728D01*
X12091830Y-13023728D02*
X12101354Y-13042775D01*
X12101354Y-13042775D02*
X12101354Y-13147537D01*
X12101354Y-13042775D02*
X12110878Y-13023728D01*
X12110878Y-13023728D02*
X12129925Y-13014204D01*
X12129925Y-13014204D02*
X12158497Y-13014204D01*
X12158497Y-13014204D02*
X12177545Y-13023728D01*
X12177545Y-13023728D02*
X12187068Y-13042775D01*
X12187068Y-13042775D02*
X12187068Y-13147537D01*
X12577545Y-12938013D02*
X12406116Y-13195156D01*
X12834687Y-12947537D02*
X12853735Y-12947537D01*
X12853735Y-12947537D02*
X12872783Y-12957061D01*
X12872783Y-12957061D02*
X12882307Y-12966585D01*
X12882307Y-12966585D02*
X12891830Y-12985632D01*
X12891830Y-12985632D02*
X12901354Y-13023728D01*
X12901354Y-13023728D02*
X12901354Y-13071347D01*
X12901354Y-13071347D02*
X12891830Y-13109442D01*
X12891830Y-13109442D02*
X12882307Y-13128489D01*
X12882307Y-13128489D02*
X12872783Y-13138013D01*
X12872783Y-13138013D02*
X12853735Y-13147537D01*
X12853735Y-13147537D02*
X12834687Y-13147537D01*
X12834687Y-13147537D02*
X12815640Y-13138013D01*
X12815640Y-13138013D02*
X12806116Y-13128489D01*
X12806116Y-13128489D02*
X12796592Y-13109442D01*
X12796592Y-13109442D02*
X12787068Y-13071347D01*
X12787068Y-13071347D02*
X12787068Y-13023728D01*
X12787068Y-13023728D02*
X12796592Y-12985632D01*
X12796592Y-12985632D02*
X12806116Y-12966585D01*
X12806116Y-12966585D02*
X12815640Y-12957061D01*
X12815640Y-12957061D02*
X12834687Y-12947537D01*
X12987068Y-13128489D02*
X12996592Y-13138013D01*
X12996592Y-13138013D02*
X12987068Y-13147537D01*
X12987068Y-13147537D02*
X12977545Y-13138013D01*
X12977545Y-13138013D02*
X12987068Y-13128489D01*
X12987068Y-13128489D02*
X12987068Y-13147537D01*
X13120402Y-12947537D02*
X13139449Y-12947537D01*
X13139449Y-12947537D02*
X13158497Y-12957061D01*
X13158497Y-12957061D02*
X13168021Y-12966585D01*
X13168021Y-12966585D02*
X13177545Y-12985632D01*
X13177545Y-12985632D02*
X13187068Y-13023728D01*
X13187068Y-13023728D02*
X13187068Y-13071347D01*
X13187068Y-13071347D02*
X13177545Y-13109442D01*
X13177545Y-13109442D02*
X13168021Y-13128489D01*
X13168021Y-13128489D02*
X13158497Y-13138013D01*
X13158497Y-13138013D02*
X13139449Y-13147537D01*
X13139449Y-13147537D02*
X13120402Y-13147537D01*
X13120402Y-13147537D02*
X13101354Y-13138013D01*
X13101354Y-13138013D02*
X13091830Y-13128489D01*
X13091830Y-13128489D02*
X13082307Y-13109442D01*
X13082307Y-13109442D02*
X13072783Y-13071347D01*
X13072783Y-13071347D02*
X13072783Y-13023728D01*
X13072783Y-13023728D02*
X13082307Y-12985632D01*
X13082307Y-12985632D02*
X13091830Y-12966585D01*
X13091830Y-12966585D02*
X13101354Y-12957061D01*
X13101354Y-12957061D02*
X13120402Y-12947537D01*
X13263259Y-12966585D02*
X13272783Y-12957061D01*
X13272783Y-12957061D02*
X13291830Y-12947537D01*
X13291830Y-12947537D02*
X13339449Y-12947537D01*
X13339449Y-12947537D02*
X13358497Y-12957061D01*
X13358497Y-12957061D02*
X13368021Y-12966585D01*
X13368021Y-12966585D02*
X13377545Y-12985632D01*
X13377545Y-12985632D02*
X13377545Y-13004680D01*
X13377545Y-13004680D02*
X13368021Y-13033251D01*
X13368021Y-13033251D02*
X13253735Y-13147537D01*
X13253735Y-13147537D02*
X13377545Y-13147537D01*
X13558497Y-12947537D02*
X13463259Y-12947537D01*
X13463259Y-12947537D02*
X13453735Y-13042775D01*
X13453735Y-13042775D02*
X13463259Y-13033251D01*
X13463259Y-13033251D02*
X13482307Y-13023728D01*
X13482307Y-13023728D02*
X13529926Y-13023728D01*
X13529926Y-13023728D02*
X13548973Y-13033251D01*
X13548973Y-13033251D02*
X13558497Y-13042775D01*
X13558497Y-13042775D02*
X13568021Y-13061823D01*
X13568021Y-13061823D02*
X13568021Y-13109442D01*
X13568021Y-13109442D02*
X13558497Y-13128489D01*
X13558497Y-13128489D02*
X13548973Y-13138013D01*
X13548973Y-13138013D02*
X13529926Y-13147537D01*
X13529926Y-13147537D02*
X13482307Y-13147537D01*
X13482307Y-13147537D02*
X13463259Y-13138013D01*
X13463259Y-13138013D02*
X13453735Y-13128489D01*
X13739449Y-12947537D02*
X13701354Y-12947537D01*
X13701354Y-12947537D02*
X13682307Y-12957061D01*
X13682307Y-12957061D02*
X13672783Y-12966585D01*
X13672783Y-12966585D02*
X13653735Y-12995156D01*
X13653735Y-12995156D02*
X13644211Y-13033251D01*
X13644211Y-13033251D02*
X13644211Y-13109442D01*
X13644211Y-13109442D02*
X13653735Y-13128489D01*
X13653735Y-13128489D02*
X13663259Y-13138013D01*
X13663259Y-13138013D02*
X13682307Y-13147537D01*
X13682307Y-13147537D02*
X13720402Y-13147537D01*
X13720402Y-13147537D02*
X13739449Y-13138013D01*
X13739449Y-13138013D02*
X13748973Y-13128489D01*
X13748973Y-13128489D02*
X13758497Y-13109442D01*
X13758497Y-13109442D02*
X13758497Y-13061823D01*
X13758497Y-13061823D02*
X13748973Y-13042775D01*
X13748973Y-13042775D02*
X13739449Y-13033251D01*
X13739449Y-13033251D02*
X13720402Y-13023728D01*
X13720402Y-13023728D02*
X13682307Y-13023728D01*
X13682307Y-13023728D02*
X13663259Y-13033251D01*
X13663259Y-13033251D02*
X13653735Y-13042775D01*
X13653735Y-13042775D02*
X13644211Y-13061823D01*
X13834688Y-12947537D02*
X13834688Y-12985632D01*
X13910878Y-12947537D02*
X13910878Y-12985632D01*
X14206116Y-13223728D02*
X14196592Y-13214204D01*
X14196592Y-13214204D02*
X14177545Y-13185632D01*
X14177545Y-13185632D02*
X14168021Y-13166585D01*
X14168021Y-13166585D02*
X14158497Y-13138013D01*
X14158497Y-13138013D02*
X14148973Y-13090394D01*
X14148973Y-13090394D02*
X14148973Y-13052299D01*
X14148973Y-13052299D02*
X14158497Y-13004680D01*
X14158497Y-13004680D02*
X14168021Y-12976109D01*
X14168021Y-12976109D02*
X14177545Y-12957061D01*
X14177545Y-12957061D02*
X14196592Y-12928489D01*
X14196592Y-12928489D02*
X14206116Y-12918966D01*
X14272783Y-12966585D02*
X14282307Y-12957061D01*
X14282307Y-12957061D02*
X14301354Y-12947537D01*
X14301354Y-12947537D02*
X14348973Y-12947537D01*
X14348973Y-12947537D02*
X14368021Y-12957061D01*
X14368021Y-12957061D02*
X14377545Y-12966585D01*
X14377545Y-12966585D02*
X14387069Y-12985632D01*
X14387069Y-12985632D02*
X14387069Y-13004680D01*
X14387069Y-13004680D02*
X14377545Y-13033251D01*
X14377545Y-13033251D02*
X14263259Y-13147537D01*
X14263259Y-13147537D02*
X14387069Y-13147537D01*
X14625164Y-13147537D02*
X14625164Y-12947537D01*
X14710878Y-13147537D02*
X14710878Y-13042775D01*
X14710878Y-13042775D02*
X14701354Y-13023728D01*
X14701354Y-13023728D02*
X14682307Y-13014204D01*
X14682307Y-13014204D02*
X14653735Y-13014204D01*
X14653735Y-13014204D02*
X14634688Y-13023728D01*
X14634688Y-13023728D02*
X14625164Y-13033251D01*
X14834688Y-13147537D02*
X14815640Y-13138013D01*
X14815640Y-13138013D02*
X14806116Y-13128489D01*
X14806116Y-13128489D02*
X14796592Y-13109442D01*
X14796592Y-13109442D02*
X14796592Y-13052299D01*
X14796592Y-13052299D02*
X14806116Y-13033251D01*
X14806116Y-13033251D02*
X14815640Y-13023728D01*
X14815640Y-13023728D02*
X14834688Y-13014204D01*
X14834688Y-13014204D02*
X14863259Y-13014204D01*
X14863259Y-13014204D02*
X14882307Y-13023728D01*
X14882307Y-13023728D02*
X14891831Y-13033251D01*
X14891831Y-13033251D02*
X14901354Y-13052299D01*
X14901354Y-13052299D02*
X14901354Y-13109442D01*
X14901354Y-13109442D02*
X14891831Y-13128489D01*
X14891831Y-13128489D02*
X14882307Y-13138013D01*
X14882307Y-13138013D02*
X14863259Y-13147537D01*
X14863259Y-13147537D02*
X14834688Y-13147537D01*
X15015640Y-13147537D02*
X14996592Y-13138013D01*
X14996592Y-13138013D02*
X14987069Y-13118966D01*
X14987069Y-13118966D02*
X14987069Y-12947537D01*
X15168021Y-13138013D02*
X15148973Y-13147537D01*
X15148973Y-13147537D02*
X15110878Y-13147537D01*
X15110878Y-13147537D02*
X15091831Y-13138013D01*
X15091831Y-13138013D02*
X15082307Y-13118966D01*
X15082307Y-13118966D02*
X15082307Y-13042775D01*
X15082307Y-13042775D02*
X15091831Y-13023728D01*
X15091831Y-13023728D02*
X15110878Y-13014204D01*
X15110878Y-13014204D02*
X15148973Y-13014204D01*
X15148973Y-13014204D02*
X15168021Y-13023728D01*
X15168021Y-13023728D02*
X15177545Y-13042775D01*
X15177545Y-13042775D02*
X15177545Y-13061823D01*
X15177545Y-13061823D02*
X15082307Y-13080870D01*
X15253735Y-13138013D02*
X15272783Y-13147537D01*
X15272783Y-13147537D02*
X15310878Y-13147537D01*
X15310878Y-13147537D02*
X15329926Y-13138013D01*
X15329926Y-13138013D02*
X15339450Y-13118966D01*
X15339450Y-13118966D02*
X15339450Y-13109442D01*
X15339450Y-13109442D02*
X15329926Y-13090394D01*
X15329926Y-13090394D02*
X15310878Y-13080870D01*
X15310878Y-13080870D02*
X15282307Y-13080870D01*
X15282307Y-13080870D02*
X15263259Y-13071347D01*
X15263259Y-13071347D02*
X15253735Y-13052299D01*
X15253735Y-13052299D02*
X15253735Y-13042775D01*
X15253735Y-13042775D02*
X15263259Y-13023728D01*
X15263259Y-13023728D02*
X15282307Y-13014204D01*
X15282307Y-13014204D02*
X15310878Y-13014204D01*
X15310878Y-13014204D02*
X15329926Y-13023728D01*
X15406116Y-13223728D02*
X15415640Y-13214204D01*
X15415640Y-13214204D02*
X15434688Y-13185632D01*
X15434688Y-13185632D02*
X15444212Y-13166585D01*
X15444212Y-13166585D02*
X15453735Y-13138013D01*
X15453735Y-13138013D02*
X15463259Y-13090394D01*
X15463259Y-13090394D02*
X15463259Y-13052299D01*
X15463259Y-13052299D02*
X15453735Y-13004680D01*
X15453735Y-13004680D02*
X15444212Y-12976109D01*
X15444212Y-12976109D02*
X15434688Y-12957061D01*
X15434688Y-12957061D02*
X15415640Y-12928489D01*
X15415640Y-12928489D02*
X15406116Y-12918966D01*
X15768021Y-13223728D02*
X15758497Y-13214204D01*
X15758497Y-13214204D02*
X15739450Y-13185632D01*
X15739450Y-13185632D02*
X15729926Y-13166585D01*
X15729926Y-13166585D02*
X15720402Y-13138013D01*
X15720402Y-13138013D02*
X15710878Y-13090394D01*
X15710878Y-13090394D02*
X15710878Y-13052299D01*
X15710878Y-13052299D02*
X15720402Y-13004680D01*
X15720402Y-13004680D02*
X15729926Y-12976109D01*
X15729926Y-12976109D02*
X15739450Y-12957061D01*
X15739450Y-12957061D02*
X15758497Y-12928489D01*
X15758497Y-12928489D02*
X15768021Y-12918966D01*
X15844212Y-13014204D02*
X15844212Y-13147537D01*
X15844212Y-13033251D02*
X15853735Y-13023728D01*
X15853735Y-13023728D02*
X15872783Y-13014204D01*
X15872783Y-13014204D02*
X15901354Y-13014204D01*
X15901354Y-13014204D02*
X15920402Y-13023728D01*
X15920402Y-13023728D02*
X15929926Y-13042775D01*
X15929926Y-13042775D02*
X15929926Y-13147537D01*
X16053735Y-13147537D02*
X16034688Y-13138013D01*
X16034688Y-13138013D02*
X16025164Y-13128489D01*
X16025164Y-13128489D02*
X16015640Y-13109442D01*
X16015640Y-13109442D02*
X16015640Y-13052299D01*
X16015640Y-13052299D02*
X16025164Y-13033251D01*
X16025164Y-13033251D02*
X16034688Y-13023728D01*
X16034688Y-13023728D02*
X16053735Y-13014204D01*
X16053735Y-13014204D02*
X16082307Y-13014204D01*
X16082307Y-13014204D02*
X16101354Y-13023728D01*
X16101354Y-13023728D02*
X16110878Y-13033251D01*
X16110878Y-13033251D02*
X16120402Y-13052299D01*
X16120402Y-13052299D02*
X16120402Y-13109442D01*
X16120402Y-13109442D02*
X16110878Y-13128489D01*
X16110878Y-13128489D02*
X16101354Y-13138013D01*
X16101354Y-13138013D02*
X16082307Y-13147537D01*
X16082307Y-13147537D02*
X16053735Y-13147537D01*
X16177545Y-13014204D02*
X16253735Y-13014204D01*
X16206116Y-12947537D02*
X16206116Y-13118966D01*
X16206116Y-13118966D02*
X16215640Y-13138013D01*
X16215640Y-13138013D02*
X16234688Y-13147537D01*
X16234688Y-13147537D02*
X16253735Y-13147537D01*
X16472783Y-13014204D02*
X16472783Y-13214204D01*
X16472783Y-13023728D02*
X16491831Y-13014204D01*
X16491831Y-13014204D02*
X16529926Y-13014204D01*
X16529926Y-13014204D02*
X16548974Y-13023728D01*
X16548974Y-13023728D02*
X16558497Y-13033251D01*
X16558497Y-13033251D02*
X16568021Y-13052299D01*
X16568021Y-13052299D02*
X16568021Y-13109442D01*
X16568021Y-13109442D02*
X16558497Y-13128489D01*
X16558497Y-13128489D02*
X16548974Y-13138013D01*
X16548974Y-13138013D02*
X16529926Y-13147537D01*
X16529926Y-13147537D02*
X16491831Y-13147537D01*
X16491831Y-13147537D02*
X16472783Y-13138013D01*
X16682307Y-13147537D02*
X16663259Y-13138013D01*
X16663259Y-13138013D02*
X16653735Y-13118966D01*
X16653735Y-13118966D02*
X16653735Y-12947537D01*
X16844212Y-13147537D02*
X16844212Y-13042775D01*
X16844212Y-13042775D02*
X16834688Y-13023728D01*
X16834688Y-13023728D02*
X16815640Y-13014204D01*
X16815640Y-13014204D02*
X16777545Y-13014204D01*
X16777545Y-13014204D02*
X16758497Y-13023728D01*
X16844212Y-13138013D02*
X16825164Y-13147537D01*
X16825164Y-13147537D02*
X16777545Y-13147537D01*
X16777545Y-13147537D02*
X16758497Y-13138013D01*
X16758497Y-13138013D02*
X16748974Y-13118966D01*
X16748974Y-13118966D02*
X16748974Y-13099918D01*
X16748974Y-13099918D02*
X16758497Y-13080870D01*
X16758497Y-13080870D02*
X16777545Y-13071347D01*
X16777545Y-13071347D02*
X16825164Y-13071347D01*
X16825164Y-13071347D02*
X16844212Y-13061823D01*
X16910878Y-13014204D02*
X16987069Y-13014204D01*
X16939450Y-12947537D02*
X16939450Y-13118966D01*
X16939450Y-13118966D02*
X16948974Y-13138013D01*
X16948974Y-13138013D02*
X16968021Y-13147537D01*
X16968021Y-13147537D02*
X16987069Y-13147537D01*
X17129926Y-13138013D02*
X17110878Y-13147537D01*
X17110878Y-13147537D02*
X17072783Y-13147537D01*
X17072783Y-13147537D02*
X17053736Y-13138013D01*
X17053736Y-13138013D02*
X17044212Y-13118966D01*
X17044212Y-13118966D02*
X17044212Y-13042775D01*
X17044212Y-13042775D02*
X17053736Y-13023728D01*
X17053736Y-13023728D02*
X17072783Y-13014204D01*
X17072783Y-13014204D02*
X17110878Y-13014204D01*
X17110878Y-13014204D02*
X17129926Y-13023728D01*
X17129926Y-13023728D02*
X17139450Y-13042775D01*
X17139450Y-13042775D02*
X17139450Y-13061823D01*
X17139450Y-13061823D02*
X17044212Y-13080870D01*
X17310878Y-13147537D02*
X17310878Y-12947537D01*
X17310878Y-13138013D02*
X17291831Y-13147537D01*
X17291831Y-13147537D02*
X17253736Y-13147537D01*
X17253736Y-13147537D02*
X17234688Y-13138013D01*
X17234688Y-13138013D02*
X17225164Y-13128489D01*
X17225164Y-13128489D02*
X17215640Y-13109442D01*
X17215640Y-13109442D02*
X17215640Y-13052299D01*
X17215640Y-13052299D02*
X17225164Y-13033251D01*
X17225164Y-13033251D02*
X17234688Y-13023728D01*
X17234688Y-13023728D02*
X17253736Y-13014204D01*
X17253736Y-13014204D02*
X17291831Y-13014204D01*
X17291831Y-13014204D02*
X17310878Y-13023728D01*
X17387069Y-13223728D02*
X17396593Y-13214204D01*
X17396593Y-13214204D02*
X17415640Y-13185632D01*
X17415640Y-13185632D02*
X17425164Y-13166585D01*
X17425164Y-13166585D02*
X17434688Y-13138013D01*
X17434688Y-13138013D02*
X17444212Y-13090394D01*
X17444212Y-13090394D02*
X17444212Y-13052299D01*
X17444212Y-13052299D02*
X17434688Y-13004680D01*
X17434688Y-13004680D02*
X17425164Y-12976109D01*
X17425164Y-12976109D02*
X17415640Y-12957061D01*
X17415640Y-12957061D02*
X17396593Y-12928489D01*
X17396593Y-12928489D02*
X17387069Y-12918966D01*
M02*
