G04 #@! TF.GenerationSoftware,KiCad,Pcbnew,9.0.4*
G04 #@! TF.CreationDate,2025-10-10T12:55:53+05:30*
G04 #@! TF.ProjectId,VECTRON_V1,56454354-524f-44e5-9f56-312e6b696361,rev?*
G04 #@! TF.SameCoordinates,Original*
G04 #@! TF.FileFunction,Paste,Bot*
G04 #@! TF.FilePolarity,Positive*
%FSLAX46Y46*%
G04 Gerber Fmt 4.6, Leading zero omitted, Abs format (unit mm)*
G04 Created by KiCad (PCBNEW 9.0.4) date 2025-10-10 12:55:53*
%MOMM*%
%LPD*%
G01*
G04 APERTURE LIST*
G04 Aperture macros list*
%AMRoundRect*
0 Rectangle with rounded corners*
0 $1 Rounding radius*
0 $2 $3 $4 $5 $6 $7 $8 $9 X,Y pos of 4 corners*
0 Add a 4 corners polygon primitive as box body*
4,1,4,$2,$3,$4,$5,$6,$7,$8,$9,$2,$3,0*
0 Add four circle primitives for the rounded corners*
1,1,$1+$1,$2,$3*
1,1,$1+$1,$4,$5*
1,1,$1+$1,$6,$7*
1,1,$1+$1,$8,$9*
0 Add four rect primitives between the rounded corners*
20,1,$1+$1,$2,$3,$4,$5,0*
20,1,$1+$1,$4,$5,$6,$7,0*
20,1,$1+$1,$6,$7,$8,$9,0*
20,1,$1+$1,$8,$9,$2,$3,0*%
%AMFreePoly0*
4,1,21,1.372500,0.787500,0.862500,0.787500,0.862500,0.532500,1.372500,0.532500,1.372500,0.127500,0.862500,0.127500,0.862500,-0.127500,1.372500,-0.127500,1.372500,-0.532500,0.862500,-0.532500,0.862500,-0.787500,1.372500,-0.787500,1.372500,-1.195000,0.612500,-1.195000,0.612500,-1.117500,-0.862500,-1.117500,-0.862500,1.117500,0.612500,1.117500,0.612500,1.195000,1.372500,1.195000,
1.372500,0.787500,1.372500,0.787500,$1*%
G04 Aperture macros list end*
%ADD10RoundRect,0.225000X-0.250000X0.225000X-0.250000X-0.225000X0.250000X-0.225000X0.250000X0.225000X0*%
%ADD11RoundRect,0.140000X-0.170000X0.140000X-0.170000X-0.140000X0.170000X-0.140000X0.170000X0.140000X0*%
%ADD12RoundRect,0.200000X0.275000X-0.200000X0.275000X0.200000X-0.275000X0.200000X-0.275000X-0.200000X0*%
%ADD13RoundRect,0.140000X0.170000X-0.140000X0.170000X0.140000X-0.170000X0.140000X-0.170000X-0.140000X0*%
%ADD14RoundRect,0.200000X-0.200000X-0.275000X0.200000X-0.275000X0.200000X0.275000X-0.200000X0.275000X0*%
%ADD15RoundRect,0.200000X-0.275000X0.200000X-0.275000X-0.200000X0.275000X-0.200000X0.275000X0.200000X0*%
%ADD16R,5.000000X5.000000*%
%ADD17C,10.700000*%
%ADD18R,0.990000X0.405000*%
%ADD19FreePoly0,180.000000*%
%ADD20RoundRect,0.225000X-0.225000X-0.250000X0.225000X-0.250000X0.225000X0.250000X-0.225000X0.250000X0*%
%ADD21RoundRect,0.225000X0.225000X0.250000X-0.225000X0.250000X-0.225000X-0.250000X0.225000X-0.250000X0*%
%ADD22RoundRect,0.225000X0.250000X-0.225000X0.250000X0.225000X-0.250000X0.225000X-0.250000X-0.225000X0*%
%ADD23RoundRect,0.200000X0.200000X0.275000X-0.200000X0.275000X-0.200000X-0.275000X0.200000X-0.275000X0*%
%ADD24RoundRect,0.150000X0.200000X-0.150000X0.200000X0.150000X-0.200000X0.150000X-0.200000X-0.150000X0*%
%ADD25RoundRect,0.218750X0.256250X-0.218750X0.256250X0.218750X-0.256250X0.218750X-0.256250X-0.218750X0*%
G04 APERTURE END LIST*
D10*
X113000000Y-82425000D03*
X113000000Y-83975000D03*
D11*
X139000000Y-78320000D03*
X139000000Y-79280000D03*
D12*
X159650000Y-70850000D03*
X159650000Y-69200000D03*
D13*
X139000000Y-82280000D03*
X139000000Y-81320000D03*
D14*
X181855000Y-59600000D03*
X183505000Y-59600000D03*
D15*
X126150000Y-69575000D03*
X126150000Y-71225000D03*
X127850000Y-69575000D03*
X127850000Y-71225000D03*
D10*
X113000000Y-72475000D03*
X113000000Y-74025000D03*
D16*
X160400000Y-54150000D03*
X134500000Y-54150000D03*
D17*
X147450000Y-54150000D03*
D18*
X117075000Y-96425000D03*
X117075000Y-97085000D03*
X117075000Y-97745000D03*
X117075000Y-98405000D03*
D19*
X115082500Y-97415000D03*
D20*
X142375000Y-88550000D03*
X143925000Y-88550000D03*
D10*
X145200000Y-85025000D03*
X145200000Y-86575000D03*
D21*
X144925000Y-78200000D03*
X143375000Y-78200000D03*
D22*
X129550000Y-71175000D03*
X129550000Y-69625000D03*
X162450000Y-66575000D03*
X162450000Y-65025000D03*
X161450000Y-70800000D03*
X161450000Y-69250000D03*
D23*
X184725000Y-77850000D03*
X183075000Y-77850000D03*
D24*
X118840000Y-96915000D03*
X118840000Y-98315000D03*
D21*
X144925000Y-83250000D03*
X143375000Y-83250000D03*
D15*
X150300000Y-85725000D03*
X150300000Y-87375000D03*
D14*
X147925000Y-105000000D03*
X149575000Y-105000000D03*
D22*
X131300000Y-71175000D03*
X131300000Y-69625000D03*
D10*
X114800000Y-72475000D03*
X114800000Y-74025000D03*
D23*
X148225000Y-103150000D03*
X146575000Y-103150000D03*
X184725000Y-74150000D03*
X183075000Y-74150000D03*
D10*
X146900000Y-79925000D03*
X146900000Y-81475000D03*
D22*
X154900000Y-77075000D03*
X154900000Y-75525000D03*
D23*
X184725000Y-79700000D03*
X183075000Y-79700000D03*
D12*
X148500000Y-87375000D03*
X148500000Y-85725000D03*
D10*
X144400000Y-102375000D03*
X144400000Y-103925000D03*
X114800000Y-82425000D03*
X114800000Y-83975000D03*
D20*
X183125000Y-76000000D03*
X184675000Y-76000000D03*
D23*
X184725000Y-70450000D03*
X183075000Y-70450000D03*
D14*
X181855000Y-57800000D03*
X183505000Y-57800000D03*
D15*
X158850000Y-64975000D03*
X158850000Y-66625000D03*
D12*
X118850000Y-101475000D03*
X118850000Y-99825000D03*
X111200000Y-84025000D03*
X111200000Y-82375000D03*
D10*
X154400000Y-85775000D03*
X154400000Y-87325000D03*
D25*
X143400000Y-86587500D03*
X143400000Y-85012500D03*
D23*
X184725000Y-72300000D03*
X183075000Y-72300000D03*
D20*
X175725000Y-75200000D03*
X177275000Y-75200000D03*
D21*
X183455000Y-61400000D03*
X181905000Y-61400000D03*
D10*
X143400000Y-79925000D03*
X143400000Y-81475000D03*
D12*
X160650000Y-66625000D03*
X160650000Y-64975000D03*
D23*
X184725000Y-81550000D03*
X183075000Y-81550000D03*
D10*
X145150000Y-79925000D03*
X145150000Y-81475000D03*
D21*
X143425000Y-75550000D03*
X141875000Y-75550000D03*
D12*
X111200000Y-74075000D03*
X111200000Y-72425000D03*
M02*
