G04 #@! TF.GenerationSoftware,KiCad,Pcbnew,9.0.4*
G04 #@! TF.CreationDate,2025-10-10T12:55:53+05:30*
G04 #@! TF.ProjectId,VECTRON_V1,56454354-524f-44e5-9f56-312e6b696361,rev?*
G04 #@! TF.SameCoordinates,Original*
G04 #@! TF.FileFunction,Soldermask,Bot*
G04 #@! TF.FilePolarity,Negative*
%FSLAX46Y46*%
G04 Gerber Fmt 4.6, Leading zero omitted, Abs format (unit mm)*
G04 Created by KiCad (PCBNEW 9.0.4) date 2025-10-10 12:55:53*
%MOMM*%
%LPD*%
G01*
G04 APERTURE LIST*
G04 Aperture macros list*
%AMRoundRect*
0 Rectangle with rounded corners*
0 $1 Rounding radius*
0 $2 $3 $4 $5 $6 $7 $8 $9 X,Y pos of 4 corners*
0 Add a 4 corners polygon primitive as box body*
4,1,4,$2,$3,$4,$5,$6,$7,$8,$9,$2,$3,0*
0 Add four circle primitives for the rounded corners*
1,1,$1+$1,$2,$3*
1,1,$1+$1,$4,$5*
1,1,$1+$1,$6,$7*
1,1,$1+$1,$8,$9*
0 Add four rect primitives between the rounded corners*
20,1,$1+$1,$2,$3,$4,$5,0*
20,1,$1+$1,$4,$5,$6,$7,0*
20,1,$1+$1,$6,$7,$8,$9,0*
20,1,$1+$1,$8,$9,$2,$3,0*%
%AMFreePoly0*
4,1,23,0.500000,-0.750000,0.000000,-0.750000,0.000000,-0.745722,-0.065263,-0.745722,-0.191342,-0.711940,-0.304381,-0.646677,-0.396677,-0.554381,-0.461940,-0.441342,-0.495722,-0.315263,-0.495722,-0.250000,-0.500000,-0.250000,-0.500000,0.250000,-0.495722,0.250000,-0.495722,0.315263,-0.461940,0.441342,-0.396677,0.554381,-0.304381,0.646677,-0.191342,0.711940,-0.065263,0.745722,0.000000,0.745722,
0.000000,0.750000,0.500000,0.750000,0.500000,-0.750000,0.500000,-0.750000,$1*%
%AMFreePoly1*
4,1,23,0.000000,0.745722,0.065263,0.745722,0.191342,0.711940,0.304381,0.646677,0.396677,0.554381,0.461940,0.441342,0.495722,0.315263,0.495722,0.250000,0.500000,0.250000,0.500000,-0.250000,0.495722,-0.250000,0.495722,-0.315263,0.461940,-0.441342,0.396677,-0.554381,0.304381,-0.646677,0.191342,-0.711940,0.065263,-0.745722,0.000000,-0.745722,0.000000,-0.750000,-0.500000,-0.750000,
-0.500000,0.750000,0.000000,0.750000,0.000000,0.745722,0.000000,0.745722,$1*%
%AMFreePoly2*
4,1,21,1.372500,0.787500,0.862500,0.787500,0.862500,0.532500,1.372500,0.532500,1.372500,0.127500,0.862500,0.127500,0.862500,-0.127500,1.372500,-0.127500,1.372500,-0.532500,0.862500,-0.532500,0.862500,-0.787500,1.372500,-0.787500,1.372500,-1.195000,0.612500,-1.195000,0.612500,-1.117500,-0.862500,-1.117500,-0.862500,1.117500,0.612500,1.117500,0.612500,1.195000,1.372500,1.195000,
1.372500,0.787500,1.372500,0.787500,$1*%
G04 Aperture macros list end*
%ADD10C,1.000000*%
%ADD11C,0.800000*%
%ADD12C,6.400000*%
%ADD13RoundRect,0.250000X-0.750000X-0.750000X0.750000X-0.750000X0.750000X0.750000X-0.750000X0.750000X0*%
%ADD14C,2.000000*%
%ADD15R,1.700000X1.700000*%
%ADD16C,1.700000*%
%ADD17RoundRect,0.250000X-0.750000X0.750000X-0.750000X-0.750000X0.750000X-0.750000X0.750000X0.750000X0*%
%ADD18RoundRect,0.250000X0.750000X-0.750000X0.750000X0.750000X-0.750000X0.750000X-0.750000X-0.750000X0*%
%ADD19RoundRect,0.250001X-0.799999X-0.799999X0.799999X-0.799999X0.799999X0.799999X-0.799999X0.799999X0*%
%ADD20C,2.100000*%
%ADD21C,0.650000*%
%ADD22O,2.100000X1.000000*%
%ADD23O,1.800000X1.000000*%
%ADD24RoundRect,0.250001X-0.799999X0.799999X-0.799999X-0.799999X0.799999X-0.799999X0.799999X0.799999X0*%
%ADD25RoundRect,0.225000X-0.250000X0.225000X-0.250000X-0.225000X0.250000X-0.225000X0.250000X0.225000X0*%
%ADD26RoundRect,0.140000X-0.170000X0.140000X-0.170000X-0.140000X0.170000X-0.140000X0.170000X0.140000X0*%
%ADD27RoundRect,0.200000X0.275000X-0.200000X0.275000X0.200000X-0.275000X0.200000X-0.275000X-0.200000X0*%
%ADD28RoundRect,0.140000X0.170000X-0.140000X0.170000X0.140000X-0.170000X0.140000X-0.170000X-0.140000X0*%
%ADD29RoundRect,0.200000X-0.200000X-0.275000X0.200000X-0.275000X0.200000X0.275000X-0.200000X0.275000X0*%
%ADD30RoundRect,0.200000X-0.275000X0.200000X-0.275000X-0.200000X0.275000X-0.200000X0.275000X0.200000X0*%
%ADD31FreePoly0,90.000000*%
%ADD32FreePoly1,90.000000*%
%ADD33R,5.000000X5.000000*%
%ADD34C,10.700000*%
%ADD35R,0.990000X0.405000*%
%ADD36FreePoly2,180.000000*%
%ADD37RoundRect,0.225000X-0.225000X-0.250000X0.225000X-0.250000X0.225000X0.250000X-0.225000X0.250000X0*%
%ADD38RoundRect,0.225000X0.225000X0.250000X-0.225000X0.250000X-0.225000X-0.250000X0.225000X-0.250000X0*%
%ADD39RoundRect,0.225000X0.250000X-0.225000X0.250000X0.225000X-0.250000X0.225000X-0.250000X-0.225000X0*%
%ADD40RoundRect,0.200000X0.200000X0.275000X-0.200000X0.275000X-0.200000X-0.275000X0.200000X-0.275000X0*%
%ADD41RoundRect,0.150000X0.200000X-0.150000X0.200000X0.150000X-0.200000X0.150000X-0.200000X-0.150000X0*%
%ADD42C,1.000000*%
%ADD43FreePoly0,0.000000*%
%ADD44FreePoly1,0.000000*%
%ADD45RoundRect,0.218750X0.256250X-0.218750X0.256250X0.218750X-0.256250X0.218750X-0.256250X-0.218750X0*%
G04 APERTURE END LIST*
D10*
X117600000Y-114050000D02*
X117600000Y-120050000D01*
X170100000Y-117700000D02*
X174850000Y-113000000D01*
X117600000Y-117650000D02*
X170100000Y-117650000D01*
X111400000Y-107850000D02*
X117600000Y-114050000D01*
X170125000Y-117662500D02*
X170125000Y-120037500D01*
X174850000Y-113000000D02*
X182500000Y-113000000D01*
G36*
X150150000Y-83100000D02*
G01*
X148650000Y-83100000D01*
X148650000Y-82800000D01*
X150150000Y-82800000D01*
X150150000Y-83100000D01*
G37*
G36*
X159600000Y-63600000D02*
G01*
X159900000Y-63600000D01*
X159900000Y-62100000D01*
X159600000Y-62100000D01*
X159600000Y-63600000D01*
G37*
D11*
X108935534Y-49135534D03*
X109638478Y-47438478D03*
X109638478Y-50832590D03*
X111335534Y-46735534D03*
D12*
X111335534Y-49135534D03*
D11*
X111335534Y-51535534D03*
X113032590Y-47438478D03*
X113032590Y-50832590D03*
X113735534Y-49135534D03*
D13*
X117600000Y-120000000D03*
D14*
X120140000Y-120000000D03*
X122680000Y-120000000D03*
D15*
X117040000Y-46800000D03*
D16*
X119580000Y-46800000D03*
X122120000Y-46800000D03*
X124660000Y-46800000D03*
D15*
X175450000Y-45900000D03*
D16*
X172910000Y-45900000D03*
X170370000Y-45900000D03*
X167830000Y-45900000D03*
X165290000Y-45900000D03*
X162750000Y-45900000D03*
D15*
X133250000Y-104860000D03*
D16*
X133250000Y-102320000D03*
X133250000Y-99780000D03*
X133250000Y-97240000D03*
D15*
X128650000Y-54460000D03*
D16*
X128650000Y-51920000D03*
X128650000Y-49380000D03*
X128650000Y-46840000D03*
D17*
X111400000Y-107860000D03*
D14*
X111400000Y-110400000D03*
X111400000Y-112940000D03*
D15*
X144910000Y-66900000D03*
D16*
X147450000Y-66900000D03*
X149990000Y-66900000D03*
D18*
X182500000Y-113000000D03*
D14*
X182500000Y-110460000D03*
X182500000Y-107920000D03*
D19*
X143905000Y-119467500D03*
D20*
X148905000Y-119467500D03*
D11*
X108935534Y-119135534D03*
X109638478Y-117438478D03*
X109638478Y-120832590D03*
X111335534Y-116735534D03*
D12*
X111335534Y-119135534D03*
D11*
X111335534Y-121535534D03*
X113032590Y-117438478D03*
X113032590Y-120832590D03*
X113735534Y-119135534D03*
D13*
X157457500Y-120000000D03*
D14*
X159997500Y-120000000D03*
X162537500Y-120000000D03*
D15*
X142740000Y-97650000D03*
D16*
X145280000Y-97650000D03*
X147820000Y-97650000D03*
X150360000Y-97650000D03*
D13*
X130262500Y-120000000D03*
D14*
X132802500Y-120000000D03*
X135342500Y-120000000D03*
D21*
X180075000Y-62490000D03*
X180075000Y-56710000D03*
D22*
X179575000Y-63920000D03*
D23*
X183755000Y-63920000D03*
D22*
X179575000Y-55280000D03*
D23*
X183755000Y-55280000D03*
D17*
X110232500Y-62525000D03*
D14*
X110232500Y-65065000D03*
D17*
X110232500Y-55175000D03*
D14*
X110232500Y-57715000D03*
D11*
X183735534Y-119135534D03*
X183032590Y-120832590D03*
X183032590Y-117438478D03*
X181335534Y-121535534D03*
D12*
X181335534Y-119135534D03*
D11*
X181335534Y-116735534D03*
X179638478Y-120832590D03*
X179638478Y-117438478D03*
X178935534Y-119135534D03*
X178935534Y-49135534D03*
X179638478Y-47438478D03*
X179638478Y-50832590D03*
X181335534Y-46735534D03*
D12*
X181335534Y-49135534D03*
D11*
X181335534Y-51535534D03*
X183032590Y-47438478D03*
X183032590Y-50832590D03*
X183735534Y-49135534D03*
D24*
X111782500Y-97300000D03*
D20*
X111782500Y-102300000D03*
D13*
X170120000Y-120000000D03*
D14*
X172660000Y-120000000D03*
X175200000Y-120000000D03*
D25*
X113000000Y-82425000D03*
X113000000Y-83975000D03*
D26*
X139000000Y-78320000D03*
X139000000Y-79280000D03*
D27*
X159650000Y-70850000D03*
X159650000Y-69200000D03*
D28*
X139000000Y-82280000D03*
X139000000Y-81320000D03*
D29*
X181855000Y-59600000D03*
X183505000Y-59600000D03*
D30*
X126150000Y-69575000D03*
X126150000Y-71225000D03*
D31*
X149400000Y-83600000D03*
D32*
X149400000Y-82300000D03*
D30*
X127850000Y-69575000D03*
X127850000Y-71225000D03*
D25*
X113000000Y-72475000D03*
X113000000Y-74025000D03*
D33*
X160400000Y-54150000D03*
X134500000Y-54150000D03*
D34*
X147450000Y-54150000D03*
D35*
X117075000Y-96425000D03*
X117075000Y-97085000D03*
X117075000Y-97745000D03*
X117075000Y-98405000D03*
D36*
X115082500Y-97415000D03*
D37*
X142375000Y-88550000D03*
X143925000Y-88550000D03*
D25*
X145200000Y-85025000D03*
X145200000Y-86575000D03*
D38*
X144925000Y-78200000D03*
X143375000Y-78200000D03*
D39*
X129550000Y-71175000D03*
X129550000Y-69625000D03*
X162450000Y-66575000D03*
X162450000Y-65025000D03*
X161450000Y-70800000D03*
X161450000Y-69250000D03*
D40*
X184725000Y-77850000D03*
X183075000Y-77850000D03*
D41*
X118840000Y-96915000D03*
X118840000Y-98315000D03*
D38*
X144925000Y-83250000D03*
X143375000Y-83250000D03*
D30*
X150300000Y-85725000D03*
X150300000Y-87375000D03*
D29*
X147925000Y-105000000D03*
X149575000Y-105000000D03*
D39*
X131300000Y-71175000D03*
X131300000Y-69625000D03*
D25*
X114800000Y-72475000D03*
X114800000Y-74025000D03*
D40*
X148225000Y-103150000D03*
X146575000Y-103150000D03*
X184725000Y-74150000D03*
X183075000Y-74150000D03*
D25*
X146900000Y-79925000D03*
X146900000Y-81475000D03*
D39*
X154900000Y-77075000D03*
X154900000Y-75525000D03*
D42*
X137600000Y-81200000D03*
X137600000Y-79300000D03*
D40*
X184725000Y-79700000D03*
X183075000Y-79700000D03*
D27*
X148500000Y-87375000D03*
X148500000Y-85725000D03*
D25*
X144400000Y-102375000D03*
X144400000Y-103925000D03*
X114800000Y-82425000D03*
X114800000Y-83975000D03*
D37*
X183125000Y-76000000D03*
X184675000Y-76000000D03*
D40*
X184725000Y-70450000D03*
X183075000Y-70450000D03*
D29*
X181855000Y-57800000D03*
X183505000Y-57800000D03*
D43*
X159100000Y-62850000D03*
D44*
X160400000Y-62850000D03*
D30*
X158850000Y-64975000D03*
X158850000Y-66625000D03*
D27*
X118850000Y-101475000D03*
X118850000Y-99825000D03*
X111200000Y-84025000D03*
X111200000Y-82375000D03*
D25*
X154400000Y-85775000D03*
X154400000Y-87325000D03*
D45*
X143400000Y-86587500D03*
X143400000Y-85012500D03*
D40*
X184725000Y-72300000D03*
X183075000Y-72300000D03*
D37*
X175725000Y-75200000D03*
X177275000Y-75200000D03*
D38*
X183455000Y-61400000D03*
X181905000Y-61400000D03*
D25*
X143400000Y-79925000D03*
X143400000Y-81475000D03*
D27*
X160650000Y-66625000D03*
X160650000Y-64975000D03*
D40*
X184725000Y-81550000D03*
X183075000Y-81550000D03*
D25*
X145150000Y-79925000D03*
X145150000Y-81475000D03*
D38*
X143425000Y-75550000D03*
X141875000Y-75550000D03*
D27*
X111200000Y-74075000D03*
X111200000Y-72425000D03*
M02*
