G04 #@! TF.GenerationSoftware,KiCad,Pcbnew,9.0.4*
G04 #@! TF.CreationDate,2025-10-10T12:55:53+05:30*
G04 #@! TF.ProjectId,VECTRON_V1,56454354-524f-44e5-9f56-312e6b696361,rev?*
G04 #@! TF.SameCoordinates,Original*
G04 #@! TF.FileFunction,Soldermask,Top*
G04 #@! TF.FilePolarity,Negative*
%FSLAX46Y46*%
G04 Gerber Fmt 4.6, Leading zero omitted, Abs format (unit mm)*
G04 Created by KiCad (PCBNEW 9.0.4) date 2025-10-10 12:55:53*
%MOMM*%
%LPD*%
G01*
G04 APERTURE LIST*
G04 Aperture macros list*
%AMRoundRect*
0 Rectangle with rounded corners*
0 $1 Rounding radius*
0 $2 $3 $4 $5 $6 $7 $8 $9 X,Y pos of 4 corners*
0 Add a 4 corners polygon primitive as box body*
4,1,4,$2,$3,$4,$5,$6,$7,$8,$9,$2,$3,0*
0 Add four circle primitives for the rounded corners*
1,1,$1+$1,$2,$3*
1,1,$1+$1,$4,$5*
1,1,$1+$1,$6,$7*
1,1,$1+$1,$8,$9*
0 Add four rect primitives between the rounded corners*
20,1,$1+$1,$2,$3,$4,$5,0*
20,1,$1+$1,$4,$5,$6,$7,0*
20,1,$1+$1,$6,$7,$8,$9,0*
20,1,$1+$1,$8,$9,$2,$3,0*%
%AMFreePoly0*
4,1,23,0.500000,-0.750000,0.000000,-0.750000,0.000000,-0.745722,-0.065263,-0.745722,-0.191342,-0.711940,-0.304381,-0.646677,-0.396677,-0.554381,-0.461940,-0.441342,-0.495722,-0.315263,-0.495722,-0.250000,-0.500000,-0.250000,-0.500000,0.250000,-0.495722,0.250000,-0.495722,0.315263,-0.461940,0.441342,-0.396677,0.554381,-0.304381,0.646677,-0.191342,0.711940,-0.065263,0.745722,0.000000,0.745722,
0.000000,0.750000,0.500000,0.750000,0.500000,-0.750000,0.500000,-0.750000,$1*%
%AMFreePoly1*
4,1,23,0.000000,0.745722,0.065263,0.745722,0.191342,0.711940,0.304381,0.646677,0.396677,0.554381,0.461940,0.441342,0.495722,0.315263,0.495722,0.250000,0.500000,0.250000,0.500000,-0.250000,0.495722,-0.250000,0.495722,-0.315263,0.461940,-0.441342,0.396677,-0.554381,0.304381,-0.646677,0.191342,-0.711940,0.065263,-0.745722,0.000000,-0.745722,0.000000,-0.750000,-0.500000,-0.750000,
-0.500000,0.750000,0.000000,0.750000,0.000000,0.745722,0.000000,0.745722,$1*%
G04 Aperture macros list end*
%ADD10RoundRect,0.200000X-0.200000X-0.275000X0.200000X-0.275000X0.200000X0.275000X-0.200000X0.275000X0*%
%ADD11RoundRect,0.200000X0.200000X0.275000X-0.200000X0.275000X-0.200000X-0.275000X0.200000X-0.275000X0*%
%ADD12C,0.800000*%
%ADD13C,6.400000*%
%ADD14RoundRect,0.225000X0.250000X-0.225000X0.250000X0.225000X-0.250000X0.225000X-0.250000X-0.225000X0*%
%ADD15RoundRect,0.075000X-0.725000X-0.075000X0.725000X-0.075000X0.725000X0.075000X-0.725000X0.075000X0*%
%ADD16RoundRect,0.075000X-0.075000X-0.725000X0.075000X-0.725000X0.075000X0.725000X-0.075000X0.725000X0*%
%ADD17RoundRect,0.150000X0.512500X0.150000X-0.512500X0.150000X-0.512500X-0.150000X0.512500X-0.150000X0*%
%ADD18RoundRect,0.250000X-0.750000X-0.750000X0.750000X-0.750000X0.750000X0.750000X-0.750000X0.750000X0*%
%ADD19C,2.000000*%
%ADD20RoundRect,0.225000X-0.225000X-0.250000X0.225000X-0.250000X0.225000X0.250000X-0.225000X0.250000X0*%
%ADD21R,1.700000X1.700000*%
%ADD22C,1.700000*%
%ADD23RoundRect,0.225000X-0.250000X0.225000X-0.250000X-0.225000X0.250000X-0.225000X0.250000X0.225000X0*%
%ADD24RoundRect,0.225000X0.225000X0.250000X-0.225000X0.250000X-0.225000X-0.250000X0.225000X-0.250000X0*%
%ADD25RoundRect,0.200000X-0.275000X0.200000X-0.275000X-0.200000X0.275000X-0.200000X0.275000X0.200000X0*%
%ADD26RoundRect,0.087500X-0.225000X-0.087500X0.225000X-0.087500X0.225000X0.087500X-0.225000X0.087500X0*%
%ADD27RoundRect,0.087500X-0.087500X-0.225000X0.087500X-0.225000X0.087500X0.225000X-0.087500X0.225000X0*%
%ADD28RoundRect,0.249999X-0.450001X-1.850001X0.450001X-1.850001X0.450001X1.850001X-0.450001X1.850001X0*%
%ADD29RoundRect,0.250000X-0.750000X0.750000X-0.750000X-0.750000X0.750000X-0.750000X0.750000X0.750000X0*%
%ADD30RoundRect,0.140000X-0.170000X0.140000X-0.170000X-0.140000X0.170000X-0.140000X0.170000X0.140000X0*%
%ADD31RoundRect,0.150000X0.200000X-0.150000X0.200000X0.150000X-0.200000X0.150000X-0.200000X-0.150000X0*%
%ADD32RoundRect,0.250000X0.750000X-0.750000X0.750000X0.750000X-0.750000X0.750000X-0.750000X-0.750000X0*%
%ADD33FreePoly0,90.000000*%
%ADD34FreePoly1,90.000000*%
%ADD35R,2.200000X1.050000*%
%ADD36R,1.050000X1.000000*%
%ADD37R,0.700000X0.700000*%
%ADD38RoundRect,0.250001X-0.799999X-0.799999X0.799999X-0.799999X0.799999X0.799999X-0.799999X0.799999X0*%
%ADD39C,2.100000*%
%ADD40RoundRect,0.200000X0.275000X-0.200000X0.275000X0.200000X-0.275000X0.200000X-0.275000X-0.200000X0*%
%ADD41R,2.500000X2.500000*%
%ADD42RoundRect,0.218750X-0.218750X-0.256250X0.218750X-0.256250X0.218750X0.256250X-0.218750X0.256250X0*%
%ADD43RoundRect,0.162500X0.162500X-0.447500X0.162500X0.447500X-0.162500X0.447500X-0.162500X-0.447500X0*%
%ADD44RoundRect,0.250000X-0.350000X0.450000X-0.350000X-0.450000X0.350000X-0.450000X0.350000X0.450000X0*%
%ADD45RoundRect,0.162500X-0.162500X0.650000X-0.162500X-0.650000X0.162500X-0.650000X0.162500X0.650000X0*%
%ADD46RoundRect,0.140000X0.170000X-0.140000X0.170000X0.140000X-0.170000X0.140000X-0.170000X-0.140000X0*%
%ADD47R,0.350000X0.500000*%
%ADD48C,0.650000*%
%ADD49RoundRect,0.150000X0.425000X-0.150000X0.425000X0.150000X-0.425000X0.150000X-0.425000X-0.150000X0*%
%ADD50RoundRect,0.075000X0.500000X-0.075000X0.500000X0.075000X-0.500000X0.075000X-0.500000X-0.075000X0*%
%ADD51O,2.100000X1.000000*%
%ADD52O,1.800000X1.000000*%
%ADD53RoundRect,0.250000X-0.262500X-0.450000X0.262500X-0.450000X0.262500X0.450000X-0.262500X0.450000X0*%
%ADD54RoundRect,0.142500X0.482500X0.332500X-0.482500X0.332500X-0.482500X-0.332500X0.482500X-0.332500X0*%
%ADD55RoundRect,0.218750X0.381250X-0.218750X0.381250X0.218750X-0.381250X0.218750X-0.381250X-0.218750X0*%
%ADD56RoundRect,0.218750X0.256250X-0.218750X0.256250X0.218750X-0.256250X0.218750X-0.256250X-0.218750X0*%
%ADD57RoundRect,0.250000X-1.000000X-0.650000X1.000000X-0.650000X1.000000X0.650000X-1.000000X0.650000X0*%
%ADD58RoundRect,0.102000X0.900000X0.400000X-0.900000X0.400000X-0.900000X-0.400000X0.900000X-0.400000X0*%
%ADD59RoundRect,0.150000X-0.200000X0.150000X-0.200000X-0.150000X0.200000X-0.150000X0.200000X0.150000X0*%
%ADD60RoundRect,0.250001X-0.799999X0.799999X-0.799999X-0.799999X0.799999X-0.799999X0.799999X0.799999X0*%
%ADD61RoundRect,0.225000X-0.375000X0.225000X-0.375000X-0.225000X0.375000X-0.225000X0.375000X0.225000X0*%
%ADD62R,0.375000X0.350000*%
%ADD63R,0.350000X0.375000*%
%ADD64R,1.500000X0.800000*%
%ADD65RoundRect,0.362500X-0.637500X0.362500X-0.637500X-0.362500X0.637500X-0.362500X0.637500X0.362500X0*%
%ADD66C,1.000000*%
G04 APERTURE END LIST*
G36*
X172220000Y-49850000D02*
G01*
X173720000Y-49850000D01*
X173720000Y-49550000D01*
X172220000Y-49550000D01*
X172220000Y-49850000D01*
G37*
G36*
X162020000Y-49850000D02*
G01*
X163520000Y-49850000D01*
X163520000Y-49550000D01*
X162020000Y-49550000D01*
X162020000Y-49850000D01*
G37*
D10*
X142575000Y-72150000D03*
X144225000Y-72150000D03*
D11*
X147925000Y-105900000D03*
X146275000Y-105900000D03*
D12*
X108935534Y-49135534D03*
X109638478Y-47438478D03*
X109638478Y-50832590D03*
X111335534Y-46735534D03*
D13*
X111335534Y-49135534D03*
D12*
X111335534Y-51535534D03*
X113032590Y-47438478D03*
X113032590Y-50832590D03*
X113735534Y-49135534D03*
D14*
X128110631Y-60781511D03*
X128110631Y-59231511D03*
D15*
X140725000Y-76050000D03*
X140725000Y-76550000D03*
X140725000Y-77050000D03*
X140725000Y-77550000D03*
X140725000Y-78050000D03*
X140725000Y-78550000D03*
X140725000Y-79050000D03*
X140725000Y-79550000D03*
X140725000Y-80050000D03*
X140725000Y-80550000D03*
X140725000Y-81050000D03*
X140725000Y-81550000D03*
X140725000Y-82050000D03*
X140725000Y-82550000D03*
X140725000Y-83050000D03*
X140725000Y-83550000D03*
X140725000Y-84050000D03*
X140725000Y-84550000D03*
X140725000Y-85050000D03*
X140725000Y-85550000D03*
X140725000Y-86050000D03*
X140725000Y-86550000D03*
X140725000Y-87050000D03*
X140725000Y-87550000D03*
X140725000Y-88050000D03*
D16*
X142400000Y-89725000D03*
X142900000Y-89725000D03*
X143400000Y-89725000D03*
X143900000Y-89725000D03*
X144400000Y-89725000D03*
X144900000Y-89725000D03*
X145400000Y-89725000D03*
X145900000Y-89725000D03*
X146400000Y-89725000D03*
X146900000Y-89725000D03*
X147400000Y-89725000D03*
X147900000Y-89725000D03*
X148400000Y-89725000D03*
X148900000Y-89725000D03*
X149400000Y-89725000D03*
X149900000Y-89725000D03*
X150400000Y-89725000D03*
X150900000Y-89725000D03*
X151400000Y-89725000D03*
X151900000Y-89725000D03*
X152400000Y-89725000D03*
X152900000Y-89725000D03*
X153400000Y-89725000D03*
X153900000Y-89725000D03*
X154400000Y-89725000D03*
D15*
X156075000Y-88050000D03*
X156075000Y-87550000D03*
X156075000Y-87050000D03*
X156075000Y-86550000D03*
X156075000Y-86050000D03*
X156075000Y-85550000D03*
X156075000Y-85050000D03*
X156075000Y-84550000D03*
X156075000Y-84050000D03*
X156075000Y-83550000D03*
X156075000Y-83050000D03*
X156075000Y-82550000D03*
X156075000Y-82050000D03*
X156075000Y-81550000D03*
X156075000Y-81050000D03*
X156075000Y-80550000D03*
X156075000Y-80050000D03*
X156075000Y-79550000D03*
X156075000Y-79050000D03*
X156075000Y-78550000D03*
X156075000Y-78050000D03*
X156075000Y-77550000D03*
X156075000Y-77050000D03*
X156075000Y-76550000D03*
X156075000Y-76050000D03*
D16*
X154400000Y-74375000D03*
X153900000Y-74375000D03*
X153400000Y-74375000D03*
X152900000Y-74375000D03*
X152400000Y-74375000D03*
X151900000Y-74375000D03*
X151400000Y-74375000D03*
X150900000Y-74375000D03*
X150400000Y-74375000D03*
X149900000Y-74375000D03*
X149400000Y-74375000D03*
X148900000Y-74375000D03*
X148400000Y-74375000D03*
X147900000Y-74375000D03*
X147400000Y-74375000D03*
X146900000Y-74375000D03*
X146400000Y-74375000D03*
X145900000Y-74375000D03*
X145400000Y-74375000D03*
X144900000Y-74375000D03*
X144400000Y-74375000D03*
X143900000Y-74375000D03*
X143400000Y-74375000D03*
X142900000Y-74375000D03*
X142400000Y-74375000D03*
D17*
X113037500Y-87950000D03*
X113037500Y-87000000D03*
X113037500Y-86050000D03*
X110762500Y-86050000D03*
X110762500Y-87000000D03*
X110762500Y-87950000D03*
D18*
X117600000Y-120000000D03*
D19*
X120140000Y-120000000D03*
X122680000Y-120000000D03*
D10*
X121175000Y-85200000D03*
X122825000Y-85200000D03*
D20*
X124575000Y-94350000D03*
X126125000Y-94350000D03*
D10*
X118775000Y-93750000D03*
X120425000Y-93750000D03*
D21*
X117040000Y-46800000D03*
D22*
X119580000Y-46800000D03*
X122120000Y-46800000D03*
X124660000Y-46800000D03*
D23*
X114800000Y-82425000D03*
X114800000Y-83975000D03*
D24*
X122775000Y-79950000D03*
X121225000Y-79950000D03*
D25*
X171250000Y-95250000D03*
X171250000Y-96900000D03*
D26*
X146237500Y-102400000D03*
X146237500Y-102900000D03*
X146237500Y-103400000D03*
X146237500Y-103900000D03*
D27*
X146900000Y-104062500D03*
X147400000Y-104062500D03*
X147900000Y-104062500D03*
D26*
X148562500Y-103900000D03*
X148562500Y-103400000D03*
X148562500Y-102900000D03*
X148562500Y-102400000D03*
D27*
X147900000Y-102237500D03*
X147400000Y-102237500D03*
X146900000Y-102237500D03*
D21*
X175450000Y-45900000D03*
D22*
X172910000Y-45900000D03*
X170370000Y-45900000D03*
X167830000Y-45900000D03*
X165290000Y-45900000D03*
X162750000Y-45900000D03*
D14*
X163250000Y-70800000D03*
X163250000Y-69250000D03*
D21*
X133250000Y-104860000D03*
D22*
X133250000Y-102320000D03*
X133250000Y-99780000D03*
X133250000Y-97240000D03*
D14*
X172000000Y-90875000D03*
X172000000Y-89325000D03*
D28*
X115400000Y-87950000D03*
X119100000Y-87950000D03*
D21*
X128650000Y-54460000D03*
D22*
X128650000Y-51920000D03*
X128650000Y-49380000D03*
X128650000Y-46840000D03*
D29*
X111400000Y-107860000D03*
D19*
X111400000Y-110400000D03*
X111400000Y-112940000D03*
D30*
X135600000Y-78640000D03*
X135600000Y-79600000D03*
D23*
X111200000Y-82425000D03*
X111200000Y-83975000D03*
D10*
X147475000Y-57925000D03*
X149125000Y-57925000D03*
D20*
X136625000Y-86150000D03*
X138175000Y-86150000D03*
D21*
X144910000Y-66900000D03*
D22*
X147450000Y-66900000D03*
X149990000Y-66900000D03*
D23*
X113000000Y-72475000D03*
X113000000Y-74025000D03*
D31*
X176850000Y-55650000D03*
X176850000Y-57050000D03*
D17*
X113037500Y-78000000D03*
X113037500Y-77050000D03*
X113037500Y-76100000D03*
X110762500Y-76100000D03*
X110762500Y-77050000D03*
X110762500Y-78000000D03*
D10*
X127625000Y-94350000D03*
X129275000Y-94350000D03*
D23*
X119350000Y-82575000D03*
X119350000Y-84125000D03*
D32*
X182500000Y-113000000D03*
D19*
X182500000Y-110460000D03*
X182500000Y-107920000D03*
D24*
X122775000Y-76500000D03*
X121225000Y-76500000D03*
D33*
X172970000Y-50350000D03*
D34*
X172970000Y-49050000D03*
D35*
X153760631Y-46181511D03*
X153760631Y-49131511D03*
D36*
X152260631Y-47656511D03*
D37*
X157835000Y-96100000D03*
X157835000Y-97200000D03*
X159665000Y-97200000D03*
X159665000Y-96100000D03*
D24*
X122775000Y-78250000D03*
X121225000Y-78250000D03*
D38*
X143905000Y-119467500D03*
D39*
X148905000Y-119467500D03*
D40*
X108600000Y-79090000D03*
X108600000Y-77440000D03*
D23*
X119300000Y-72525000D03*
X119300000Y-74075000D03*
D12*
X108935534Y-119135534D03*
X109638478Y-117438478D03*
X109638478Y-120832590D03*
X111335534Y-116735534D03*
D13*
X111335534Y-119135534D03*
D12*
X111335534Y-121535534D03*
X113032590Y-117438478D03*
X113032590Y-120832590D03*
X113735534Y-119135534D03*
D41*
X177400000Y-86725000D03*
X177400000Y-93725000D03*
X184400000Y-93725000D03*
X184400000Y-86725000D03*
D14*
X176850000Y-63925000D03*
X176850000Y-62375000D03*
D42*
X121212500Y-73050000D03*
X122787500Y-73050000D03*
D43*
X173050000Y-97385000D03*
X174950000Y-97385000D03*
X174000000Y-94765000D03*
D24*
X122725000Y-88550000D03*
X121175000Y-88550000D03*
D18*
X157457500Y-120000000D03*
D19*
X159997500Y-120000000D03*
X162537500Y-120000000D03*
D14*
X129900000Y-60781511D03*
X129900000Y-59231511D03*
D11*
X176125000Y-58700000D03*
X174475000Y-58700000D03*
D21*
X142740000Y-97650000D03*
D22*
X145280000Y-97650000D03*
X147820000Y-97650000D03*
X150360000Y-97650000D03*
D40*
X108600000Y-85275000D03*
X108600000Y-83625000D03*
D44*
X132250000Y-79120000D03*
X132250000Y-81320000D03*
X133950000Y-81320000D03*
X133950000Y-79120000D03*
D10*
X142575000Y-70500000D03*
X144225000Y-70500000D03*
D45*
X129405000Y-96562500D03*
X128135000Y-96562500D03*
X126865000Y-96562500D03*
X125595000Y-96562500D03*
X125595000Y-103737500D03*
X126865000Y-103737500D03*
X128135000Y-103737500D03*
X129405000Y-103737500D03*
D31*
X175200000Y-55650000D03*
X175200000Y-57050000D03*
D10*
X173175000Y-99425000D03*
X174825000Y-99425000D03*
D46*
X135600000Y-81800000D03*
X135600000Y-80840000D03*
D47*
X160775000Y-66600000D03*
X160125000Y-66600000D03*
X159475000Y-66600000D03*
X158825000Y-66600000D03*
X158825000Y-65000000D03*
X159475000Y-65000000D03*
X160125000Y-65000000D03*
X160775000Y-65000000D03*
D11*
X176125000Y-60500000D03*
X174475000Y-60500000D03*
D14*
X162450000Y-66575000D03*
X162450000Y-65025000D03*
D33*
X162770000Y-50350000D03*
D34*
X162770000Y-49050000D03*
D18*
X130262500Y-120000000D03*
D19*
X132802500Y-120000000D03*
X135342500Y-120000000D03*
D48*
X180075000Y-62490000D03*
X180075000Y-56710000D03*
D49*
X179000000Y-62800000D03*
X179000000Y-62000000D03*
D50*
X179000000Y-60850000D03*
X179000000Y-59850000D03*
X179000000Y-59350000D03*
X179000000Y-58350000D03*
D49*
X179000000Y-57200000D03*
X179000000Y-56400000D03*
X179000000Y-56400000D03*
X179000000Y-57200000D03*
D50*
X179000000Y-57850000D03*
X179000000Y-58850000D03*
X179000000Y-60350000D03*
X179000000Y-61350000D03*
D49*
X179000000Y-62000000D03*
X179000000Y-62800000D03*
D51*
X179575000Y-63920000D03*
D52*
X183755000Y-63920000D03*
D51*
X179575000Y-55280000D03*
D52*
X183755000Y-55280000D03*
D14*
X170200000Y-90875000D03*
X170200000Y-89325000D03*
D53*
X146737500Y-49900000D03*
X148562500Y-49900000D03*
D11*
X120425000Y-95500000D03*
X118775000Y-95500000D03*
D23*
X144400000Y-102375000D03*
X144400000Y-103925000D03*
D24*
X122725000Y-90250000D03*
X121175000Y-90250000D03*
D40*
X118800000Y-51675000D03*
X118800000Y-50025000D03*
D54*
X130925000Y-73875000D03*
X126575000Y-73875000D03*
X130925000Y-71725000D03*
X126575000Y-71725000D03*
D55*
X150410631Y-49781511D03*
X150410631Y-47656511D03*
D40*
X108600000Y-88575000D03*
X108600000Y-86925000D03*
D25*
X159150000Y-89125000D03*
X159150000Y-90775000D03*
D56*
X159150000Y-93937500D03*
X159150000Y-92362500D03*
D10*
X121175000Y-74750000D03*
X122825000Y-74750000D03*
D57*
X110700000Y-69550000D03*
X114700000Y-69550000D03*
D29*
X110232500Y-62525000D03*
D19*
X110232500Y-65065000D03*
D29*
X110232500Y-55175000D03*
D19*
X110232500Y-57715000D03*
D40*
X108600000Y-75790000D03*
X108600000Y-74140000D03*
D58*
X144250000Y-60550000D03*
X144250000Y-59450000D03*
X144250000Y-58350000D03*
X144250000Y-57250000D03*
X144250000Y-56150000D03*
X144250000Y-55050000D03*
X144250000Y-53950000D03*
X144250000Y-50950000D03*
X144250000Y-49850000D03*
X144250000Y-48750000D03*
X144250000Y-47650000D03*
X144250000Y-46550000D03*
X132250000Y-46550000D03*
X132250000Y-47650000D03*
X132250000Y-48750000D03*
X132250000Y-49850000D03*
X132250000Y-50950000D03*
X132250000Y-53950000D03*
X132250000Y-55050000D03*
X132250000Y-56150000D03*
X132250000Y-57250000D03*
X132250000Y-58350000D03*
X132250000Y-59450000D03*
X132250000Y-60550000D03*
D30*
X157900000Y-75970000D03*
X157900000Y-76930000D03*
D59*
X175200000Y-63600000D03*
X175200000Y-62200000D03*
D12*
X183735534Y-119135534D03*
X183032590Y-120832590D03*
X183032590Y-117438478D03*
X181335534Y-121535534D03*
D13*
X181335534Y-119135534D03*
D12*
X181335534Y-116735534D03*
X179638478Y-120832590D03*
X179638478Y-117438478D03*
X178935534Y-119135534D03*
D23*
X114800000Y-72475000D03*
X114800000Y-74025000D03*
D14*
X161450000Y-70800000D03*
X161450000Y-69250000D03*
D20*
X157975000Y-98900000D03*
X159525000Y-98900000D03*
D40*
X120400000Y-51675000D03*
X120400000Y-50025000D03*
D42*
X121212500Y-83400000D03*
X122787500Y-83400000D03*
D20*
X111125000Y-80000000D03*
X112675000Y-80000000D03*
D12*
X178935534Y-49135534D03*
X179638478Y-47438478D03*
X179638478Y-50832590D03*
X181335534Y-46735534D03*
D13*
X181335534Y-49135534D03*
D12*
X181335534Y-51535534D03*
X183032590Y-47438478D03*
X183032590Y-50832590D03*
X183735534Y-49135534D03*
D54*
X130925000Y-69175000D03*
X126575000Y-69175000D03*
X130925000Y-67025000D03*
X126575000Y-67025000D03*
D60*
X111782500Y-97300000D03*
D39*
X111782500Y-102300000D03*
D23*
X123300000Y-97925000D03*
X123300000Y-99475000D03*
D42*
X147512500Y-56125000D03*
X149087500Y-56125000D03*
D46*
X153900000Y-92630000D03*
X153900000Y-91670000D03*
D24*
X159675000Y-72475000D03*
X158125000Y-72475000D03*
X122725000Y-86900000D03*
X121175000Y-86900000D03*
D61*
X174300000Y-88450000D03*
X174300000Y-91750000D03*
D62*
X158137500Y-69275000D03*
X158137500Y-69775000D03*
X158137500Y-70275000D03*
X158137500Y-70775000D03*
D63*
X158650000Y-70787500D03*
X159150000Y-70787500D03*
D62*
X159662500Y-70775000D03*
X159662500Y-70275000D03*
X159662500Y-69775000D03*
X159662500Y-69275000D03*
D63*
X159150000Y-69262500D03*
X158650000Y-69262500D03*
D64*
X180150000Y-72795000D03*
X180150000Y-73895000D03*
X180150000Y-74995000D03*
X180150000Y-76095000D03*
X180150000Y-77195000D03*
X180150000Y-78295000D03*
X180150000Y-79395000D03*
X180150000Y-80495000D03*
D65*
X182750000Y-69125000D03*
X174450000Y-69125000D03*
X182750000Y-82875000D03*
X174450000Y-82875000D03*
D20*
X111125000Y-89950000D03*
X112675000Y-89950000D03*
D18*
X170120000Y-120000000D03*
D19*
X172660000Y-120000000D03*
X175200000Y-120000000D03*
D23*
X113000000Y-82425000D03*
X113000000Y-83975000D03*
D28*
X115400000Y-78000000D03*
X119100000Y-78000000D03*
D66*
X137600000Y-81200000D03*
X137600000Y-79300000D03*
M02*
